<?xml version="1.0" standalone="no"?>
<!DOCTYPE svg PUBLIC "-//W3C//DTD SVG 20010904//EN"
 "http://www.w3.org/TR/2001/REC-SVG-20010904/DTD/svg10.dtd">
<svg version="1.0" xmlns="http://www.w3.org/2000/svg"
 width="654.000000pt" height="184.000000pt" viewBox="0 0 654.000000 184.000000"
 preserveAspectRatio="xMidYMid meet">

<g transform="translate(0.000000,184.000000) scale(0.100000,-0.100000)"
fill="#000000" stroke="none">
<path d="M2938 1753 c7 -3 16 -2 19 1 4 3 -2 6 -13 5 -11 0 -14 -3 -6 -6z"/>
<path d="M3433 1753 c9 -2 25 -2 35 0 9 3 1 5 -18 5 -19 0 -27 -2 -17 -5z"/>
<path d="M2618 1733 c12 -2 32 -2 45 0 12 2 2 4 -23 4 -25 0 -35 -2 -22 -4z"/>
<path d="M3623 1733 c9 -2 25 -2 35 0 9 3 1 5 -18 5 -19 0 -27 -2 -17 -5z"/>
<path d="M2845 1690 c-105 -9 -205 -22 -550 -72 -115 -16 -228 -32 -250 -35
-274 -33 -278 -35 -394 -117 -40 -28 -59 -47 -50 -50 15 -5 143 -20 264 -32
38 -3 83 -8 100 -9 16 -2 91 -9 165 -15 74 -6 176 -15 225 -21 50 -5 137 -14
195 -19 58 -5 177 -16 265 -25 88 -8 212 -20 275 -25 63 -6 178 -17 255 -25
540 -56 716 -65 885 -45 47 6 128 15 180 20 162 18 278 35 285 42 4 4 -39 29
-96 56 -418 197 -723 295 -1079 346 -198 28 -511 40 -675 26z"/>
<path d="M2118 1673 c7 -3 16 -2 19 1 4 3 -2 6 -13 5 -11 0 -14 -3 -6 -6z"/>
<path d="M2028 1663 c7 -3 16 -2 19 1 4 3 -2 6 -13 5 -11 0 -14 -3 -6 -6z"/>
<path d="M3948 1663 c7 -3 16 -2 19 1 4 3 -2 6 -13 5 -11 0 -14 -3 -6 -6z"/>
<path d="M1898 1643 c6 -2 18 -2 25 0 6 3 1 5 -13 5 -14 0 -19 -2 -12 -5z"/>
<path d="M1568 1593 c6 -2 18 -2 25 0 6 3 1 5 -13 5 -14 0 -19 -2 -12 -5z"/>
<path d="M4168 1593 c7 -3 16 -2 19 1 4 3 -2 6 -13 5 -11 0 -14 -3 -6 -6z"/>
<path d="M1438 1573 c6 -2 18 -2 25 0 6 3 1 5 -13 5 -14 0 -19 -2 -12 -5z"/>
<path d="M1158 1523 c7 -3 16 -2 19 1 4 3 -2 6 -13 5 -11 0 -14 -3 -6 -6z"/>
<path d="M1058 1503 c6 -2 18 -2 25 0 6 3 1 5 -13 5 -14 0 -19 -2 -12 -5z"/>
<path d="M623 1423 c9 -2 23 -2 30 0 6 3 -1 5 -18 5 -16 0 -22 -2 -12 -5z"/>
<path d="M900 1383 c-117 -6 -282 -25 -455 -53 -99 -16 -191 -30 -204 -32 -46
-6 -126 -263 -146 -465 -7 -78 -11 -70 55 -150 13 -16 13 -213 0 -213 -5 0
-14 -9 -20 -20 -23 -43 138 -153 295 -202 96 -30 103 -33 170 -102 50 -50 93
-82 146 -109 l76 -37 158 0 159 0 73 36 c40 20 93 54 117 75 l45 40 1587 -1
1586 0 45 -40 c24 -21 76 -55 115 -74 l70 -36 160 0 160 0 80 42 c44 23 102
63 128 89 l47 47 199 11 c454 27 518 32 704 62 107 18 201 38 209 45 15 14 14
19 -40 161 -22 61 -23 64 -6 110 9 27 17 55 17 64 0 15 -129 148 -195 201
-143 116 -439 260 -692 339 -164 50 -378 95 -567 119 -77 9 -88 8 -147 -14
-35 -13 -102 -31 -149 -40 -47 -10 -101 -21 -120 -26 -19 -5 -78 -18 -130 -29
-52 -10 -144 -29 -205 -42 -146 -30 -255 -29 -540 4 -454 54 -572 67 -710 82
-77 9 -196 22 -265 30 -870 104 -1472 147 -1810 128z m212 -449 c110 -35 218
-134 267 -245 96 -216 -7 -475 -229 -577 -82 -38 -215 -43 -311 -12 -117 38
-199 111 -257 230 -36 73 -37 78 -37 185 0 106 1 113 36 185 99 204 319 301
531 234z m3888 15 c138 -22 262 -116 327 -247 62 -125 58 -270 -13 -398 -43
-78 -117 -147 -202 -187 -63 -30 -73 -32 -182 -32 -109 0 -119 2 -183 32 -173
82 -279 279 -248 464 35 214 189 350 426 378 6 0 39 -4 75 -10z m830 -75 c85
-14 178 -32 205 -40 81 -21 232 -130 212 -151 -4 -4 -90 -2 -191 4 -165 10
-190 14 -242 37 -76 35 -117 67 -154 121 -36 52 -38 67 -7 61 12 -3 92 -17
177 -32z m-3453 -289 c260 -35 537 -72 793 -105 124 -16 306 -40 404 -55 98
-14 192 -25 207 -25 16 0 29 -4 29 -10 0 -5 -12 -8 -27 -5 -16 2 -68 6 -118 9
-49 3 -333 21 -630 41 -493 33 -551 39 -665 66 -105 25 -130 35 -157 62 -33
31 -41 47 -24 47 6 0 90 -11 188 -25z"/>
<path d="M833 835 c-29 -13 -53 -28 -53 -33 0 -18 128 -147 137 -137 4 6 7 52
5 103 -4 106 -5 107 -89 67z"/>
<path d="M1037 853 c-4 -3 -7 -48 -7 -100 0 -68 3 -93 13 -92 15 1 127 124
127 139 0 6 -24 22 -52 35 -56 26 -70 29 -81 18z"/>
<path d="M661 668 c-27 -62 -33 -86 -23 -91 4 -3 48 -7 97 -8 71 -2 90 1 92
12 2 14 -109 118 -135 127 -7 2 -20 -14 -31 -40z"/>
<path d="M1185 647 c-38 -35 -66 -67 -63 -73 4 -5 46 -7 100 -4 l93 5 -2 28
c-2 33 -33 99 -48 104 -6 2 -42 -25 -80 -60z"/>
<path d="M925 565 c-29 -28 -32 -64 -7 -94 43 -53 132 -24 132 43 0 68 -78 99
-125 51z"/>
<path d="M720 461 c-80 -6 -85 -7 -83 -28 3 -29 43 -113 53 -113 8 0 118 96
132 115 9 12 5 28 -8 30 -5 1 -47 -1 -94 -4z"/>
<path d="M1120 454 c0 -13 127 -134 140 -134 17 0 70 124 58 135 -2 1 -47 5
-100 7 -72 3 -98 1 -98 -8z"/>
<path d="M864 328 c-91 -98 -90 -96 -68 -113 27 -20 107 -47 115 -38 12 13 15
186 4 190 -6 2 -29 -16 -51 -39z"/>
<path d="M1030 276 c0 -52 4 -98 10 -101 5 -3 35 5 67 17 42 17 58 29 57 41
-2 21 -103 134 -121 136 -10 1 -13 -24 -13 -93z"/>
<path d="M4793 835 c-29 -13 -53 -29 -53 -35 0 -9 23 -37 107 -127 26 -28 33
-12 33 71 0 90 -5 116 -24 116 -6 0 -35 -11 -63 -25z"/>
<path d="M4990 828 c0 -18 -3 -63 -6 -100 -5 -57 -4 -68 9 -68 15 0 143 137
136 144 -14 14 -105 56 -120 56 -15 0 -19 -8 -19 -32z"/>
<path d="M5142 650 c-46 -43 -68 -71 -61 -76 16 -10 182 -5 193 6 7 7 -46 141
-56 140 -2 -1 -36 -32 -76 -70z"/>
<path d="M4632 698 c-15 -20 -42 -88 -42 -109 0 -17 9 -19 100 -19 55 0 100 4
100 9 0 10 -130 131 -141 131 -4 0 -11 -6 -17 -12z"/>
<path d="M4882 567 c-31 -33 -29 -80 4 -106 15 -12 33 -21 40 -21 28 0 63 24
74 49 30 74 -64 136 -118 78z"/>
<path d="M4678 462 c-98 -3 -97 -2 -72 -75 26 -77 34 -77 114 -6 64 58 79 81
54 84 -5 0 -48 -1 -96 -3z"/>
<path d="M5074 458 c-6 -9 -3 -13 79 -86 31 -29 61 -52 65 -52 9 0 40 61 53
103 5 19 4 29 -4 32 -26 8 -188 11 -193 3z"/>
<path d="M4800 308 c-30 -33 -56 -66 -58 -73 -4 -16 14 -29 71 -50 42 -16 50
-16 58 -4 14 23 11 189 -3 188 -7 0 -38 -28 -68 -61z"/>
<path d="M4986 273 c4 -54 8 -100 10 -102 5 -6 98 29 118 44 18 14 17 18 -41
82 -88 99 -95 97 -87 -24z"/>
<path d="M338 1363 c7 -3 16 -2 19 1 4 3 -2 6 -13 5 -11 0 -14 -3 -6 -6z"/>
</g>
</svg>
