<?xml version="1.0" standalone="no"?>
<!DOCTYPE svg PUBLIC "-//W3C//DTD SVG 20010904//EN"
 "http://www.w3.org/TR/2001/REC-SVG-20010904/DTD/svg10.dtd">
<svg version="1.0" xmlns="http://www.w3.org/2000/svg"
 width="680.000000pt" height="594.000000pt" viewBox="0 0 680.000000 594.000000"
 preserveAspectRatio="xMidYMid meet">

<g transform="translate(0.000000,594.000000) scale(0.100000,-0.100000)"
fill="#000000" stroke="none">
<path d="M0 5775 c0 -33 4 -45 15 -45 19 0 19 -24 0 -40 -13 -11 -15 -102 -15
-707 0 -586 2 -692 14 -681 47 46 107 98 142 123 22 17 62 55 89 85 26 30 69
70 94 88 25 18 50 43 54 56 6 19 19 26 64 35 68 13 123 14 123 2 0 -5 14 -12
30 -16 17 -4 30 -12 30 -19 0 -18 41 -60 71 -73 23 -10 34 -6 100 39 41 28 84
60 96 71 27 24 43 15 24 -15 -8 -12 -9 -23 -3 -27 5 -3 12 -19 16 -34 6 -27
49 -57 63 -44 3 4 2 17 -4 29 -5 13 -8 29 -6 36 6 14 39 16 48 2 15 -24 35 -9
35 26 0 19 5 44 11 55 10 20 11 20 24 2 18 -23 18 -52 1 -95 -19 -44 -78 -92
-95 -75 -8 8 -11 8 -11 -2 0 -15 -36 -48 -67 -61 -20 -8 -44 -42 -59 -83 -5
-15 -14 -17 -50 -11 -30 4 -44 3 -44 -5 0 -6 -7 -11 -15 -11 -8 0 -15 -4 -15
-10 0 -5 9 -10 20 -10 11 0 20 5 20 12 0 6 3 9 6 6 9 -10 -16 -48 -31 -48 -8
0 -15 -4 -15 -10 0 -5 -11 -12 -25 -16 -14 -3 -33 -17 -43 -29 l-19 -23 -34
37 c-20 20 -44 58 -55 85 -17 42 -82 116 -102 116 -15 0 -37 -22 -26 -26 15
-6 84 -70 84 -78 0 -13 -47 -5 -83 13 -41 21 -46 17 -17 -14 12 -13 16 -25 11
-34 -13 -20 -26 -7 -41 39 -18 54 -31 63 -95 62 -91 -1 -131 -25 -48 -30 70
-4 111 -13 117 -27 2 -7 2 -16 -1 -19 -10 -10 -48 -7 -60 5 -5 5 -32 9 -59 7
l-49 -4 53 -8 c30 -5 52 -14 52 -21 0 -7 10 -15 21 -18 15 -4 20 -11 15 -22
-3 -10 -1 -15 7 -13 7 2 28 -9 46 -24 18 -16 28 -28 22 -28 -5 0 -12 4 -15 8
-3 5 -30 9 -61 10 l-55 1 26 -24 c15 -14 32 -25 39 -25 7 0 20 -9 30 -20 10
-11 23 -20 29 -20 22 0 115 -96 131 -134 8 -22 13 -41 10 -44 -3 -3 -21 13
-41 37 -36 41 -81 71 -106 71 -8 -1 -5 -7 7 -18 49 -43 46 -52 -7 -18 -60 38
-98 46 -98 21 0 -20 -73 -20 -103 0 -15 10 -41 13 -77 11 -30 -2 -65 0 -76 5
-12 4 -31 5 -43 2 -20 -5 -21 -11 -21 -189 0 -105 4 -184 9 -184 5 0 12 -14
16 -31 4 -17 24 -54 46 -82 21 -28 36 -53 33 -56 -7 -8 -84 86 -97 119 -3 8
-6 -519 -6 -1171 -1 -652 2 -1189 6 -1192 3 -4 12 -2 20 4 10 9 17 8 28 -1 8
-7 24 -10 35 -7 11 3 20 1 20 -4 0 -12 81 -11 100 1 21 13 44 -8 29 -26 -8
-10 -8 -14 0 -14 6 0 11 5 11 10 0 14 36 13 59 -2 15 -9 40 -9 110 1 89 12
151 8 151 -10 0 -5 7 -9 15 -9 8 0 23 -5 33 -11 14 -9 41 -6 118 11 111 26
171 32 194 20 8 -5 23 -11 33 -14 10 -3 16 -10 13 -15 -3 -5 4 -11 15 -14 15
-4 19 -2 15 9 -7 18 2 18 37 0 23 -13 27 -13 27 0 0 8 -4 14 -10 14 -23 0 -8
28 17 33 36 7 42 1 17 -18 -19 -14 -19 -14 0 -15 11 0 27 7 35 15 22 19 101
32 101 16 0 -7 5 -9 13 -4 6 4 23 8 36 8 13 0 26 7 28 15 4 12 3 13 -5 1 -14
-19 -32 -5 -32 26 0 16 -7 27 -20 30 -11 3 -20 9 -20 14 0 4 -12 9 -27 11 -36
4 -41 26 -6 30 22 2 28 8 28 27 0 13 12 32 25 42 14 11 36 28 48 39 19 16 41
20 105 22 45 1 102 3 127 3 85 3 90 4 90 25 0 27 16 25 45 -6 39 -42 41 -110
9 -239 -3 -12 3 -7 13 10 9 17 20 53 24 80 6 47 6 45 7 -25 1 -68 -2 -81 -32
-133 -54 -95 -122 -128 -291 -141 -81 -6 -253 -38 -272 -49 -19 -12 -316 -94
-408 -113 -122 -26 -381 -26 -475 0 -76 20 -140 59 -140 84 1 13 3 12 13 -6
l13 -23 19 21 c10 11 48 35 84 53 l66 32 260 0 c233 0 273 -2 383 -24 104 -20
127 -22 150 -11 l27 13 -30 8 c-35 11 -123 23 -336 46 -279 30 -593 -5 -644
-74 -8 -10 -15 -37 -15 -60 0 -33 5 -46 25 -61 36 -29 206 -52 381 -52 154 0
354 20 299 30 -25 4 -17 9 55 27 47 12 126 34 175 49 101 30 136 32 180 14
l30 -13 -35 -10 c-23 -7 -29 -12 -18 -14 9 -2 26 1 37 6 27 15 67 14 104 -3
18 -8 41 -16 52 -19 58 -14 248 -71 305 -92 36 -13 119 -40 185 -60 66 -20
145 -45 175 -55 30 -11 75 -22 100 -26 25 -3 77 -17 115 -29 39 -13 111 -35
160 -51 95 -29 175 -75 175 -100 0 -14 -23 -44 -33 -44 -3 0 -3 9 0 20 4 13 0
20 -10 20 -8 0 -15 -6 -14 -12 1 -49 -2 -54 -41 -51 l-37 3 33 -10 c35 -12 43
-30 12 -30 -11 0 -20 -7 -20 -15 0 -22 37 -18 53 5 12 18 16 19 27 5 10 -12 8
-16 -15 -25 -14 -5 -31 -10 -36 -10 -6 0 -8 -4 -5 -8 3 -5 19 -7 36 -4 25 3
29 1 24 -12 -3 -9 -2 -16 2 -17 5 0 23 -2 39 -5 17 -2 46 -6 65 -8 48 -5 54
-38 11 -57 -32 -14 -43 -49 -16 -49 8 0 15 -5 15 -11 0 -7 -10 -9 -24 -5 -14
3 -28 2 -31 -4 -3 -5 -2 -10 4 -10 6 0 8 -7 5 -15 -9 -22 19 -19 39 5 9 11 26
20 37 20 11 0 20 5 20 10 0 6 7 10 15 10 8 0 15 -4 15 -10 0 -5 -6 -10 -12
-10 -10 0 -9 -3 1 -9 7 -5 21 -6 31 -4 15 4 17 1 13 -16 -3 -11 -9 -19 -13
-16 -4 2 -16 -5 -26 -16 -17 -19 -17 -20 4 -26 12 -3 19 -9 16 -14 -10 -16 7
-49 24 -49 16 1 16 1 0 10 -23 14 -12 49 13 43 10 -3 17 -9 14 -13 -3 -5 0
-12 6 -16 6 -3 15 -1 19 5 5 9 10 8 20 -4 8 -10 17 -12 24 -6 6 5 33 9 60 9
39 -1 50 -5 54 -20 3 -12 10 -17 19 -14 37 14 93 18 93 7 0 -7 -4 -10 -9 -6
-11 6 -26 -13 -17 -22 3 -3 11 -1 18 4 7 6 44 13 81 16 57 4 66 3 56 -9 -10
-12 -2 -14 45 -14 36 0 55 4 51 10 -3 6 -13 10 -21 10 -8 0 -14 5 -14 10 0 6
8 10 18 10 10 0 22 4 28 9 5 4 24 11 43 15 31 6 33 5 27 -19 -5 -18 -2 -25 9
-25 8 0 15 5 15 10 0 6 9 10 20 10 11 0 23 6 26 14 7 19 64 13 118 -13 23 -12
46 -21 50 -21 15 0 -7 22 -32 32 -25 10 -26 11 -7 18 13 5 29 1 46 -11 20 -14
29 -15 37 -7 9 9 12 9 12 1 0 -8 9 -7 28 3 31 16 62 18 62 4 0 -5 -7 -7 -16
-3 -12 4 -15 2 -12 -8 7 -21 64 -24 72 -4 4 10 1 15 -9 13 -7 -2 -14 0 -14 5
-2 22 0 27 14 27 8 0 15 -4 15 -10 0 -5 17 -13 39 -16 60 -10 71 -21 42 -44
l-23 -20 30 0 c29 0 58 21 45 33 -3 4 2 10 12 13 12 5 23 0 35 -16 16 -22 19
-22 34 -8 38 38 167 30 135 -8 -9 -11 -6 -14 16 -14 27 0 27 1 11 24 -10 15
-12 27 -6 31 6 3 10 -1 10 -10 0 -9 5 -13 10 -10 6 3 10 1 10 -4 0 -6 9 -11
20 -11 11 0 20 -4 20 -10 0 -5 25 -10 55 -10 54 0 55 1 44 21 -7 14 -8 24 -1
31 12 12 35 1 27 -12 -3 -5 9 -16 26 -24 24 -12 35 -13 45 -5 10 9 14 9 14 0
0 -18 28 -13 50 9 21 21 56 28 45 9 -5 -7 5 -8 29 -4 29 6 36 4 36 -9 0 -19
25 -21 37 -4 4 7 6 20 5 29 -2 9 4 19 13 22 17 7 22 -28 5 -38 -5 -3 -10 -10
-10 -16 0 -14 67 -11 74 4 5 9 7 9 12 0 4 -10 97 -13 415 -13 230 0 409 4 409
9 0 14 41 21 46 7 3 -8 25 -13 57 -14 l52 -1 -25 19 -25 20 23 0 c26 0 57 25
43 34 -5 4 -11 1 -13 -6 -3 -8 -9 -8 -24 0 -11 7 -14 12 -5 12 7 0 11 6 8 14
-4 10 3 12 24 10 16 -2 29 -2 29 0 0 7 -62 36 -77 36 -8 0 -11 5 -8 11 4 6 14
8 22 5 10 -4 13 0 11 12 -3 11 -12 16 -26 15 -12 -2 -22 -1 -22 2 0 8 63 120
76 136 8 8 14 23 14 32 0 9 4 17 8 17 10 0 32 150 32 223 0 105 -42 240 -89
281 -50 45 -14 53 104 23 33 -8 98 -21 145 -27 47 -7 103 -17 125 -23 22 -5
55 -9 74 -8 18 2 37 -3 41 -9 4 -7 32 -15 61 -17 29 -2 58 -8 64 -12 5 -5 32
-11 58 -15 27 -3 54 -9 60 -13 6 -3 30 -6 53 -7 24 0 41 -3 38 -7 -8 -13 14
-20 76 -22 33 -1 60 -5 60 -9 0 -4 11 -7 25 -6 19 2 24 7 20 19 -3 10 -1 20 5
24 7 4 10 376 10 1176 l0 1169 -36 52 c-21 29 -62 75 -92 102 -30 28 -68 64
-85 79 -63 59 -136 114 -205 152 -39 22 -70 44 -68 50 2 9 65 36 131 56 17 5
40 16 50 25 20 15 20 15 0 11 -11 -3 -58 -21 -105 -41 -46 -20 -91 -36 -100
-36 -8 0 -42 14 -75 31 -77 39 -179 79 -230 89 -355 69 -446 71 -719 19 -99
-18 -237 -61 -259 -79 -8 -7 18 -85 55 -168 19 -43 18 -72 -1 -72 -11 0 -51
48 -51 62 0 6 -11 24 -26 40 -14 17 -28 44 -31 59 -7 38 -25 37 -91 -4 l-52
-32 6 -71 c4 -48 2 -74 -5 -78 -15 -10 -14 -71 2 -98 6 -12 25 -33 40 -46 15
-13 42 -45 59 -69 l31 -45 -1 -180 -2 -179 38 -35 37 -34 7 53 c3 28 6 80 7
113 1 34 7 80 15 102 14 37 13 42 -5 58 -20 18 -20 18 12 46 37 32 42 33 63
13 8 -8 19 -15 24 -15 11 0 22 47 22 91 0 15 5 31 10 34 6 4 10 -12 10 -39 l0
-46 50 0 c47 0 50 -2 64 -34 8 -18 28 -42 44 -52 32 -18 57 -80 50 -125 -3
-24 -5 -24 -120 -27 l-118 -3 0 -37 c0 -20 -3 -68 -7 -106 -4 -48 -3 -67 4
-63 6 4 9 16 6 27 -4 14 0 20 11 20 13 0 14 3 4 19 -9 15 -9 25 0 45 16 37 35
34 27 -4 -9 -40 13 -40 28 -1 9 24 19 31 49 36 20 4 42 4 47 1 5 -4 12 -2 16
4 3 5 14 10 24 10 16 0 17 -9 15 -76 -1 -42 -5 -79 -9 -82 -3 -4 -56 -8 -116
-10 -102 -4 -109 -6 -109 -25 0 -19 4 -20 115 -14 76 4 115 3 115 -4 0 -37
-24 -147 -32 -143 -4 3 -5 10 -2 16 4 7 -2 8 -17 3 -81 -26 -130 -25 -94 2 15
10 15 13 4 13 -8 0 -20 -5 -27 -12 -15 -15 -16 -118 0 -155 6 -15 10 -33 9
-40 -2 -17 42 -27 90 -20 38 5 39 4 39 -24 0 -16 -5 -29 -11 -29 -5 0 -7 5 -3
11 5 9 -1 10 -22 4 -53 -13 -154 -18 -154 -6 0 6 -5 11 -11 11 -5 0 -7 -4 -4
-10 4 -6 -22 -10 -71 -10 l-76 0 6 33 c3 17 8 120 11 227 l5 195 -35 28 -35
29 0 -96 c0 -94 0 -96 27 -110 l28 -15 -27 -1 c-16 0 -28 -1 -29 -2 0 -2 -3
-61 -6 -133 -3 -71 -9 -134 -13 -139 -5 -4 -109 -9 -232 -10 l-224 -1 7 55 c4
30 8 138 9 240 2 300 16 549 34 598 16 45 55 100 113 161 24 24 33 43 33 67 0
62 -13 53 -112 -70 -16 -18 -28 -37 -28 -40 0 -3 -15 -28 -32 -54 -39 -57 -73
-124 -87 -172 -5 -19 -21 -67 -34 -106 -14 -40 -28 -91 -32 -115 -4 -24 -13
-69 -20 -99 -7 -30 -16 -81 -20 -112 l-6 -58 -647 5 c-356 3 -726 7 -824 11
-135 4 -178 2 -184 -7 -4 -7 -2 -15 4 -17 7 -2 12 -10 12 -18 0 -9 -4 -12 -10
-9 -5 3 -10 -1 -10 -9 0 -15 52 -46 79 -46 14 0 14 -2 1 -10 -33 -22 -67 -11
-91 28 l-24 37 -3 -38 c-2 -28 6 -56 29 -103 35 -70 49 -80 49 -36 0 31 27 62
53 62 9 0 21 9 27 21 6 11 17 18 23 16 14 -4 36 21 37 42 0 8 -8 3 -20 -10
-19 -23 -19 -23 -20 -3 0 26 43 67 67 62 11 -2 19 -13 21 -31 2 -15 8 -27 13
-27 5 0 9 -4 9 -10 0 -5 -12 -10 -27 -10 -23 -1 -83 -39 -83 -53 0 -3 15 -8
33 -12 30 -7 30 -8 7 -12 -82 -12 -89 -14 -96 -35 -4 -12 -13 -28 -20 -36 -16
-16 -18 -32 -4 -32 6 0 10 -5 10 -11 0 -7 -9 -9 -21 -6 -21 6 -21 4 -15 -71 3
-42 9 -94 12 -114 6 -36 5 -38 -21 -38 l-28 0 5 83 c7 106 -3 140 -21 71 -27
-105 -37 -127 -60 -143 l-24 -16 8 40 c4 22 9 69 11 104 1 35 5 70 8 78 7 18
-13 113 -24 113 -4 0 -8 -33 -8 -72 0 -40 -6 -100 -15 -133 -9 -33 -20 -93
-26 -134 -12 -93 -27 -111 -37 -45 -4 27 -10 51 -14 54 -5 3 -4 25 0 50 12 61
12 140 1 140 -10 0 -20 -53 -24 -135 l-2 -50 -50 -2 c-27 0 -55 3 -62 9 -7 5
-17 7 -23 3 -21 -13 -22 26 -1 70 12 25 24 67 26 93 l5 47 -14 -35 c-34 -86
-69 -141 -93 -151 -31 -12 -41 -4 -26 19 39 57 52 96 58 174 8 95 -5 149 -30
128 -12 -10 -20 -9 -40 4 -37 25 -52 54 -69 135 -9 41 -17 76 -20 78 -2 2 -7
-18 -11 -44 -13 -95 -20 -101 -25 -23 l-5 75 -15 -108 -14 -109 -30 6 c-17 3
-67 11 -111 17 -44 6 -135 22 -201 35 -67 13 -124 24 -128 24 -15 0 8 58 83
210 20 42 38 42 118 4 59 -28 122 -25 130 5 2 9 18 24 34 34 43 24 134 14 144
-17 6 -17 9 -14 14 19 4 22 3 45 -1 51 -4 6 -5 14 -1 17 3 4 1 7 -6 7 -7 0
-11 -10 -9 -22 3 -21 -1 -23 -51 -23 -55 0 -82 19 -44 31 10 3 30 12 45 20 14
8 33 14 41 14 19 0 26 44 14 82 -11 33 4 62 41 81 27 13 29 18 17 48 -4 11 5
29 24 52 17 19 31 40 31 46 0 6 15 21 34 33 30 21 153 118 214 169 12 10 25
19 30 19 4 0 25 14 46 30 22 17 50 30 63 30 13 0 34 13 50 30 15 17 33 28 40
26 7 -3 45 5 85 18 57 18 73 27 73 42 0 16 -10 20 -55 26 -65 9 -130 1 -130
-15 0 -20 -70 -69 -90 -64 -11 3 -24 -1 -31 -9 -9 -11 -8 -14 5 -14 9 0 16 -4
16 -8 0 -5 -59 -53 -132 -108 -72 -54 -141 -109 -152 -121 -25 -26 -142 -93
-162 -93 -8 0 -19 8 -25 18 -11 17 -13 16 -39 -10 -27 -26 -89 -41 -75 -18 3
6 14 10 23 10 13 0 13 2 -4 15 -27 21 -39 18 -52 -10 -11 -23 -17 -25 -77 -25
l-65 0 0 29 c0 22 -13 42 -52 80 -68 65 -95 70 -212 42 -50 -12 -100 -21 -111
-21 -10 0 -39 -8 -64 -17 -34 -13 -46 -14 -49 -5 -3 10 -7 10 -20 0 -12 -10
-16 -10 -19 -1 -4 10 -9 10 -26 1 -39 -21 -44 -17 -50 35 -4 28 -11 55 -16 60
-10 10 -112 -11 -168 -33 -30 -12 -33 -4 -17 42 7 22 18 72 23 111 14 103 59
309 69 319 5 5 58 9 118 10 l109 1 8 -124 c4 -68 12 -144 17 -169 9 -41 9 -40
4 20 -2 36 -7 111 -11 167 l-6 102 29 12 c16 6 61 20 99 30 39 10 103 30 144
44 41 14 89 25 105 25 17 0 54 5 83 11 42 10 59 10 93 -1 32 -11 51 -11 88 -2
26 6 67 14 92 17 60 9 84 27 76 58 -6 27 -42 39 -88 30 -36 -7 -44 13 -25 59
14 34 28 46 155 133 29 20 56 44 59 52 10 26 -11 36 -53 24 -21 -6 -39 -9 -41
-7 -2 2 10 18 27 36 39 42 44 74 12 78 -13 2 -26 10 -29 18 -8 20 -33 17 -60
-8 -18 -17 -23 -18 -23 -6 0 9 -7 21 -15 28 -13 11 -20 9 -40 -10 -14 -13 -25
-29 -25 -35 0 -6 -13 -29 -30 -51 -16 -21 -30 -45 -30 -53 0 -8 -7 -23 -17
-33 -14 -16 -14 -18 -1 -18 28 0 39 -84 13 -94 -8 -3 -15 -12 -15 -21 0 -18
-11 -19 -43 -4 -19 8 -23 16 -19 37 5 26 4 27 -15 9 -17 -14 -19 -26 -15 -62
l5 -44 -33 4 c-45 5 -76 -9 -84 -38 -7 -30 -41 -43 -141 -52 -38 -4 -97 -13
-130 -21 -88 -21 -200 -31 -226 -22 -35 13 -59 38 -59 61 0 37 -23 87 -41 87
-12 0 -19 13 -24 48 -11 65 -11 68 -20 148 l-7 71 87 5 c105 7 121 19 127 96
4 43 2 52 -11 52 -9 0 -24 16 -33 35 -10 19 -13 35 -7 35 13 0 48 78 50 110 0
14 13 54 28 90 21 52 31 64 46 62 11 -1 30 -3 43 -4 25 -1 30 -26 7 -34 -19
-8 -19 -32 0 -77 20 -49 19 -68 -5 -74 -12 -3 -30 -26 -44 -56 l-24 -50 91 6
c51 4 151 11 222 16 164 13 523 16 592 6 42 -6 62 -4 100 12 39 17 78 22 201
26 122 4 157 8 171 21 16 15 20 15 51 0 28 -14 43 -15 94 -6 34 6 70 10 81 9
63 -3 85 3 85 23 0 11 5 20 10 20 6 0 10 -8 10 -19 0 -17 7 -18 113 -14 195 9
262 17 259 32 -2 9 3 11 15 6 20 -8 194 -7 202 1 3 3 6 15 6 26 0 18 10 23 60
33 33 7 84 16 113 20 28 4 52 11 52 17 0 6 10 8 24 4 18 -4 25 -1 29 14 6 23
35 26 62 7 13 -10 15 -16 6 -21 -8 -6 -4 -15 16 -33 l27 -26 143 7 c142 7 209
12 248 21 18 4 91 106 93 128 0 5 11 21 24 35 60 67 98 137 103 190 3 48 2 53
-13 46 -9 -4 -45 -8 -79 -10 -54 -2 -63 0 -68 17 -7 22 10 49 32 49 8 0 11 5
8 10 -4 6 -9 8 -13 6 -4 -2 -8 10 -9 27 -1 17 -7 33 -11 36 -12 8 -21 81 -10
81 4 0 8 4 8 8 0 5 -32 13 -71 19 -77 12 -91 19 -69 33 12 7 11 10 -5 16 -38
14 -47 25 -29 38 14 11 14 13 -2 27 -11 9 -15 9 -10 1 10 -16 -6 -21 -77 -25
-40 -3 -57 0 -54 8 5 12 -60 8 -78 -4 -5 -4 -39 -6 -75 -5 -36 1 -74 -3 -85
-10 -11 -6 -52 -11 -93 -10 -58 1 -76 5 -87 20 -27 36 -21 39 102 54 49 6 121
15 161 21 98 12 245 12 237 -1 -4 -6 33 -10 102 -11 59 -1 126 -3 148 -4 22
-2 67 -6 99 -9 36 -3 65 -1 73 5 15 13 132 6 142 -8 8 -12 82 -33 93 -27 4 3
14 2 20 -2 7 -5 27 -7 45 -5 21 1 35 -3 38 -11 4 -9 25 -14 63 -15 53 -1 133
-27 187 -61 20 -12 20 -12 -5 -32 -14 -11 -36 -29 -48 -40 -13 -11 -28 -20
-33 -20 -5 0 -9 -7 -9 -15 0 -9 -12 -20 -27 -27 -80 -32 -98 -42 -80 -46 24
-5 22 -22 -3 -22 -11 0 -29 -9 -40 -20 -11 -11 -31 -20 -44 -20 -14 0 -27 -4
-30 -9 -3 -4 -19 -11 -35 -14 -16 -4 -39 -17 -51 -29 -22 -22 -22 -23 -16 -2
10 34 -20 38 -49 6 -33 -34 -107 -137 -128 -177 -9 -16 -28 -43 -43 -60 -14
-16 -38 -47 -52 -68 -16 -23 -31 -36 -39 -32 -8 3 -21 -2 -29 -10 -18 -18 -12
-18 61 -4 28 5 64 11 80 13 78 11 176 27 235 41 85 18 240 42 365 56 176 19
235 35 277 76 20 20 42 50 49 67 15 37 45 77 56 76 4 -1 11 13 14 31 7 33 -23
119 -42 119 -5 0 -15 11 -21 25 -6 14 -19 25 -29 25 -10 0 -20 4 -23 9 -9 14
-137 97 -194 125 -59 30 -221 86 -247 86 -9 0 -26 5 -38 12 -38 21 -252 63
-447 89 -133 18 -525 6 -690 -20 -219 -35 -464 -86 -485 -101 -5 -4 -25 -10
-42 -13 -18 -4 -52 -15 -75 -25 -24 -10 -69 -29 -101 -42 -31 -12 -60 -26 -63
-31 -3 -5 -13 -9 -22 -9 -9 0 -28 -6 -42 -13 -27 -13 -70 -11 -70 3 0 15 104
100 130 107 14 3 54 20 90 38 36 18 81 37 100 43 19 6 60 20 90 32 109 43 216
78 260 84 160 22 212 40 160 53 -18 5 -20 14 -20 74 l0 69 -945 0 c-692 0
-945 -3 -945 -11 0 -8 -4 -8 -14 0 -22 18 -1047 11 -1069 -8 -14 -11 -21 -11
-42 3 -26 17 -115 22 -115 6 0 -5 8 -13 18 -19 16 -9 16 -10 0 -16 -16 -6 -62
28 -51 38 11 12 -287 6 -313 -5 -22 -10 -28 -10 -32 0 -2 8 -34 12 -108 12
l-104 0 0 -45z m918 12 c7 -6 22 -28 32 -49 l18 -38 -24 0 c-18 0 -24 5 -24
23 0 14 -9 26 -22 32 -19 8 -27 6 -43 -12 -40 -44 -85 -35 -99 20 -6 26 -5 27
36 27 24 0 50 5 58 10 16 10 46 4 68 -13z m-828 3 c0 -5 -6 -10 -14 -10 -8 0
-18 5 -21 10 -3 6 3 10 14 10 12 0 21 -4 21 -10z m196 4 c12 -3 27 -17 33 -30
6 -13 18 -24 28 -24 16 0 16 -1 2 -16 -25 -25 -80 -10 -102 28 -14 25 -15 33
-5 39 15 10 17 10 44 3z m1234 -8 c0 -3 -4 -8 -10 -11 -5 -3 -10 -1 -10 4 0 6
5 11 10 11 6 0 10 -2 10 -4z m440 -14 c0 -14 -36 -43 -43 -35 -4 3 0 15 10 25
17 19 33 24 33 10z m-1747 -79 c-4 -10 -9 -11 -16 -4 -5 5 -7 18 -3 28 6 14 9
15 16 4 4 -8 6 -21 3 -28z m357 -22 c0 -6 -5 -13 -10 -16 -15 -9 -43 3 -35 15
8 13 45 13 45 1z m1045 -1 c-3 -5 -13 -10 -21 -10 -8 0 -12 5 -9 10 3 6 13 10
21 10 8 0 12 -4 9 -10z m-128 -56 c-3 -3 -12 -4 -19 -1 -8 3 -5 6 6 6 11 1 17
-2 13 -5z m73 -8 c0 -3 -4 -8 -10 -11 -5 -3 -10 -1 -10 4 0 6 5 11 10 11 6 0
10 -2 10 -4z m-120 -56 c0 -3 -11 -10 -25 -17 -23 -10 -25 -9 -25 11 0 13 3
25 6 29 6 6 44 -14 44 -23z m152 -52 c-7 -7 -12 -8 -12 -2 0 14 12 26 19 19 2
-3 -1 -11 -7 -17z m-42 -58 c0 -5 -2 -10 -4 -10 -3 0 -8 5 -11 10 -3 6 -1 10
4 10 6 0 11 -4 11 -10z m-140 -39 c6 -12 6 -22 1 -25 -12 -8 -43 23 -36 35 10
15 24 10 35 -10z m2196 -16 c18 -13 17 -14 -18 -15 -36 0 -47 8 -31 23 10 11
28 8 49 -8z m-2633 -32 c-7 -2 -19 -2 -25 0 -7 3 -2 5 12 5 14 0 19 -2 13 -5z
m222 -29 c38 -12 71 -27 73 -32 2 -6 -13 -20 -32 -31 -31 -20 -40 -21 -77 -11
-28 8 -45 8 -52 1 -6 -6 -15 -6 -27 1 -23 15 -66 3 -72 -20 -5 -16 -15 -18
-96 -17 -58 1 -97 7 -107 15 -13 11 -18 10 -29 -6 -8 -10 -18 -16 -22 -12 -4
4 -1 15 7 24 12 14 11 16 -6 12 -11 -2 -19 -10 -17 -17 2 -8 -3 -11 -12 -8 -9
4 -16 -1 -18 -11 -3 -16 -4 -16 -10 0 -5 12 2 23 28 38 18 12 34 26 34 31 0
13 119 69 146 69 12 0 25 -7 28 -16 9 -23 72 -15 68 9 -3 16 3 17 60 11 35 -3
94 -17 133 -30z m2045 6 c0 -5 -4 -10 -10 -10 -5 0 -10 5 -10 10 0 6 5 10 10
10 6 0 10 -4 10 -10z m65 0 c3 -5 -1 -10 -10 -10 -9 0 -13 5 -10 10 3 6 8 10
10 10 2 0 7 -4 10 -10z m60 -10 c3 -5 -1 -10 -9 -10 -9 0 -16 5 -16 10 0 6 4
10 9 10 6 0 13 -4 16 -10z m371 -22 c7 -8 -56 -19 -67 -12 -5 3 -9 10 -9 15 0
9 66 7 76 -3z m594 2 c-20 -13 -40 -13 -40 0 0 6 12 10 28 10 21 0 24 -2 12
-10z m994 -25 c18 -13 17 -15 -12 -45 -17 -16 -33 -30 -37 -30 -4 0 -19 -9
-35 -20 -15 -10 -47 -22 -71 -26 -30 -5 -52 -17 -72 -38 l-28 -31 30 -25 29
-25 -22 -27 c-24 -31 -42 -34 -80 -16 -21 9 -29 8 -44 -5 -24 -22 -29 -21 -35
3 -3 13 -13 20 -29 19 -16 -1 -18 -3 -6 -6 17 -4 17 -6 1 -31 -23 -36 -32 -42
-70 -42 -39 0 -44 21 -13 47 19 17 29 40 12 29 -14 -9 -35 12 -29 28 5 11 19
16 49 16 33 0 60 11 118 45 41 25 82 45 91 45 21 0 34 16 20 24 -16 10 11 52
44 67 37 17 146 56 160 57 6 1 18 -5 29 -13z m-4001 -92 c9 -18 17 -42 17 -55
-1 -40 -40 46 -45 99 -4 37 -3 41 3 18 5 -16 16 -44 25 -62z m2487 77 c0 -5
-5 -10 -11 -10 -5 0 -7 5 -4 10 3 6 8 10 11 10 2 0 4 -4 4 -10z m380 -4 c0
-17 -14 -29 -23 -20 -8 8 3 34 14 34 5 0 9 -6 9 -14z m-731 -17 c-18 -11 -39
-11 -39 0 0 11 31 20 44 13 4 -2 2 -8 -5 -13z m231 -5 c13 -5 13 -6 0 -14 -8
-6 -46 -7 -84 -5 -77 6 -101 15 -40 15 21 0 45 4 53 9 12 8 34 6 71 -5z m175
-45 c-4 -5 -13 -9 -22 -9 -13 0 -13 3 -3 15 13 15 35 11 25 -6z m1565 16 c0
-10 -35 -41 -60 -53 -14 -7 -38 -21 -55 -32 -44 -29 -55 -33 -63 -25 -8 8 41
48 107 87 44 26 71 34 71 23z m-1890 -25 c0 -5 -4 -10 -10 -10 -5 0 -10 5 -10
10 0 6 5 10 10 10 6 0 10 -4 10 -10z m442 -2 c-9 -9 -15 -9 -24 0 -9 9 -7 12
12 12 19 0 21 -3 12 -12z m-452 -48 c0 -5 -10 -10 -22 -10 -19 0 -20 2 -8 10
19 13 30 13 30 0z m-775 -60 c-3 -5 -10 -10 -16 -10 -5 0 -9 5 -9 10 0 6 7 10
16 10 8 0 12 -4 9 -10z m-2115 -9 c0 -14 -18 -23 -30 -16 -6 4 -8 11 -5 16 8
12 35 12 35 0z m2257 -7 c-3 -3 -12 -4 -19 -1 -8 3 -5 6 6 6 11 1 17 -2 13 -5z
m233 -14 c0 -5 -7 -10 -16 -10 -8 0 -12 5 -9 10 3 6 10 10 16 10 5 0 9 -4 9
-10z m1370 -10 c0 -5 -11 -10 -25 -10 -14 0 -25 5 -25 10 0 6 11 10 25 10 14
0 25 -4 25 -10z m-2320 -31 c0 -5 -7 -9 -15 -9 -15 0 -20 12 -9 23 8 8 24 -1
24 -14z m-120 5 c-91 -30 -101 -37 -141 -96 -37 -54 -40 -63 -34 -101 7 -41
32 -97 57 -127 22 -27 101 -67 146 -75 48 -8 49 -19 3 -17 -16 0 -35 -6 -42
-14 -16 -19 -27 -18 -25 3 1 14 -9 19 -44 23 -63 8 -119 41 -158 91 -29 39
-32 50 -31 104 2 81 -6 102 -41 110 -17 4 -32 11 -35 16 -4 5 -15 9 -26 9 -17
0 -29 20 -11 20 4 0 17 3 30 6 16 5 22 2 22 -9 0 -21 55 -48 69 -34 6 6 11 20
11 30 0 12 5 17 14 14 7 -3 18 -1 23 4 16 16 135 47 183 47 25 0 38 -2 30 -4z
m180 -20 c0 -18 35 -11 61 12 21 18 39 18 39 -1 0 -8 -4 -15 -10 -15 -5 0 -19
-11 -32 -24 -16 -18 -30 -23 -48 -20 -29 6 -53 47 -37 63 13 13 27 5 27 -15z
m910 22 c0 -2 -13 -6 -29 -8 -17 -2 -28 -1 -25 4 5 8 54 12 54 4z m120 -16 c0
-5 -7 -10 -15 -10 -8 0 -15 5 -15 10 0 6 7 10 15 10 8 0 15 -4 15 -10z m-1760
-32 c-4 -40 0 -48 18 -48 10 0 24 6 31 13 11 10 12 8 6 -10 -5 -18 -3 -22 9
-17 9 3 16 1 16 -4 0 -31 -86 -24 -116 9 -10 11 -34 29 -53 41 -35 22 -35 22
-11 29 14 4 42 7 63 8 34 1 38 -2 37 -21z m2146 6 c18 -15 18 -15 -6 -10 -14
3 -31 6 -38 6 -7 0 -10 5 -7 10 9 14 28 12 51 -6z m-296 -24 c11 -7 9 -11 -14
-20 -34 -12 -44 -7 -26 15 14 17 20 18 40 5z m1020 2 c0 -16 -52 -34 -64 -22
-7 7 -4 10 11 10 12 0 25 5 28 10 8 12 25 13 25 2z m-1660 -28 c0 -17 -39 -33
-75 -33 l-40 1 38 8 c21 4 43 12 50 19 12 12 27 15 27 5z m-655 -34 c3 -5 2
-10 -4 -10 -5 0 -13 5 -16 10 -3 6 -2 10 4 10 5 0 13 -4 16 -10z m2532 -37
c-15 -16 -17 -16 -17 -1 0 9 6 18 13 21 20 7 22 -2 4 -20z m-2642 -20 c30 -38
33 -47 38 -98 1 -24 -2 -30 -17 -30 -14 0 -26 18 -46 69 -39 97 -28 124 25 59z
m2755 18 c15 -30 12 -38 -17 -45 -16 -3 -38 -8 -50 -12 -19 -5 -23 -2 -23 15
0 16 6 21 25 21 18 0 25 5 25 20 0 26 26 26 40 1z m-3616 -47 c9 -3 16 -11 16
-17 0 -8 -3 -8 -11 0 -21 21 -49 3 -49 -32 0 -23 -7 -37 -23 -48 -21 -14 -24
-13 -35 1 -10 14 -11 10 -6 -20 4 -25 2 -38 -5 -38 -18 0 -13 85 7 119 9 17
24 32 32 35 24 6 57 6 74 0z m1538 -6 c-9 -9 -15 -9 -24 0 -9 9 -7 12 12 12
19 0 21 -3 12 -12z m1161 -7 c4 -4 -1 -15 -12 -25 -15 -14 -29 -16 -65 -11
-47 7 -80 31 -55 39 45 15 114 13 132 -3z m520 -3 c5 -16 -10 -48 -23 -48 -6
0 -10 14 -10 30 0 30 24 43 33 18z m-2153 -98 c-6 -12 -14 -19 -17 -17 -2 3 1
15 7 27 6 12 14 19 17 17 2 -3 -1 -15 -7 -27z m580 21 c0 -14 -91 -23 -125
-12 -27 9 -24 9 23 9 28 -1 55 2 59 5 10 10 43 8 43 -2z m-626 -16 c-4 -8 -10
-15 -15 -15 -5 0 -9 7 -9 15 0 8 7 15 15 15 9 0 12 -6 9 -15z m156 -10 c9 -11
10 -19 3 -26 -7 -7 -19 -2 -39 15 l-29 25 26 1 c15 0 32 -7 39 -15z m270 -4
c0 -5 -9 -11 -20 -14 -22 -6 -28 8 -7 16 19 8 27 8 27 -2z m50 -51 c0 -5 -4
-10 -9 -10 -6 0 -13 5 -16 10 -3 6 1 10 9 10 9 0 16 -4 16 -10z m-403 -17 c3
-7 -4 -9 -16 -6 -12 3 -18 9 -15 15 7 11 26 6 31 -9z m-1407 -469 c0 -8 -5
-12 -10 -9 -6 4 -8 11 -5 16 9 14 15 11 15 -7z m-619 -64 c41 0 36 -16 -8 -25
-21 -4 -50 -16 -66 -27 -15 -11 -31 -17 -34 -14 -4 3 -1 6 6 6 6 0 11 6 9 14
-4 19 33 56 50 50 8 -2 27 -4 43 -4z m239 -80 c47 -26 25 -26 -25 0 -22 11
-33 20 -25 20 8 -1 31 -9 50 -20z m65 -40 c3 -5 2 -10 -4 -10 -5 0 -13 5 -16
10 -3 6 -2 10 4 10 5 0 13 -4 16 -10z m4754 -449 c11 -7 10 -14 -8 -40 -18
-25 -30 -31 -57 -31 -39 0 -38 7 5 52 28 29 39 32 60 19z m321 -211 c-8 -5
-26 -10 -40 -10 -20 0 -22 2 -10 10 8 5 26 10 40 10 20 0 22 -2 10 -10z m284
-29 c48 -16 93 -34 98 -39 8 -8 4 -9 -11 -5 -12 3 -24 9 -27 14 -8 14 -44 10
-44 -5 0 -7 -7 -19 -15 -26 -13 -11 -15 -8 -15 19 0 31 -13 39 -38 22 -7 -4
-12 -12 -11 -17 1 -5 -3 -22 -9 -37 -7 -16 -10 -33 -6 -38 3 -5 2 -19 -2 -32
-7 -20 -8 -19 -15 13 -5 23 -3 42 5 55 18 28 25 74 13 82 -6 3 -24 10 -41 14
l-31 7 30 1 c17 1 70 -12 119 -28z m-270 -52 c2 -30 7 -74 10 -99 6 -43 5 -44
-5 -11 -8 27 -13 32 -21 20 -7 -10 -8 -3 -3 24 4 23 2 37 -5 37 -11 0 -13 -14
-12 -80 1 -42 1 -43 -8 -15 -6 17 -11 44 -13 61 -2 17 -7 36 -11 43 -12 19 3
81 19 81 7 0 16 -6 18 -12 3 -7 6 -4 6 7 2 41 22 -3 25 -56z m-4874 -3 c0 -49
3 -57 29 -75 17 -13 45 -21 68 -21 21 0 63 -7 93 -16 188 -53 212 -57 379 -58
l164 -1 34 -64 c32 -60 33 -65 17 -82 -10 -11 -23 -19 -31 -19 -7 0 -13 -9
-13 -19 0 -19 -42 -37 -60 -26 -5 3 -11 1 -14 -4 -3 -5 -26 -5 -53 1 -27 5
-84 6 -128 2 -44 -4 -109 -8 -145 -9 -77 -3 -135 -11 -249 -32 -70 -13 -101
-14 -194 -4 -61 6 -114 16 -118 22 -4 6 -11 9 -17 5 -13 -8 -61 48 -80 94 -8
19 -18 37 -22 40 -5 3 -10 12 -12 20 -2 8 -15 26 -29 40 -30 29 -84 123 -93
163 -5 22 -3 27 11 27 35 0 275 30 284 36 12 7 129 32 157 33 20 1 22 -3 22
-53z m5300 -6 c8 -5 11 -10 5 -10 -5 0 -17 5 -25 10 -8 5 -10 10 -5 10 6 0 17
-5 25 -10z m80 -45 c0 -10 -16 -4 -40 16 l-25 20 33 -16 c17 -8 32 -18 32 -20z
m-260 -9 c0 -2 -7 -17 -15 -32 -8 -16 -15 -36 -15 -45 0 -9 -8 -23 -17 -30
-15 -12 -16 -12 -9 6 4 11 10 34 13 50 8 48 11 55 28 55 8 0 15 -2 15 -4z
m338 -39 c39 -28 53 -47 34 -47 -4 0 -30 21 -57 46 -54 49 -46 49 23 1z
m-4698 19 c0 -3 -4 -8 -10 -11 -5 -3 -10 -1 -10 4 0 6 5 11 10 11 6 0 10 -2
10 -4z m-39 -49 c-10 -9 -11 -8 -5 6 3 10 9 15 12 12 3 -3 0 -11 -7 -18z m257
-19 c12 -12 17 -78 6 -78 -3 0 -26 14 -50 32 -44 32 -45 32 -22 45 29 16 51
16 66 1z m212 -4 c0 -8 -5 -12 -10 -9 -6 4 -8 11 -5 16 9 14 15 11 15 -7z
m4380 -57 c0 -6 -13 2 -30 18 -16 16 -30 30 -30 33 0 2 14 -6 30 -18 17 -12
30 -26 30 -33z m-4392 6 c27 -6 45 -60 28 -82 -9 -12 -12 -11 -15 4 -2 14 -5
15 -12 4 -7 -11 -10 -9 -15 8 -4 13 -11 20 -16 17 -12 -8 -37 25 -38 50 0 14
5 17 23 11 12 -3 32 -9 45 -12z m4432 -33 c8 -16 8 -18 -4 -14 -17 6 -30 34
-16 34 5 0 14 -9 20 -20z m-4493 -52 c-3 -8 -6 -5 -6 6 -1 11 2 17 5 13 3 -3
4 -12 1 -19z m3790 -20 c-3 -8 -6 -5 -6 6 -1 11 2 17 5 13 3 -3 4 -12 1 -19z
m221 -16 c3 -26 0 -31 -18 -29 -16 1 -20 6 -16 22 3 11 6 26 6 33 0 27 25 4
28 -26z m-4028 -7 c0 -14 -4 -25 -9 -25 -4 0 -6 11 -3 25 2 14 6 25 8 25 2 0
4 -11 4 -25z m3810 -78 c-7 -17 -9 -10 -9 28 1 43 2 46 9 22 5 -16 5 -38 0
-50z m-1611 -277 c60 0 72 -3 81 -20 6 -11 17 -20 24 -20 7 0 40 -18 72 -40
66 -45 94 -51 94 -20 0 11 5 20 10 20 17 0 11 -42 -7 -56 -21 -16 -59 -18 -68
-4 -3 6 -11 10 -17 10 -7 0 -7 -4 -1 -12 17 -21 23 -60 12 -80 -8 -15 -6 -18
17 -18 15 0 25 -3 21 -6 -3 -3 -126 -5 -274 -5 -158 1 -262 -2 -254 -8 17 -11
202 -15 809 -16 276 0 502 -3 502 -7 0 -16 -1923 -8 -1939 8 -2 2 90 5 205 5
269 2 198 15 -137 25 -262 8 -270 9 -298 61 -18 35 -13 41 33 41 38 0 104 21
69 22 -7 0 -13 4 -13 10 0 5 7 7 15 4 8 -4 15 -1 15 5 0 6 -10 12 -22 12 -13
1 -16 3 -8 5 8 3 25 22 37 44 l21 40 -36 1 c-20 1 -48 5 -62 9 -33 11 301 11
360 1 34 -7 13 -9 -87 -10 -148 -1 -155 -6 -80 -58 23 -15 44 -31 47 -34 3 -4
30 -12 60 -18 43 -10 76 -9 155 1 98 13 99 13 51 20 -27 4 -70 3 -95 -2 -82
-15 -153 -1 -131 25 9 11 54 14 201 15 104 0 189 -4 189 -8 0 -5 -10 -14 -22
-20 -19 -9 -12 -11 43 -11 37 -1 89 3 117 9 61 11 135 57 128 77 -3 8 -2 12 3
9 5 -3 14 1 21 9 11 13 16 13 41 0 17 -9 56 -15 98 -15z m-391 3 c-53 -2 -143
-2 -200 0 -57 1 -13 3 97 3 110 0 156 -2 103 -3z m-40 -30 c-10 -2 -28 -2 -40
0 -13 2 -5 4 17 4 22 1 32 -1 23 -4z m2166 -74 c26 -21 34 -39 17 -39 -11 0
-61 44 -61 54 0 12 17 6 44 -15z m-3654 -19 c0 -5 -2 -10 -4 -10 -3 0 -8 5
-11 10 -3 6 -1 10 4 10 6 0 11 -4 11 -10z m3406 -5 c4 -8 15 -15 25 -15 10 0
19 -4 19 -10 0 -16 -47 -12 -64 6 -9 8 -16 20 -16 25 0 15 30 10 36 -6z m854
-25 c21 -7 19 -8 -15 -8 -22 0 -51 4 -65 8 -21 7 -19 8 15 8 22 0 51 -4 65 -8z
m-743 -6 c-3 -3 -12 -4 -19 -1 -8 3 -5 6 6 6 11 1 17 -2 13 -5z m100 0 c-3 -3
-12 -4 -19 -1 -8 3 -5 6 6 6 11 1 17 -2 13 -5z m437 -14 c-15 -16 -27 -19 -53
-14 -39 8 -30 21 19 27 19 2 39 5 45 5 5 1 0 -7 -11 -18z m416 0 c0 -12 -44
-12 -80 0 -20 6 -14 8 28 9 28 1 52 -3 52 -9z m-1083 -36 c-3 -3 -12 -4 -19
-1 -8 3 -5 6 6 6 11 1 17 -2 13 -5z m68 -4 c3 -5 -1 -10 -9 -10 -9 0 -16 5
-16 10 0 6 4 10 9 10 6 0 13 -4 16 -10z m305 -20 c0 -5 -5 -10 -11 -10 -5 0
-7 5 -4 10 3 6 8 10 11 10 2 0 4 -4 4 -10z m-2993 -6 c-3 -3 -12 -4 -19 -1 -8
3 -5 6 6 6 11 1 17 -2 13 -5z m1586 -16 c-6 -11 -183 -7 -183 3 0 5 42 8 94 6
52 -1 92 -5 89 -9z m-1504 -14 c8 -8 -175 -2 -199 6 -14 4 25 5 85 2 61 -2
112 -6 114 -8z m2128 -10 c-3 -3 -12 -4 -19 -1 -8 3 -5 6 6 6 11 1 17 -2 13
-5z m66 -1 c-7 -2 -19 -2 -25 0 -7 3 -2 5 12 5 14 0 19 -2 13 -5z m817 -87
c59 -18 100 -37 100 -47 0 -4 10 -5 22 -1 14 3 19 2 14 -6 -5 -8 0 -12 13 -12
11 0 23 -4 26 -10 3 -5 14 -10 23 -10 9 0 73 -18 142 -40 69 -22 146 -43 172
-46 26 -4 53 -13 60 -22 21 -26 -44 -12 -272 55 -47 14 -95 29 -108 34 -13 5
-32 9 -43 9 -20 0 -102 34 -172 71 -45 24 -59 19 -25 -10 12 -11 34 -29 47
-40 13 -12 30 -21 37 -21 13 0 15 -2 224 -200 73 -69 138 -125 146 -125 8 0
21 -10 29 -23 14 -19 14 -22 1 -22 -17 0 -58 33 -139 113 -32 31 -63 58 -68
58 -5 1 -13 3 -19 4 -5 1 -17 3 -25 4 -23 2 -265 248 -265 269 0 36 13 39 80
18z m500 -20 c0 -3 -4 -8 -10 -11 -5 -3 -10 -1 -10 4 0 6 5 11 10 11 6 0 10
-2 10 -4z m-5025 -98 c22 -6 54 -17 72 -24 17 -8 38 -14 45 -14 8 0 22 -8 30
-17 23 -27 68 -120 68 -140 0 -10 9 -32 19 -50 35 -56 39 -124 5 -94 -5 5 -37
1 -74 -8 -37 -9 -85 -14 -110 -11 l-45 5 85 23 c47 13 95 30 108 38 49 32 16
66 -72 76 -145 16 -246 52 -246 87 0 10 -7 24 -15 31 -11 9 -15 9 -15 1 0 -23
-38 8 -57 48 l-20 40 21 16 c23 17 126 14 201 -7z m4426 -44 c12 -25 19 -48
16 -50 -5 -5 -47 76 -47 89 0 19 13 2 31 -39z m30 -198 c19 -89 19 -123 0 -72
-6 14 -14 26 -19 26 -28 0 -71 165 -57 217 7 27 8 26 32 -27 14 -30 33 -95 44
-144z m-4162 158 c29 -8 55 -13 58 -10 3 3 15 -1 27 -9 11 -8 33 -15 48 -15
15 0 30 -4 33 -10 3 -5 21 -10 38 -11 39 0 137 -21 155 -32 6 -5 17 -5 24 -1
7 4 8 3 4 -4 -4 -7 -2 -12 3 -12 6 0 11 -7 11 -15 0 -18 31 -20 47 -4 13 13
33 4 33 -17 0 -16 16 -19 25 -4 10 17 43 11 47 -7 5 -26 85 -27 91 -1 3 10 1
16 -3 13 -10 -6 -25 34 -16 42 8 8 45 -39 46 -57 0 -10 3 -11 8 -4 4 6 14 13
23 16 14 6 17 -9 23 -115 9 -158 54 -410 113 -627 14 -52 26 -107 28 -121 1
-15 14 -47 28 -72 15 -25 27 -49 27 -53 0 -4 16 -27 36 -51 l37 -45 -139 6
c-77 3 -157 10 -179 16 -22 5 -58 10 -80 10 -22 0 -71 11 -110 24 -38 13 -108
35 -155 50 -47 14 -133 41 -192 60 -58 19 -139 42 -180 52 -40 10 -75 20 -78
24 -3 4 -18 10 -35 14 -16 4 -52 16 -80 26 -27 11 -76 26 -107 35 -38 10 -58
21 -58 31 0 19 9 21 110 28 l85 5 -47 -25 c-27 -13 -48 -26 -48 -28 0 -6 53 9
76 22 10 5 55 22 99 37 115 40 217 126 168 142 -5 2 -23 -15 -39 -38 -15 -23
-30 -36 -32 -29 -2 6 5 21 16 33 26 29 52 81 52 106 0 11 4 22 9 25 8 5 6 88
-4 173 -2 23 0 45 5 48 7 4 7 13 0 25 -5 10 -10 35 -10 54 0 20 -5 36 -11 36
-11 0 -39 60 -39 85 0 9 10 20 23 24 22 9 22 9 -5 20 -41 16 -103 151 -70 151
5 0 32 -7 61 -16z m4244 -139 c42 -55 73 -102 70 -105 -6 -6 -52 47 -99 115
-19 28 -42 61 -52 74 -9 13 -12 22 -5 20 6 -2 45 -49 86 -104z m-3743 75 c22
-7 21 -8 -12 -9 -20 -1 -40 4 -43 9 -7 12 19 12 55 0z m-1520 -100 c0 -52 -11
-56 -112 -42 -44 7 -85 9 -91 5 -5 -3 -53 -8 -106 -10 -108 -4 -108 9 0 27 35
6 111 21 169 34 146 33 140 33 140 -14z m1854 7 c-2 -7 9 -20 26 -29 16 -9 30
-13 30 -9 0 5 16 11 35 13 27 3 36 0 41 -14 3 -11 1 -25 -5 -31 -11 -14 -12
-57 -5 -163 5 -65 3 -74 -17 -93 -14 -13 -36 -21 -56 -21 -25 0 -36 -5 -42
-22 -6 -17 -10 -10 -19 38 -32 171 -30 360 3 348 8 -3 12 -11 9 -17z m-244 3
c0 -5 -4 -10 -10 -10 -5 0 -10 5 -10 10 0 6 5 10 10 10 6 0 10 -4 10 -10z
m3826 -207 c-7 -7 -96 86 -96 102 0 5 23 -14 51 -43 29 -29 49 -55 45 -59z
m-4446 37 c0 -5 -5 -10 -11 -10 -5 0 -7 5 -4 10 3 6 8 10 11 10 2 0 4 -4 4
-10z m4508 -68 c8 8 13 4 18 -16 10 -40 -2 -43 -36 -11 -32 31 -43 60 -12 32
14 -13 21 -14 30 -5z m-5769 -48 c-19 -18 -95 -37 -112 -27 -6 4 -45 6 -87 6
l-75 -1 63 9 c236 34 231 34 211 13z m5595 -53 c17 -7 16 -9 -8 -24 -15 -10
-26 -27 -26 -40 -1 -21 -1 -22 -15 -3 -16 21 -21 61 -6 52 5 -3 11 1 15 9 6
16 12 17 40 6z m-175 -57 c12 -11 11 -15 -12 -23 -14 -6 -60 -13 -101 -17 -72
-6 -76 -6 -76 14 0 46 6 49 93 44 50 -2 88 -9 96 -18z m-4736 -11 c-7 -2 -19
-2 -25 0 -7 3 -2 5 12 5 14 0 19 -2 13 -5z m167 -45 c0 -4 -4 -10 -10 -13 -5
-3 -10 -2 -10 4 0 5 -8 12 -17 14 -10 3 -6 4 10 4 15 -1 27 -5 27 -9z m-190
-13 c7 -9 8 -15 2 -15 -5 0 -12 7 -16 15 -3 8 -4 15 -2 15 2 0 9 -7 16 -15z
m-880 -5 c-19 -13 -30 -13 -30 0 0 6 10 10 23 10 18 0 19 -2 7 -10z m969 -11
c-16 -10 -23 -4 -14 10 3 6 11 8 17 5 6 -4 5 -9 -3 -15z m-380 -20 c-8 -5 -21
-9 -29 -9 -12 1 -11 4 4 15 10 8 23 12 29 8 5 -3 3 -9 -4 -14z m-124 -9 c3 -5
-1 -10 -10 -10 -9 0 -13 5 -10 10 3 6 8 10 10 10 2 0 7 -4 10 -10z m2056 -118
c1 -62 -1 -116 -5 -119 -3 -4 -6 49 -6 117 0 68 2 121 4 119 3 -3 6 -55 7
-117z m6 -204 c-3 -7 -5 -2 -5 12 0 14 2 19 5 13 2 -7 2 -19 0 -25z m0 -50
c-3 -8 -6 -5 -6 6 -1 11 2 17 5 13 3 -3 4 -12 1 -19z m2793 -38 c103 -38 157
-104 182 -221 10 -50 9 -66 -12 -145 -23 -85 -27 -92 -89 -153 -122 -120 -242
-147 -373 -83 -114 55 -168 159 -155 299 21 222 248 376 447 303z m-2800 -51
c0 -6 -4 -7 -10 -4 -5 3 -10 11 -10 16 0 6 5 7 10 4 6 -3 10 -11 10 -16z
m3965 11 c3 -5 2 -10 -4 -10 -5 0 -16 -3 -25 -6 -11 -4 -16 -1 -16 10 0 18 35
22 45 6z m-3893 -172 c2 -27 0 -48 -4 -48 -5 0 -7 30 -7 68 2 69 6 62 11 -20z
m-105 7 c66 0 72 -2 76 -22 2 -13 0 -23 -5 -23 -5 0 -6 -9 -3 -20 7 -21 -10
-28 -18 -7 -4 7 -6 6 -6 -4 -1 -9 -7 -19 -15 -22 -8 -3 -16 -18 -18 -33 -4
-34 -37 -58 -58 -43 -13 9 -12 10 2 6 12 -4 18 2 23 24 4 16 12 32 19 36 7 5
18 23 24 42 l12 34 -48 -7 c-39 -5 -61 -1 -113 20 -35 14 -66 28 -69 31 -3 3
24 2 60 -3 36 -4 97 -8 137 -9z m113 -135 c0 -5 -5 -10 -11 -10 -5 0 -7 5 -4
10 3 6 8 10 11 10 2 0 4 -4 4 -10z m2965 -361 c0 -7 -8 -15 -17 -17 -18 -3
-25 18 -11 32 10 10 28 1 28 -15z m-1595 -25 c0 -2 -7 -4 -15 -4 -8 0 -15 4
-15 10 0 5 7 7 15 4 8 -4 15 -8 15 -10z m-230 -4 c-19 -13 -30 -13 -30 0 0 6
10 10 23 10 18 0 19 -2 7 -10z m-710 -30 c0 -5 -6 -10 -14 -10 -8 0 -18 5 -21
10 -3 6 3 10 14 10 12 0 21 -4 21 -10z m1090 0 c0 -5 -4 -10 -10 -10 -5 0 -10
5 -10 10 0 6 5 10 10 10 6 0 10 -4 10 -10z m70 -26 c0 -17 -36 -19 -46 -2 -4
6 -3 8 3 5 6 -4 14 0 17 9 7 18 26 10 26 -12z"/>
<path d="M3925 2490 c23 -25 68 -23 73 3 3 14 -4 17 -44 17 -47 0 -47 0 -29
-20z"/>
<path d="M4010 2451 c0 -6 12 -25 28 -42 22 -25 32 -29 55 -24 37 10 34 19
-10 40 -21 10 -46 22 -55 27 -12 5 -18 5 -18 -1z"/>
<path d="M2915 2342 c8 -31 21 -42 53 -42 17 0 22 6 22 25 0 36 -1 37 -43 41
-37 2 -39 2 -32 -24z"/>
<path d="M3523 2253 c20 -2 54 -2 75 0 20 2 3 4 -38 4 -41 0 -58 -2 -37 -4z"/>
<path d="M1200 2033 c0 -4 5 -15 10 -23 8 -13 10 -13 10 2 0 9 -4 20 -10 23
-5 3 -10 3 -10 -2z"/>
<path d="M1755 1656 c-11 -8 -14 -15 -8 -19 6 -4 16 0 23 8 17 21 8 28 -15 11z"/>
<path d="M1810 1630 c-17 -4 -21 -8 -12 -14 6 -4 16 -5 21 -2 5 4 11 1 13 -6
3 -7 7 -8 11 -2 10 17 -7 31 -33 24z"/>
<path d="M1850 1370 c0 -5 7 -10 15 -10 8 0 15 5 15 10 0 6 -7 10 -15 10 -8 0
-15 -4 -15 -10z"/>
<path d="M2015 1330 c-3 -5 -1 -10 4 -10 6 0 11 5 11 10 0 6 -2 10 -4 10 -3 0
-8 -4 -11 -10z"/>
<path d="M2542 1530 c0 -14 2 -19 5 -12 2 6 2 18 0 25 -3 6 -5 1 -5 -13z"/>
<path d="M5560 709 c21 -60 30 -71 30 -36 0 35 -15 73 -32 80 -12 4 -11 -4 2
-44z"/>
<path d="M5344 575 c-16 -12 -17 -14 -2 -15 23 0 48 11 48 21 0 14 -24 11 -46
-6z"/>
<path d="M5340 531 c0 -5 6 -14 14 -20 12 -10 13 -8 9 8 -5 21 -23 30 -23 12z"/>
<path d="M3760 5800 c0 -11 2 -20 5 -20 2 0 9 9 15 20 9 16 8 20 -5 20 -8 0
-15 -9 -15 -20z"/>
<path d="M3848 5813 c7 -3 16 -2 19 1 4 3 -2 6 -13 5 -11 0 -14 -3 -6 -6z"/>
<path d="M3897 5808 c4 -7 8 -35 8 -63 l0 -50 45 1 c25 0 92 8 150 18 352 57
1012 33 1347 -50 34 -8 106 -24 160 -34 138 -26 290 -74 402 -126 56 -26 80
-22 82 15 0 9 5 1 11 -18 5 -19 19 -42 31 -52 12 -10 17 -18 10 -19 -15 0
-109 35 -143 54 -14 8 -41 17 -60 21 -19 4 -39 10 -45 14 -14 10 -74 28 -115
36 -31 5 -33 4 -15 -7 19 -12 19 -12 -5 -19 -23 -6 -24 -7 -5 -14 11 -4 34
-18 50 -30 17 -12 68 -41 115 -66 47 -24 87 -47 90 -50 3 -3 39 -28 80 -54
149 -95 246 -159 285 -190 22 -17 69 -49 105 -69 35 -21 74 -48 86 -60 25 -24
32 -30 97 -75 26 -19 47 -38 47 -43 0 -6 -155 -7 -377 -5 -264 4 -322 3 -193
-2 102 -5 286 -10 410 -12 l225 -4 3 58 c2 39 -1 57 -9 57 -9 0 -9 3 0 14 9
11 11 106 9 363 -3 325 -4 348 -21 351 -15 3 -17 -1 -11 -22 6 -24 4 -26 -25
-26 -24 0 -31 4 -31 19 0 11 5 23 10 26 6 3 10 19 10 34 0 15 3 31 8 35 4 4 7
13 7 19 0 7 12 13 28 15 15 2 27 8 27 13 0 5 -557 9 -1446 9 -1154 0 -1444 -3
-1437 -12z m2071 -103 c-3 -3 -9 2 -12 12 -6 14 -5 15 5 6 7 -7 10 -15 7 -18z
m212 -55 c0 -5 -4 -10 -9 -10 -6 0 -13 5 -16 10 -3 6 1 10 9 10 9 0 16 -4 16
-10z m75 -20 c3 -5 -1 -10 -9 -10 -8 0 -18 5 -21 10 -3 6 1 10 9 10 8 0 18 -4
21 -10z m-24 -52 c25 -32 24 -40 -8 -36 -22 2 -29 9 -31 31 -4 33 13 35 39 5z
m-245 -110 c33 -18 52 -34 44 -36 -19 -3 -125 42 -135 57 -13 21 32 10 91 -21z
m242 -69 l27 -21 -25 7 c-14 4 -32 13 -40 21 -24 23 8 17 38 -7z m-108 1 c0
-5 -2 -10 -4 -10 -3 0 -8 5 -11 10 -3 6 -1 10 4 10 6 0 11 -4 11 -10z m321
-228 c-7 -2 -23 6 -35 18 l-21 22 35 -18 c21 -10 30 -19 21 -22z m69 18 c0 -5
-2 -10 -4 -10 -3 0 -8 5 -11 10 -3 6 -1 10 4 10 6 0 11 -4 11 -10z"/>
<path d="M5700 5561 c0 -11 26 -22 34 -14 3 3 3 10 0 14 -7 12 -34 11 -34 0z"/>
<path d="M4150 5465 c-8 -9 -8 -15 -2 -15 12 0 26 19 19 26 -2 2 -10 -2 -17
-11z"/>
<path d="M4240 5458 c0 -20 1 -20 19 -4 13 11 27 15 40 11 12 -4 21 -2 21 4 0
6 -18 11 -40 11 -34 0 -40 -3 -40 -22z"/>
<path d="M4270 5430 c0 -5 7 -10 15 -10 8 0 15 5 15 10 0 6 -7 10 -15 10 -8 0
-15 -4 -15 -10z"/>
<path d="M4900 5395 c-11 -13 -10 -14 4 -9 9 3 16 10 16 15 0 13 -6 11 -20 -6z"/>
<path d="M4817 5294 c-20 -31 -30 -50 -21 -44 20 18 75 100 66 100 -4 0 -24
-25 -45 -56z"/>
<path d="M5719 5268 c-16 -14 -47 -83 -70 -157 -15 -47 -39 -67 -39 -32 0 11
-4 23 -10 26 -6 4 -10 -7 -10 -24 0 -17 -4 -31 -10 -31 -5 0 -10 7 -10 16 0 8
-5 12 -10 9 -6 -4 -8 -11 -4 -16 10 -17 -38 -102 -83 -146 -24 -24 -42 -43
-41 -44 2 0 23 -2 48 -5 61 -8 70 -19 39 -47 -28 -25 -65 -78 -61 -89 1 -5 -2
-8 -6 -8 -5 0 -17 -7 -28 -15 -17 -13 -15 -14 31 -9 28 3 66 10 86 15 l36 9
-5 48 c-3 37 2 63 23 113 14 35 31 80 37 99 14 47 76 208 95 243 19 37 15 63
-8 45z"/>
<path d="M5550 5180 c0 -5 5 -10 11 -10 5 0 7 5 4 10 -3 6 -8 10 -11 10 -2 0
-4 -4 -4 -10z"/>
<path d="M4709 5143 c-13 -16 -12 -17 4 -4 16 13 21 21 13 21 -2 0 -10 -8 -17
-17z"/>
<path d="M4667 5096 c-4 -10 -1 -13 9 -9 15 6 19 23 5 23 -5 0 -11 -7 -14 -14z"/>
<path d="M4580 4989 c0 -5 5 -7 10 -4 6 3 10 8 10 11 0 2 -4 4 -10 4 -5 0 -10
-5 -10 -11z"/>
<path d="M4560 4949 c-7 -11 -35 -49 -64 -83 -57 -66 -81 -104 -72 -113 11
-11 36 7 36 27 0 11 4 20 8 20 5 0 17 16 28 35 10 19 22 35 26 35 4 0 18 23
32 50 24 48 29 72 6 29z"/>
<path d="M450 4661 c-12 -23 -13 -68 -2 -75 9 -5 92 71 92 85 0 5 -18 9 -40 9
-29 0 -42 -5 -50 -19z"/>
<path d="M3700 4670 c-8 -5 -34 -10 -57 -10 -23 0 -45 -4 -48 -10 -4 -6 24
-10 77 -9 81 1 215 15 171 18 -12 0 -25 6 -28 11 -8 13 -95 13 -115 0z"/>
<path d="M1055 4610 c-3 -5 -1 -10 4 -10 6 0 11 5 11 10 0 6 -2 10 -4 10 -3 0
-8 -4 -11 -10z"/>
<path d="M705 4350 c-4 -6 5 -10 19 -10 14 0 26 5 26 10 0 6 -9 10 -19 10 -11
0 -23 -4 -26 -10z"/>
<path d="M670 4319 c0 -5 5 -7 10 -4 6 3 10 8 10 11 0 2 -4 4 -10 4 -5 0 -10
-5 -10 -11z"/>
<path d="M2359 4289 c-33 -35 -49 -68 -49 -100 0 -23 -32 -99 -42 -99 -4 0
-21 -15 -37 -32 -32 -34 -40 -75 -20 -95 16 -16 43 19 64 86 10 28 28 68 41
87 13 19 24 38 24 43 0 4 9 16 19 25 18 16 45 105 36 115 -3 2 -19 -11 -36
-30z"/>
<path d="M240 4290 c20 -13 53 -13 45 0 -3 6 -18 10 -33 10 -21 0 -24 -2 -12
-10z"/>
<path d="M3328 4230 c13 -6 37 -20 55 -33 64 -47 221 -82 265 -58 22 12 33 43
23 60 -9 14 -223 34 -263 25 -17 -3 -28 -1 -28 5 0 6 -17 11 -37 10 -34 0 -35
-1 -15 -9z"/>
<path d="M4131 4164 c-21 -85 -43 -195 -39 -200 4 -3 23 69 49 191 11 51 3 58
-10 9z"/>
<path d="M141 4173 c17 -20 71 -43 100 -43 18 0 13 6 -22 30 -49 33 -102 43
-78 13z"/>
<path d="M4067 3912 c-9 -23 -17 -52 -16 -65 0 -13 8 0 20 33 23 65 20 92 -4
32z"/>
<path d="M2200 3880 c-8 -5 -27 -10 -42 -10 -24 0 -27 -4 -30 -42 l-3 -43 -50
1 c-70 2 -224 28 -259 45 -25 12 -30 11 -41 -5 -22 -29 -4 -59 41 -69 21 -4
45 -5 54 -1 8 4 31 6 50 5 27 -1 31 1 20 8 -8 6 -26 11 -39 11 -13 0 -22 3
-19 6 4 3 32 2 63 -1 38 -5 52 -10 44 -16 -9 -6 5 -9 37 -9 27 0 55 -5 61 -11
17 -17 52 -1 59 27 4 16 13 24 28 24 27 0 76 48 60 58 -6 4 -13 12 -15 19 -3
8 -9 9 -19 3z"/>
<path d="M4031 3796 c-6 -16 -10 -34 -8 -40 6 -17 29 33 24 52 -3 13 -7 10
-16 -12z"/>
<path d="M2160 3770 c0 -5 5 -10 10 -10 6 0 10 5 10 10 0 6 -4 10 -10 10 -5 0
-10 -4 -10 -10z"/>
<path d="M6738 3733 c6 -2 18 -2 25 0 6 3 1 5 -13 5 -14 0 -19 -2 -12 -5z"/>
<path d="M3987 3648 c-17 -58 -47 -133 -108 -275 -21 -50 -42 -106 -46 -124
-3 -17 -23 -63 -45 -102 -21 -38 -38 -73 -38 -77 0 -4 -14 -26 -31 -50 -17
-23 -43 -64 -57 -90 -36 -62 -61 -92 -97 -116 -35 -22 -40 -26 -82 -60 -69
-55 -132 -69 -308 -68 -88 0 -234 5 -325 12 -398 29 -679 51 -727 58 -35 4
-53 3 -53 -4 0 -16 53 -22 563 -57 114 -8 263 -19 332 -26 161 -15 341 -8 420
16 58 18 172 85 187 110 4 7 21 18 38 25 16 7 30 19 30 28 0 8 29 58 64 111
61 93 126 212 126 233 0 11 66 171 101 244 10 22 19 48 19 58 0 10 7 30 15 44
25 46 55 146 46 155 -4 4 -15 -16 -24 -45z"/>
<path d="M4810 2955 c0 -35 4 -45 16 -45 10 0 14 5 10 15 -4 10 2 19 17 26
l22 10 -22 -5 c-29 -5 -29 1 -1 25 l21 19 -31 0 c-31 0 -32 -1 -32 -45z"/>
<path d="M4770 2970 c0 -19 11 -26 23 -14 8 8 -3 34 -14 34 -5 0 -9 -9 -9 -20z"/>
<path d="M4730 2840 c0 -26 3 -30 29 -30 60 0 59 39 -1 54 -26 6 -28 4 -28
-24z"/>
<path d="M3713 2823 c37 -2 96 -2 130 0 34 2 4 3 -68 3 -71 0 -99 -1 -62 -3z"/>
<path d="M5317 2791 c-3 -12 -1 -21 3 -21 15 0 23 21 12 32 -6 6 -11 2 -15
-11z"/>
<path d="M4666 2773 c-11 -11 -7 -43 6 -43 6 0 8 3 5 7 -4 3 -2 12 4 19 10 13
-3 29 -15 17z"/>
<path d="M4800 2751 c0 -6 4 -13 10 -16 6 -3 7 1 4 9 -7 18 -14 21 -14 7z"/>
<path d="M4760 2709 c7 -12 17 -18 27 -15 8 3 33 6 56 7 38 0 40 1 17 10 -13
6 -35 7 -47 4 -13 -3 -23 -1 -23 5 0 5 -9 10 -20 10 -18 0 -19 -3 -10 -21z"/>
<path d="M4708 2713 c7 -3 16 -2 19 1 4 3 -2 6 -13 5 -11 0 -14 -3 -6 -6z"/>
<path d="M5178 2713 c12 -2 32 -2 45 0 12 2 2 4 -23 4 -25 0 -35 -2 -22 -4z"/>
<path d="M4667 2699 c7 -7 15 -10 18 -7 3 3 -2 9 -12 12 -14 6 -15 5 -6 -5z"/>
<path d="M2492 2405 c0 -16 2 -22 5 -12 2 9 2 23 0 30 -3 6 -5 -1 -5 -18z"/>
<path d="M2380 2383 c0 -24 17 -40 30 -27 4 5 4 18 0 29 -6 13 -9 15 -9 5 -1
-13 -2 -13 -11 0 -8 12 -10 11 -10 -7z"/>
<path d="M2309 2328 c0 -29 -2 -99 -4 -155 -6 -164 27 -141 47 32 7 72 7 98
-5 129 -21 60 -37 57 -38 -6z"/>
<path d="M2390 2324 c0 -3 7 -12 15 -20 13 -14 15 -13 15 5 0 12 -6 21 -15 21
-8 0 -15 -3 -15 -6z"/>
<path d="M1274 1393 c3 -19 65 -37 80 -23 10 10 -30 24 -44 15 -5 -3 -10 1
-10 9 0 9 -6 16 -14 16 -8 0 -13 -8 -12 -17z"/>
<path d="M1467 1373 c-12 -11 -7 -19 12 -19 11 0 17 5 14 13 -6 14 -16 17 -26
6z"/>
<path d="M1625 1357 c-4 -10 -5 -21 -1 -24 10 -10 18 4 13 24 -4 17 -4 17 -12
0z"/>
<path d="M1385 1320 c3 -5 8 -10 11 -10 2 0 4 5 4 10 0 6 -5 10 -11 10 -5 0
-7 -4 -4 -10z"/>
<path d="M1140 1281 c0 -9 71 -23 79 -16 2 3 -3 5 -12 5 -9 0 -17 5 -17 10 0
6 -11 10 -25 10 -14 0 -25 -4 -25 -9z"/>
<path d="M480 1271 c0 -6 5 -13 10 -16 14 -9 52 4 45 16 -8 12 -55 12 -55 0z"/>
<path d="M817 1268 c-15 -11 -12 -13 22 -16 27 -2 40 2 45 13 7 19 -42 21 -67
3z"/>
<path d="M760 1259 c0 -5 5 -7 10 -4 6 3 10 8 10 11 0 2 -4 4 -10 4 -5 0 -10
-5 -10 -11z"/>
<path d="M920 1259 c0 -5 5 -7 10 -4 6 3 10 8 10 11 0 2 -4 4 -10 4 -5 0 -10
-5 -10 -11z"/>
<path d="M398 1233 c7 -3 16 -2 19 1 4 3 -2 6 -13 5 -11 0 -14 -3 -6 -6z"/>
<path d="M470 1210 c20 -13 50 -13 50 0 0 6 -15 10 -32 10 -25 0 -29 -3 -18
-10z"/>
<path d="M578 1203 c6 -2 18 -2 25 0 6 3 1 5 -13 5 -14 0 -19 -2 -12 -5z"/>
<path d="M640 1200 c36 -11 52 -11 45 0 -3 6 -21 10 -38 9 -31 -1 -31 -1 -7
-9z"/>
<path d="M1002 975 c-81 -15 -112 -30 -42 -20 73 10 150 26 150 31 0 6 -28 3
-108 -11z"/>
<path d="M6205 890 c3 -5 8 -10 11 -10 2 0 4 5 4 10 0 6 -5 10 -11 10 -5 0 -7
-4 -4 -10z"/>
<path d="M5812 248 c-16 -16 -15 -28 2 -28 9 0 14 9 13 20 -1 11 -2 20 -2 20
-1 0 -6 -5 -13 -12z"/>
<path d="M5892 175 c-14 -8 -19 -15 -13 -19 5 -4 19 -1 30 6 17 11 23 10 34
-6 9 -13 16 -15 21 -8 4 6 -5 17 -21 25 -23 11 -33 11 -51 2z"/>
<path d="M2600 169 c0 -5 5 -7 10 -4 6 3 10 8 10 11 0 2 -4 4 -10 4 -5 0 -10
-5 -10 -11z"/>
<path d="M5947 116 c-3 -8 -2 -18 4 -22 16 -9 22 2 11 21 -8 15 -10 16 -15 1z"/>
<path d="M3510 106 c0 -2 7 -7 16 -10 8 -3 12 -2 9 4 -6 10 -25 14 -25 6z"/>
<path d="M5820 80 c0 -5 5 -10 11 -10 5 0 7 5 4 10 -3 6 -8 10 -11 10 -2 0 -4
-4 -4 -10z"/>
<path d="M5990 80 c0 -5 5 -10 11 -10 5 0 7 5 4 10 -3 6 -8 10 -11 10 -2 0 -4
-4 -4 -10z"/>
<path d="M3688 73 c7 -3 16 -2 19 1 4 3 -2 6 -13 5 -11 0 -14 -3 -6 -6z"/>
</g>
</svg>
