<?xml version="1.0" standalone="no"?>
<!DOCTYPE svg PUBLIC "-//W3C//DTD SVG 20010904//EN"
 "http://www.w3.org/TR/2001/REC-SVG-20010904/DTD/svg10.dtd">
<svg version="1.0" xmlns="http://www.w3.org/2000/svg"
 width="450.000000pt" height="300.000000pt" viewBox="0 0 450.000000 300.000000"
 preserveAspectRatio="xMidYMid meet">

<g transform="translate(0.000000,300.000000) scale(0.100000,-0.100000)"
fill="#000000" stroke="none">
<path d="M2950 2980 c46 -25 59 -25 32 0 -12 11 -31 20 -44 20 -20 -1 -18 -3
12 -20z"/>
<path d="M30 2930 c0 -5 7 -10 15 -10 8 0 15 5 15 10 0 6 -7 10 -15 10 -8 0
-15 -4 -15 -10z"/>
<path d="M944 2918 c-4 -6 1 -17 11 -25 28 -20 34 -16 22 12 -13 27 -22 31
-33 13z"/>
<path d="M450 2880 c0 -4 9 -10 20 -13 11 -3 20 -2 20 3 0 4 -9 10 -20 13 -11
3 -20 2 -20 -3z"/>
<path d="M719 2840 c55 -13 148 -22 131 -12 -8 5 -49 12 -90 15 -50 4 -64 3
-41 -3z"/>
<path d="M1428 2753 c7 -3 16 -2 19 1 4 3 -2 6 -13 5 -11 0 -14 -3 -6 -6z"/>
<path d="M1825 2750 c-3 -5 -1 -10 4 -10 6 0 11 5 11 10 0 6 -2 10 -4 10 -3 0
-8 -4 -11 -10z"/>
<path d="M1678 2713 c7 -3 16 -2 19 1 4 3 -2 6 -13 5 -11 0 -14 -3 -6 -6z"/>
<path d="M428 2693 c7 -3 16 -2 19 1 4 3 -2 6 -13 5 -11 0 -14 -3 -6 -6z"/>
<path d="M1850 2690 c0 -5 7 -10 16 -10 8 0 12 5 9 10 -3 6 -10 10 -16 10 -5
0 -9 -4 -9 -10z"/>
<path d="M759 2673 c-13 -15 -12 -15 9 -4 23 12 28 21 13 21 -5 0 -15 -7 -22
-17z"/>
<path d="M1895 2680 c3 -5 13 -10 21 -10 8 0 12 5 9 10 -3 6 -13 10 -21 10 -8
0 -12 -4 -9 -10z"/>
<path d="M2501 2664 c0 -11 3 -14 6 -6 3 7 2 16 -1 19 -3 4 -6 -2 -5 -13z"/>
<path d="M2008 2663 c6 -2 18 -2 25 0 6 3 1 5 -13 5 -14 0 -19 -2 -12 -5z"/>
<path d="M2085 2659 c-15 -6 -11 -8 18 -8 20 -1 37 1 37 3 0 9 -37 12 -55 5z"/>
<path d="M2163 2643 c9 -2 25 -2 35 0 9 3 1 5 -18 5 -19 0 -27 -2 -17 -5z"/>
<path d="M693 2605 c0 -22 2 -30 4 -17 2 12 2 30 0 40 -3 9 -5 -1 -4 -23z"/>
<path d="M2231 2636 c10 -9 79 -14 74 -5 -4 5 -22 9 -42 9 -20 0 -34 -2 -32
-4z"/>
<path d="M3622 2633 c-25 -3 -32 -8 -28 -20 3 -8 7 -27 7 -41 1 -21 2 -23 6
-7 7 28 20 34 62 28 28 -4 42 0 55 13 18 17 18 18 0 25 -20 8 -48 8 -102 2z"/>
<path d="M3815 2630 c-45 -6 -56 -32 -15 -36 43 -4 100 8 100 21 0 16 -33 22
-85 15z"/>
<path d="M4002 2633 c-72 -3 -83 -6 -80 -21 2 -9 11 -18 21 -20 12 -3 15 1 11
15 -5 14 -4 15 4 4 8 -11 27 -13 94 -7 45 4 94 10 108 13 23 6 23 7 5 14 -11
4 -33 7 -50 6 -16 0 -67 -3 -113 -4z"/>
<path d="M1460 2621 c0 -13 26 -32 33 -24 4 3 7 -2 7 -13 1 -17 2 -17 20 4 22
27 69 31 200 20 l75 -7 -85 14 c-95 15 -250 18 -250 6z"/>
<path d="M2328 2623 c6 -2 18 -2 25 0 6 3 1 5 -13 5 -14 0 -19 -2 -12 -5z"/>
<path d="M2415 2609 c22 -4 51 -8 65 -7 l25 0 -25 8 c-14 4 -43 8 -65 8 l-40
0 40 -9z"/>
<path d="M1823 2593 c15 -2 37 -2 50 0 12 2 0 4 -28 4 -27 0 -38 -2 -22 -4z"/>
<path d="M1923 2583 c9 -2 25 -2 35 0 9 3 1 5 -18 5 -19 0 -27 -2 -17 -5z"/>
<path d="M2448 2583 c6 -2 18 -2 25 0 6 3 1 5 -13 5 -14 0 -19 -2 -12 -5z"/>
<path d="M1825 2570 c-3 -5 -1 -18 4 -27 9 -16 10 -14 11 10 0 28 -5 34 -15
17z"/>
<path d="M2008 2573 c6 -2 18 -2 25 0 6 3 1 5 -13 5 -14 0 -19 -2 -12 -5z"/>
<path d="M3639 2571 c-6 -18 2 -121 10 -121 8 0 7 117 -1 126 -3 3 -8 1 -9 -5z"/>
<path d="M3785 2570 c-11 -18 6 -118 21 -124 11 -4 14 7 14 54 0 41 4 60 13
60 8 0 7 4 -3 10 -20 13 -37 13 -45 0z"/>
<path d="M4007 2573 c-14 -13 -7 -23 16 -23 13 0 27 -4 33 -9 5 -5 24 -12 42
-16 25 -5 32 -3 32 9 0 8 -8 15 -17 15 -35 1 -83 13 -83 22 0 11 -14 12 -23 2z"/>
<path d="M2105 2560 c30 -8 122 -13 114 -6 -2 2 -35 6 -74 9 -42 3 -58 2 -40
-3z"/>
<path d="M1492 2313 l-2 -253 -22 -1 c-13 -1 -26 -1 -30 0 -5 0 -8 -3 -8 -9 0
-5 5 -10 11 -10 5 0 7 -5 4 -10 -4 -6 -10 -8 -14 -6 -4 3 -8 -1 -8 -9 0 -8 6
-16 14 -19 21 -8 17 -46 -4 -40 -10 3 2 -6 27 -20 57 -32 62 -32 54 0 -4 14
-10 161 -14 327 l-7 302 -1 -252z"/>
<path d="M2263 2543 c9 -2 25 -2 35 0 9 3 1 5 -18 5 -19 0 -27 -2 -17 -5z"/>
<path d="M2968 2533 c7 -3 16 -2 19 1 4 3 -2 6 -13 5 -11 0 -14 -3 -6 -6z"/>
<path d="M2440 2514 c0 -14 3 -15 18 -3 9 7 19 15 21 16 2 2 -5 3 -17 3 -14 0
-22 -6 -22 -16z"/>
<path d="M3068 2523 c7 -3 16 -2 19 1 4 3 -2 6 -13 5 -11 0 -14 -3 -6 -6z"/>
<path d="M821 2475 c-27 -54 -37 -110 -22 -119 6 -4 11 0 11 9 0 9 5 25 11 37
11 20 11 20 34 -2 l23 -21 33 30 c36 33 38 34 87 31 36 -2 43 17 15 45 -24 25
-58 35 -117 35 -52 0 -53 0 -75 -45z"/>
<path d="M2740 2496 c0 -2 8 -10 18 -17 15 -13 16 -12 3 4 -13 16 -21 21 -21
13z"/>
<path d="M4111 2490 c0 -8 3 -19 7 -25 10 -14 32 -17 32 -5 0 6 -6 10 -14 10
-8 0 -17 8 -19 18 -3 12 -5 13 -6 2z"/>
<path d="M438 2453 c-16 -3 -28 -8 -28 -13 0 -13 39 -56 40 -43 0 6 -4 15 -10
18 -5 3 -10 12 -10 18 0 8 3 8 9 -1 4 -8 12 -14 17 -15 5 -1 8 -17 7 -36 -2
-30 -1 -33 22 -29 l24 5 -17 -30 c-23 -40 -56 -61 -86 -53 -28 7 -43 41 -27
60 15 18 -29 49 -45 32 -14 -15 -25 -58 -13 -50 5 3 9 2 9 -3 0 -15 -15 -30
-45 -46 -24 -13 -26 -16 -10 -16 11 0 31 6 44 13 22 12 29 11 58 -8 18 -11 35
-26 37 -33 3 -6 -14 -53 -36 -105 -27 -61 -58 -163 -91 -298 -156 -650 -224
-910 -239 -910 -5 0 -7 -4 -3 -9 3 -5 -6 -36 -20 -67 -14 -32 -25 -67 -23 -79
2 -12 18 15 41 72 40 96 101 325 222 838 41 171 83 335 93 366 28 80 73 169
86 169 6 0 21 15 34 33 12 17 38 49 57 70 l34 39 68 -35 c37 -19 76 -38 86
-41 13 -4 17 -12 12 -27 -5 -16 -3 -20 6 -16 8 2 13 9 12 15 -3 14 8 10 115
-39 46 -21 82 -42 80 -46 -2 -5 -12 -27 -22 -51 -10 -24 -29 -62 -42 -85 -12
-23 -32 -61 -44 -84 -24 -50 -29 -50 -125 -19 -78 25 -74 17 -61 126 3 30 13
77 21 104 17 56 20 116 5 116 -23 0 -78 -161 -87 -255 -3 -27 -9 -52 -14 -55
-25 -16 -106 -228 -115 -305 -3 -22 -12 -74 -21 -115 -43 -214 -83 -448 -83
-492 0 -25 -7 -45 -20 -58 -11 -11 -15 -20 -9 -20 19 0 3 -122 -18 -138 -15
-10 -15 -14 -4 -21 21 -13 -27 -43 -50 -31 -12 7 -19 6 -23 -5 -3 -8 -12 -12
-21 -9 -8 3 -15 1 -15 -6 0 -6 -5 -8 -11 -4 -6 3 -15 0 -20 -7 -6 -10 -9 -11
-9 -1 0 6 -8 12 -17 12 -16 0 -16 -2 -3 -11 12 -9 12 -10 -3 -5 -10 3 -23 6
-28 6 -5 0 -10 10 -10 23 -1 14 -4 9 -8 -13 -5 -30 -11 -36 -46 -46 -24 -6
-41 -18 -43 -28 -3 -15 4 -17 47 -15 31 2 52 8 55 16 3 8 21 13 45 13 25 0 41
5 45 15 4 11 21 15 61 15 52 0 55 -1 55 -26 0 -14 -5 -35 -12 -47 -18 -33 -28
-124 -17 -160 6 -21 6 -33 -1 -35 -5 -2 -10 -8 -10 -12 0 -5 -14 -32 -31 -61
-22 -37 -29 -62 -27 -88 3 -32 6 -36 35 -39 35 -3 113 15 112 26 -1 4 0 12 1
17 1 6 1 25 0 42 -1 24 5 39 24 55 37 33 59 108 143 473 25 113 45 167 71 193
l25 24 -7 -40 c-5 -37 -4 -40 14 -35 18 5 20 14 21 82 2 155 18 3 29 -274 5
-148 13 -283 16 -299 6 -24 4 -28 -9 -23 -9 3 -31 1 -48 -5 -28 -10 -30 -12
-16 -23 10 -7 28 -10 41 -8 19 4 26 0 31 -19 5 -12 15 -34 24 -47 11 -17 15
-44 13 -95 -1 -39 1 -76 5 -81 26 -35 83 -52 156 -47 24 2 27 6 27 40 0 27 -7
45 -21 58 -25 23 -49 66 -49 90 0 9 11 29 25 46 14 16 25 38 25 48 0 10 6 21
13 23 7 3 5 6 -5 6 -10 1 -18 6 -18 13 0 6 -8 20 -17 30 -15 17 -15 22 0 71
11 36 16 87 15 171 -1 118 5 140 36 131 26 -9 136 -13 136 -6 0 4 -17 12 -37
17 l-38 10 69 22 c38 12 73 19 77 15 5 -5 10 -72 12 -149 3 -128 5 -143 26
-170 38 -49 102 -94 132 -94 24 0 32 -7 53 -52 14 -29 39 -62 55 -73 24 -15
28 -23 20 -37 -5 -10 -16 -18 -23 -18 -17 0 -48 -35 -39 -43 13 -14 9 -63 -9
-116 -18 -50 -18 -88 0 -78 4 3 16 -1 27 -9 17 -13 16 -14 -18 -14 -35 0 -43
-9 -38 -42 0 -4 -4 -19 -9 -33 l-10 -26 449 3 c338 2 452 6 463 15 8 7 18 10
21 7 3 -4 14 -3 24 0 15 6 15 8 3 16 -9 6 -10 10 -3 10 6 0 15 -4 18 -10 9
-14 47 -12 71 4 15 11 56 14 176 12 86 -1 160 -5 164 -9 4 -4 15 -7 25 -7 10
0 30 -5 46 -11 15 -7 53 -13 83 -14 30 -2 94 -6 141 -10 111 -10 203 7 264 47
71 47 103 124 142 346 7 36 6 73 -3 120 l-12 67 -1 -80 c-1 -102 -26 -237 -54
-294 -25 -51 -65 -85 -89 -76 -40 15 -64 122 -43 184 6 17 5 22 -3 17 -7 -4
-12 -1 -12 9 0 9 5 13 11 10 7 -5 8 7 3 37 -9 57 -9 140 -1 162 6 14 10 16 21
7 18 -15 22 -7 31 52 5 30 4 47 -3 47 -6 0 -13 -6 -15 -12 -3 -8 -6 -8 -6 -2
-1 6 9 26 22 45 30 45 64 50 94 13 20 -26 22 -26 20 -7 0 12 -5 19 -11 16 -5
-4 -7 1 -3 10 7 19 -17 47 -41 47 -23 -1 -54 -25 -44 -35 4 -5 1 -5 -5 -1 -8
5 -13 1 -13 -10 0 -14 -3 -15 -11 -7 -9 9 -5 20 16 45 15 18 32 33 36 32 5 -1
21 -2 35 -3 34 -2 61 -64 76 -176 7 -52 15 -82 21 -76 5 5 10 62 12 127 3 112
2 118 -21 141 -16 16 -31 22 -44 18 -15 -5 -21 0 -26 19 -5 19 -14 26 -47 31
-34 6 -44 4 -57 -13 -16 -19 -19 -19 -33 -5 -14 14 -17 13 -30 -13 -7 -16 -33
-82 -57 -146 -31 -84 -46 -115 -56 -111 -21 8 -27 46 -19 120 8 76 22 113 43
113 10 0 12 4 5 13 -11 13 -9 62 5 146 9 54 6 91 -8 91 -4 0 -13 14 -20 30 -8
18 -20 30 -31 30 -13 0 -19 7 -19 21 0 30 -18 59 -38 59 -10 0 -34 13 -53 30
-28 22 -59 34 -134 50 -54 11 -100 20 -102 20 -2 0 -11 17 -20 37 -20 50 -48
68 -105 69 -26 0 -55 7 -64 15 -9 7 -29 12 -44 11 -15 -2 -34 3 -42 12 -18 17
-91 50 -83 36 12 -19 -13 -17 -75 4 -36 13 -100 31 -143 41 -68 16 -84 25
-134 71 -31 29 -55 56 -51 59 3 3 41 -10 84 -29 l79 -34 85 14 c47 7 86 14 88
14 2 0 0 6 -4 13 -5 7 0 6 11 -3 14 -11 19 -12 22 -2 3 6 12 12 21 12 15 0 15
-2 2 -10 -10 -7 9 -10 65 -11 44 -1 83 -1 87 0 37 5 170 5 174 0 2 -4 -2 -9
-11 -11 -9 -2 -12 -8 -6 -16 11 -17 79 -33 87 -20 3 5 12 7 18 5 7 -3 18 3 24
14 11 17 82 45 110 42 6 0 12 10 12 23 0 13 5 24 10 24 6 0 10 6 10 13 0 6 11
13 25 13 14 1 25 -2 25 -8 0 -5 5 -6 10 -3 6 3 10 13 10 21 0 8 -4 12 -10 9
-5 -3 -10 -1 -10 4 0 6 3 11 8 11 4 0 13 12 19 27 10 21 10 29 0 36 -8 6 -6 7
6 3 10 -3 20 -6 22 -6 2 0 -7 -32 -21 -72 -13 -39 -24 -82 -24 -94 0 -21 2
-22 30 -13 25 9 30 16 30 44 0 31 20 92 36 107 10 11 34 -11 34 -32 0 -17 -40
-61 -40 -44 0 5 -5 1 -11 -9 -12 -20 -3 -41 13 -31 8 5 9 1 5 -11 -7 -16 -6
-17 17 -1 14 9 32 16 41 16 18 0 20 -28 2 -49 -11 -14 -10 -20 10 -40 l23 -24
0 31 c0 38 9 64 21 56 5 -3 4 -14 -2 -26 -8 -15 -8 -19 0 -14 6 4 11 0 11 -8
0 -20 10 -20 38 0 12 8 27 14 33 12 6 -2 -5 -12 -25 -23 -24 -13 -36 -27 -36
-40 0 -20 4 -21 63 -17 34 2 63 5 65 7 1 1 -8 34 -21 73 -13 40 -18 67 -11 61
8 -7 17 -5 29 7 12 13 15 26 10 58 -10 58 -31 105 -51 113 -13 5 -5 10 27 18
34 9 50 8 71 -2 21 -10 27 -10 31 0 4 9 6 9 6 0 1 -7 6 -13 12 -13 6 0 8 7 5
16 -11 28 23 -5 41 -39 14 -29 14 -30 -5 -25 -15 4 -20 1 -19 -12 1 -19 17
-22 28 -7 6 9 79 -113 79 -132 0 -5 -8 -15 -17 -21 -16 -9 -15 -10 5 -5 17 5
22 2 22 -12 0 -20 23 -89 32 -99 14 -13 -27 131 -57 200 -13 29 22 7 46 -30
33 -51 21 -14 -33 93 -34 68 -54 99 -60 91 -5 -9 -8 -9 -8 -1 0 6 -12 25 -26
42 -20 25 -34 31 -67 33 -37 1 -38 2 -9 5 17 2 32 9 32 14 0 17 -207 0 -325
-26 -60 -14 -115 -26 -122 -27 -7 -1 -10 -5 -8 -9 7 -11 -17 -26 -50 -32 -16
-3 -47 -10 -69 -15 -29 -8 -48 -7 -80 4 -38 14 -336 53 -416 55 -27 0 -31 2
-15 8 17 7 16 9 -10 14 -19 3 -33 1 -37 -8 -6 -10 -47 -13 -167 -13 -162 -1
-352 -17 -381 -32 -8 -4 -24 -18 -34 -29 -17 -19 -17 -21 -3 -21 10 0 17 -4
17 -10 0 -5 5 -10 10 -10 15 0 163 -101 157 -106 -3 -3 -45 19 -93 50 -91 56
-114 59 -114 15 0 -14 -6 -18 -22 -15 -13 3 -27 5 -33 5 -5 1 6 14 25 31 19
16 30 29 24 30 -6 0 -19 -9 -29 -20 -25 -28 -31 -25 -29 15 2 36 2 36 -100 86
-55 27 -92 43 -82 34 11 -8 25 -15 30 -15 6 0 4 -5 -4 -10 -10 -7 -11 -10 -2
-10 9 0 10 -5 1 -22 -26 -50 -29 -59 -29 -85 0 -24 -2 -26 -15 -12 -9 8 -19
35 -24 60 -7 33 -9 7 -10 -111 l-1 -154 42 39 c23 22 8 2 -34 -45 -74 -85
-142 -189 -154 -234 -4 -17 0 -28 15 -38 14 -10 23 -31 27 -58 6 -39 4 -42
-12 -36 -52 21 -64 12 -64 -51 0 -28 -4 -43 -12 -43 -24 0 -73 37 -168 127
l-95 90 2 54 c1 30 -3 93 -11 141 -8 56 -9 93 -3 104 10 17 5 88 -12 199 -6
33 -6 62 -2 65 11 7 41 66 41 82 0 6 16 47 36 89 l36 77 28 -16 c16 -9 28 -20
27 -23 -1 -4 1 -8 5 -8 5 -1 24 -10 44 -22 26 -14 40 -17 47 -10 8 8 7 11 -1
11 -19 0 -62 42 -62 60 0 9 -12 23 -27 31 -16 7 -60 32 -98 55 -39 23 -93 52
-120 65 -28 13 -96 50 -153 82 -144 82 -187 98 -244 90z m216 -118 c22 -12 32
-12 42 -4 15 12 18 2 6 -18 -6 -9 -20 -6 -57 12 -26 14 -42 25 -34 25 8 0 27
-7 43 -15z m2759 -412 c-7 -2 -19 -2 -25 0 -7 3 -2 5 12 5 14 0 19 -2 13 -5z
m-293 -33 c-8 -5 -22 -9 -30 -9 -10 0 -8 3 5 9 27 12 43 12 25 0z m-70 -25 c0
-2 -10 -9 -22 -15 -22 -11 -22 -10 -4 4 21 17 26 19 26 11z m-1500 -35 c0 -32
-9 -37 -28 -18 -7 7 -8 17 -1 30 15 27 29 22 29 -12z m1395 10 c3 -5 1 -10 -4
-10 -6 0 -11 5 -11 10 0 6 2 10 4 10 3 0 8 -4 11 -10z m553 -15 c-3 -3 -9 2
-12 12 -6 14 -5 15 5 6 7 -7 10 -15 7 -18z m-1915 -35 c3 -10 -1 -24 -7 -29
-10 -8 -11 -3 -8 19 5 35 8 37 15 10z m1107 -25 c0 -8 -4 -15 -9 -15 -5 0 -11
7 -15 15 -3 9 0 15 9 15 8 0 15 -7 15 -15z m554 -27 c23 -44 19 -60 -4 -18
-11 19 -19 38 -20 43 0 15 9 6 24 -25z m-95 -25 c0 -11 -3 -13 -6 -5 -2 6 -9
10 -14 6 -5 -3 -9 0 -9 5 0 6 7 11 15 11 8 0 15 -8 14 -17z m108 -70 c4 -11
-45 -22 -65 -15 -21 7 -13 21 16 25 35 5 45 3 49 -10z m-2501 -48 c-11 -8 -25
-15 -30 -15 -6 0 -2 7 8 15 11 8 25 15 30 15 6 0 2 -7 -8 -15z m919 -252 c28
-9 45 -18 38 -20 -15 -5 -163 49 -163 59 0 5 17 1 38 -8 20 -9 60 -23 87 -31z
m-95 -24 c0 -8 5 -7 15 1 24 20 30 3 12 -35 -18 -38 -33 -43 -62 -21 -18 13
-18 15 -2 40 18 27 37 35 37 15z m-50 -13 c0 -19 -16 -36 -34 -35 -16 1 -17 2
-4 6 10 2 15 10 11 19 -3 8 1 14 11 14 9 0 16 -2 16 -4z m-475 -139 c22 -21
57 -47 78 -58 27 -14 37 -25 33 -37 -31 -109 -22 -98 -96 -116 -88 -21 -90
-21 -91 12 l-2 27 -4 -28 c-5 -29 -7 -31 -57 -42 l-28 -6 7 63 c6 53 12 158
14 287 l1 34 53 -49 c28 -27 70 -66 92 -87z m314 104 c2 0 -3 -9 -12 -19 -9
-10 -23 -34 -32 -55 -16 -39 -35 -49 -35 -19 0 10 -6 24 -12 32 -11 12 -10 12
3 2 13 -10 18 -6 32 23 12 25 13 35 4 38 -10 4 38 2 52 -2z m481 -22 c9 -16 7
-19 -10 -19 -12 0 -20 7 -20 16 0 14 -3 14 -15 4 -8 -7 -15 -9 -15 -5 0 11 34
34 42 29 4 -3 13 -14 18 -25z m358 23 c8 -5 10 -16 6 -27 -5 -13 -4 -16 4 -11
7 4 12 14 12 23 0 12 7 14 38 9 20 -3 47 -6 60 -6 32 0 27 -20 -5 -21 -24 -2
-25 -2 -5 -6 24 -5 26 -11 13 -32 -7 -10 -22 -12 -67 -6 -33 5 -72 7 -87 6
-51 -5 -107 10 -107 27 0 31 31 52 79 52 25 0 52 -4 59 -8z m-544 -10 c2 -4
-4 -8 -14 -8 -10 0 -16 4 -14 8 3 4 9 8 14 8 5 0 11 -4 14 -8z m63 -14 c-3 -8
-6 -5 -6 6 -1 11 2 17 5 13 3 -3 4 -12 1 -19z m740 -11 c3 -4 -5 -7 -19 -7
-37 0 -88 11 -88 19 0 9 97 -3 107 -12z m-557 3 c12 -8 11 -10 -7 -10 -13 0
-23 5 -23 10 0 13 11 13 30 0z m630 -11 c11 -7 7 -9 -18 -5 -19 2 -36 7 -40
10 -10 10 42 6 58 -5z m255 -16 c-5 24 -3 28 12 24 10 -3 44 -8 76 -12 l57 -6
0 -89 c0 -86 -15 -134 -22 -68 l-3 33 -15 -29 c-8 -16 -21 -32 -29 -34 -8 -3
-11 -1 -8 4 3 5 -42 9 -101 8 -59 -1 -128 1 -153 3 l-46 5 16 56 c17 56 18 57
56 60 22 2 43 9 47 15 6 9 10 9 16 0 4 -6 16 -13 27 -15 16 -2 20 3 20 25 1
42 27 53 43 19 l13 -27 -6 28z m-802 10 c-7 -2 -19 -2 -25 0 -7 3 -2 5 12 5
14 0 19 -2 13 -5z m461 -14 c13 -12 -16 -21 -55 -17 -22 2 -35 9 -37 20 -3 14
4 15 40 11 24 -3 47 -9 52 -14z m-829 1 c3 -5 1 -10 -4 -10 -6 0 -11 5 -11 10
0 6 2 10 4 10 3 0 8 -4 11 -10z m890 -16 c-8 -9 -22 -13 -30 -10 -26 10 -16
26 16 26 28 0 29 -1 14 -16z m-236 -74 l4 -35 6 30 c11 53 56 31 119 -56 11
-16 10 -19 -14 -25 -36 -9 -104 12 -105 34 0 9 -3 12 -5 6 -6 -15 -114 17
-114 34 0 7 6 21 13 33 9 15 21 19 52 17 38 -3 40 -5 44 -38z m234 33 c3 -5 1
-17 -3 -28 -4 -11 -4 -32 1 -48 4 -16 4 -25 -1 -22 -9 6 -30 70 -30 93 0 13
26 17 33 5z m-986 -50 c-2 -43 0 -48 18 -45 10 2 25 11 32 20 11 15 12 15 8
-5 -3 -19 3 -23 38 -31 l42 -10 -49 -1 c-59 -1 -116 17 -116 38 0 15 22 81 27
81 2 0 2 -21 0 -47z m1478 -40 c-4 -32 -9 -71 -10 -87 -1 -17 -8 -32 -16 -34
-8 -2 -10 0 -4 5 6 4 10 17 10 28 1 37 18 145 23 145 2 0 1 -26 -3 -57z m-767
-15 c19 -6 37 -20 42 -32 7 -17 9 -17 9 -3 1 20 1 20 38 6 15 -6 47 -14 71
-18 40 -8 42 -7 37 13 -4 14 7 7 34 -24 45 -50 49 -60 24 -60 -35 0 -357 30
-360 34 -2 2 3 16 12 32 8 16 15 39 15 51 0 23 7 23 78 1z m722 -88 c0 -5 -2
-10 -4 -10 -3 0 -8 5 -11 10 -3 6 -1 10 4 10 6 0 11 -4 11 -10z m60 -24 c0 -2
-7 -7 -16 -10 -8 -3 -12 -2 -9 4 6 10 25 14 25 6z m-54 -31 c-11 -43 -46 -129
-60 -147 -16 -22 -114 -48 -178 -48 -26 0 -48 2 -48 4 0 2 11 36 24 75 13 38
21 72 18 75 -3 4 0 6 6 6 6 0 9 7 6 15 -3 8 0 17 8 20 20 8 134 22 187 24 41
1 43 0 37 -24z m-1106 -20 c0 -8 -2 -15 -4 -15 -2 0 -6 7 -10 15 -3 8 -1 15 4
15 6 0 10 -7 10 -15z m-316 -50 c19 -15 19 -15 -2 -15 -12 0 -22 4 -22 10 0 5
-8 7 -17 4 -15 -5 -16 -4 -3 5 19 14 21 13 44 -4z m1751 -15 c3 -5 1 -10 -4
-10 -6 0 -11 5 -11 10 0 6 2 10 4 10 3 0 8 -4 11 -10z m-2958 -32 c-3 -7 -5
-2 -5 12 0 14 2 19 5 13 2 -7 2 -19 0 -25z m2998 -48 c3 -5 -4 -6 -15 -3 -11
3 -22 9 -25 13 -3 5 4 6 15 3 11 -3 22 -9 25 -13z m-845 -19 c0 -5 -21 -6 -47
-4 -71 7 -75 11 -10 12 31 1 57 -3 57 -8z m-1030 -75 c0 -20 -11 -25 -43 -19
-25 5 -26 6 -10 19 24 18 53 18 53 0z m97 -6 c29 -8 50 -17 48 -20 -3 -4 7 -5
22 -2 17 3 24 1 19 -6 -3 -6 -2 -13 4 -17 5 -3 10 -1 10 4 0 6 10 11 23 10 19
0 20 -1 3 -8 -15 -6 -11 -9 19 -18 20 -7 44 -9 53 -6 11 5 13 3 7 -8 -8 -12
-6 -12 9 0 15 13 19 13 26 1 5 -8 25 -14 46 -15 22 0 39 -6 42 -14 3 -9 -2
-11 -14 -8 -11 3 -48 11 -84 17 -54 9 -190 34 -297 56 -14 3 -23 12 -23 23 0
21 10 33 24 28 6 -2 34 -10 63 -17z m678 -105 c146 -15 162 -19 180 -41 25
-30 45 -31 45 -3 0 15 4 19 16 15 9 -3 20 -6 25 -6 5 0 9 -7 9 -16 0 -11 -6
-15 -20 -11 -12 3 -18 1 -14 -5 4 -7 -10 -8 -42 -5 -27 4 -80 9 -119 12 -84 7
-299 35 -303 40 -9 8 34 44 48 41 8 -3 87 -12 175 -21z m-308 -1 c-3 -3 -12
-4 -19 -1 -8 3 -5 6 6 6 11 1 17 -2 13 -5z m1096 -8 c9 -7 17 -18 17 -23 0
-20 -135 -45 -260 -50 l-125 -5 -2 28 c-2 28 -1 28 9 7 14 -30 52 -32 43 -3
-5 15 -2 20 12 20 11 0 24 -5 31 -12 9 -9 12 -9 12 3 0 12 25 19 103 31 130
20 138 20 160 4z m-1050 -3 c-7 -2 -19 -2 -25 0 -7 3 -2 5 12 5 14 0 19 -2 13
-5z m477 -29 c0 -14 -3 -14 -15 -4 -8 7 -15 14 -15 16 0 2 7 4 15 4 8 0 15 -7
15 -16z m150 -4 c0 -5 -5 -10 -11 -10 -5 0 -7 5 -4 10 3 6 8 10 11 10 2 0 4
-4 4 -10z m-1010 -40 c12 -8 11 -10 -7 -10 -13 0 -23 5 -23 10 0 13 11 13 30
0z m1037 4 c-3 -3 -12 -4 -19 -1 -8 3 -5 6 6 6 11 1 17 -2 13 -5z m-967 -384
c0 -5 -2 -10 -4 -10 -3 0 -8 5 -11 10 -3 6 -1 10 4 10 6 0 11 -4 11 -10z"/>
<path d="M2248 1243 c6 -2 18 -2 25 0 6 3 1 5 -13 5 -14 0 -19 -2 -12 -5z"/>
<path d="M3944 2385 c-10 -8 -14 -14 -9 -14 6 0 19 6 29 14 11 8 15 15 10 15
-6 0 -19 -7 -30 -15z"/>
<path d="M836 2381 c-4 -7 -5 -15 -2 -18 9 -9 19 4 14 18 -4 11 -6 11 -12 0z"/>
<path d="M958 2364 c22 -15 42 -12 42 7 0 5 -15 9 -32 9 -32 0 -32 0 -10 -16z"/>
<path d="M1017 2363 c-4 -3 -7 -11 -7 -17 0 -6 5 -5 12 2 6 6 9 14 7 17 -3 3
-9 2 -12 -2z"/>
<path d="M3920 2350 c0 -6 7 -10 15 -10 8 0 15 2 15 4 0 2 -7 6 -15 10 -8 3
-15 1 -15 -4z"/>
<path d="M2771 2328 c-6 -16 -4 -28 6 -40 11 -12 14 -35 11 -87 -2 -51 0 -71
9 -71 14 0 7 152 -9 183 -5 9 -6 22 -3 27 3 6 4 10 0 10 -3 0 -10 -10 -14 -22z"/>
<path d="M2980 2319 c-13 -23 -13 -66 0 -74 6 -3 10 1 10 9 0 8 4 17 9 21 6 3
6 -7 0 -27 -10 -37 -12 -74 -3 -65 4 3 13 0 21 -8 16 -17 48 -21 38 -5 -3 6 1
7 9 4 13 -5 16 3 16 49 0 56 -17 86 -41 71 -9 -5 -11 -1 -7 13 8 29 -38 39
-52 12z m73 -69 c6 -25 -2 -60 -15 -60 -5 0 -8 18 -6 40 2 43 12 53 21 20z"/>
<path d="M977 2323 c-12 -11 -8 -23 9 -23 8 0 13 4 10 9 -4 5 0 12 6 14 9 4 8
6 -3 6 -9 1 -19 -2 -22 -6z"/>
<path d="M2816 2301 c-3 -5 1 -14 9 -21 12 -10 15 -10 15 0 0 9 4 9 17 -1 15
-12 16 -12 10 4 -4 10 -7 21 -7 23 0 8 -39 4 -44 -5z"/>
<path d="M955 2270 c3 -5 13 -10 21 -10 8 0 14 5 14 10 0 6 -9 10 -21 10 -11
0 -17 -4 -14 -10z"/>
<path d="M3345 2223 c11 -95 9 -142 -9 -162 -13 -14 -14 -24 -7 -43 10 -27 29
-38 65 -38 20 0 24 7 29 45 8 53 2 71 -24 78 -17 5 -19 15 -19 91 0 81 -1 86
-21 86 -20 0 -21 -4 -14 -57z"/>
<path d="M2851 2194 c0 -11 3 -14 6 -6 3 7 2 16 -1 19 -3 4 -6 -2 -5 -13z"/>
<path d="M1093 2135 c-3 -9 -3 -19 1 -22 3 -4 6 1 6 10 0 8 6 18 13 20 9 4 9
6 -1 6 -7 1 -15 -6 -19 -14z"/>
<path d="M1139 2133 c-13 -16 -12 -17 4 -4 9 7 17 15 17 17 0 8 -8 3 -21 -13z"/>
<path d="M2860 2114 c0 -14 4 -23 9 -20 5 3 7 15 4 26 -7 28 -13 25 -13 -6z"/>
<path d="M3895 2083 c-5 -15 -7 -36 -6 -45 1 -10 -3 -26 -9 -38 -10 -18 -8
-20 20 -20 l31 0 -3 62 c-3 66 -21 87 -33 41z"/>
<path d="M1160 2070 c-7 -16 -19 -30 -27 -30 -10 0 -8 -6 8 -19 14 -11 27 -15
30 -10 3 6 18 11 34 13 46 5 51 31 9 55 -19 12 -37 21 -38 21 -2 0 -9 -13 -16
-30z"/>
<path d="M2778 2088 c-29 -10 -34 -23 -18 -48 9 -13 11 -13 20 0 9 13 10 13
11 0 1 -8 5 1 9 20 5 19 8 35 7 36 -1 1 -14 -3 -29 -8z"/>
<path d="M3067 2093 c-11 -10 -8 -73 3 -73 6 0 10 18 10 40 0 41 -2 45 -13 33z"/>
<path d="M2417 2075 c-4 -8 -2 -17 3 -20 6 -4 10 3 10 14 0 25 -6 27 -13 6z"/>
<path d="M3011 2074 c0 -11 3 -14 6 -6 3 7 2 16 -1 19 -3 4 -6 -2 -5 -13z"/>
<path d="M1687 2073 c-13 -12 -7 -23 13 -23 11 0 20 7 20 15 0 15 -21 21 -33
8z"/>
<path d="M1862 2045 c0 -16 2 -22 5 -12 2 9 2 23 0 30 -3 6 -5 -1 -5 -18z"/>
<path d="M4259 2066 c-2 -2 -28 -6 -58 -9 -29 -3 -59 -11 -66 -18 -8 -8 -32
-47 -55 -87 -36 -64 -41 -79 -35 -113 5 -29 3 -43 -10 -55 -9 -9 -15 -28 -15
-43 3 -44 0 -61 -9 -61 -6 0 -8 26 -5 60 2 36 0 60 -6 60 -9 0 -13 -38 -14
-117 0 -18 -5 -21 -26 -18 -17 4 -14 1 10 -9 43 -18 53 -19 45 -6 -8 13 28 0
37 -13 3 -6 4 -17 0 -25 -4 -12 -8 -9 -16 9 -10 23 -10 23 -14 -11 -2 -19 -8
-41 -14 -47 -7 -9 -7 -13 1 -13 6 0 11 -8 11 -17 0 -23 66 -68 74 -50 2 7 5 4
5 -5 1 -10 5 -18 10 -18 5 0 7 14 4 31 -3 21 -1 29 6 24 6 -3 15 5 21 20 9 23
13 25 52 19 24 -3 57 -10 74 -15 58 -18 119 11 119 56 0 13 8 22 24 25 13 3
29 14 35 25 6 11 15 23 20 26 5 4 9 25 9 48 0 28 4 41 13 41 11 0 14 19 14 83
0 45 -4 87 -8 93 -4 6 -21 15 -39 18 -23 5 -34 15 -42 37 -8 25 -15 29 -46 29
-22 0 -34 4 -30 10 3 6 42 10 86 10 64 0 79 3 79 15 0 12 -20 15 -118 15 -65
0 -121 -2 -123 -4z m-82 -42 c-3 -3 -12 -4 -19 -1 -8 3 -5 6 6 6 11 1 17 -2
13 -5z m53 1 c0 -16 -43 -87 -56 -92 -8 -3 -14 -13 -13 -22 3 -39 0 -42 -26
-24 -17 12 -24 28 -25 50 0 50 49 84 51 35 0 -9 7 0 16 21 10 24 22 37 34 37
10 0 19 -2 19 -5z m70 -35 c0 -33 -3 -40 -19 -40 -28 0 -31 10 -16 48 19 44
35 40 35 -8z m90 -50 c0 -5 -9 -10 -19 -10 -11 0 -23 5 -26 10 -4 6 5 10 19
10 14 0 26 -4 26 -10z m-44 -74 c15 -16 9 -46 -10 -46 -23 0 -36 22 -25 42 12
22 16 22 35 4z m-201 -7 c11 -17 0 -20 -21 -4 -17 13 -17 14 -2 15 9 0 20 -5
23 -11z m-20 -19 c4 -6 -8 -10 -29 -10 -20 0 -36 5 -36 10 0 6 13 10 29 10 17
0 33 -4 36 -10z m126 -50 c5 0 9 -6 9 -14 0 -10 13 -16 38 -19 20 -2 6 -4 -33
-5 -59 -1 -67 1 -53 12 14 10 15 15 5 26 -10 10 -8 12 6 6 10 -3 23 -6 28 -6z
m-151 -14 c0 -2 3 -13 7 -23 6 -16 5 -16 -10 -5 -9 8 -21 11 -27 7 -5 -3 -10
1 -10 9 0 9 9 16 20 16 11 0 20 -2 20 -4z m55 -26 c-3 -5 -12 -10 -18 -10 -7
0 -6 4 3 10 19 12 23 12 15 0z m185 -35 c0 -8 -2 -15 -4 -15 -2 0 -6 7 -10 15
-3 8 -1 15 4 15 6 0 10 -7 10 -15z m7 -60 c0 -8 -4 -15 -9 -15 -4 0 -8 7 -8
15 0 8 4 15 8 15 5 0 9 -7 9 -15z m-210 -45 c1 -11 -2 -20 -5 -20 -4 0 -8 9
-9 20 -1 11 2 20 5 20 4 0 8 -9 9 -20z m120 4 c-3 -3 -12 -4 -19 -1 -8 3 -5 6
6 6 11 1 17 -2 13 -5z m66 -1 c-7 -2 -19 -2 -25 0 -7 3 -2 5 12 5 14 0 19 -2
13 -5z m42 -3 c3 -6 -1 -7 -9 -4 -18 7 -21 14 -7 14 6 0 13 -4 16 -10z m-95
-14 c0 -3 -4 -8 -10 -11 -5 -3 -10 -1 -10 4 0 6 5 11 10 11 6 0 10 -2 10 -4z
m83 -13 c-7 -2 -21 -2 -30 0 -10 3 -4 5 12 5 17 0 24 -2 18 -5z"/>
<path d="M1533 2035 c-15 -17 -17 -29 -3 -20 6 3 10 2 10 -4 0 -5 -4 -12 -10
-16 -5 -3 -6 -15 -1 -28 5 -12 5 -32 0 -45 -7 -17 -6 -23 4 -19 6 2 17 -3 24
-12 9 -13 11 2 8 69 -5 86 -10 100 -32 75z"/>
<path d="M3439 2021 c6 -10 9 -20 6 -22 -2 -2 7 -9 21 -16 l24 -11 -17 29
c-19 32 -50 51 -34 20z"/>
<path d="M1587 2018 c-7 -19 4 -79 13 -73 5 3 5 18 1 33 -4 15 -6 33 -4 40 3
6 3 12 0 12 -3 0 -7 -6 -10 -12z"/>
<path d="M1624 2005 c-2 -25 10 -33 20 -16 7 10 -3 41 -13 41 -3 0 -7 -11 -7
-25z"/>
<path d="M1892 2000 c0 -14 2 -19 5 -12 2 6 2 18 0 25 -3 6 -5 1 -5 -13z"/>
<path d="M2380 2001 c0 -11 -5 -23 -10 -26 -6 -4 -4 -12 5 -22 15 -14 18 -14
34 3 16 17 16 21 3 42 -18 27 -32 29 -32 3z"/>
<path d="M1367 1959 c7 -7 15 -10 18 -7 3 3 -2 9 -12 12 -14 6 -15 5 -6 -5z"/>
<path d="M1151 1944 c0 -11 3 -14 6 -6 3 7 2 16 -1 19 -3 4 -6 -2 -5 -13z"/>
<path d="M2168 1933 c7 -3 16 -2 19 1 4 3 -2 6 -13 5 -11 0 -14 -3 -6 -6z"/>
<path d="M3450 1920 c12 -23 13 -23 26 -5 8 10 14 13 14 7 0 -8 9 -10 26 -6
20 5 25 4 19 -6 -5 -9 -2 -10 15 -5 15 5 20 4 16 -4 -4 -6 0 -11 8 -11 9 0 18
0 21 0 20 -3 181 -163 201 -201 25 -49 29 -107 9 -129 -17 -19 -17 -20 1 -21
14 -1 13 -3 -6 -8 -23 -7 -21 -8 15 -14 28 -5 44 -2 55 8 9 8 34 16 56 16 23
1 30 4 17 6 -26 5 -37 36 -31 88 3 23 0 35 -8 35 -16 0 -28 -19 -28 -45 -2
-41 -22 -27 -54 37 -31 63 -80 121 -171 201 -58 51 -94 68 -158 74 l-55 6 12
-23z"/>
<path d="M1582 1900 c0 -19 2 -27 5 -17 2 9 2 25 0 35 -3 9 -5 1 -5 -18z"/>
<path d="M1191 1862 c-6 -11 -11 -23 -11 -26 0 -10 59 -6 65 4 3 6 1 10 -6 10
-6 0 -17 8 -24 17 -11 15 -13 15 -24 -5z"/>
<path d="M4000 1849 c0 -5 5 -7 10 -4 6 3 10 8 10 11 0 2 -4 4 -10 4 -5 0 -10
-5 -10 -11z"/>
<path d="M3790 1791 c0 -6 5 -13 12 -17 7 -4 8 -3 4 4 -4 7 -3 12 3 12 5 0 13
-4 16 -10 3 -5 11 -10 18 -10 15 0 -25 29 -40 30 -7 0 -13 -4 -13 -9z"/>
<path d="M3770 1783 c0 -6 8 -17 18 -24 16 -13 16 -13 2 6 -8 11 -16 22 -17
24 -2 2 -3 0 -3 -6z"/>
<path d="M3080 1640 c0 -5 5 -10 10 -10 6 0 10 5 10 10 0 6 -4 10 -10 10 -5 0
-10 -4 -10 -10z"/>
<path d="M3317 1623 c-15 -4 -17 -11 -12 -31 10 -42 39 -97 50 -95 6 1 15 -2
20 -5 6 -4 0 3 -13 14 -15 13 -21 27 -17 34 5 8 18 2 41 -21 19 -18 37 -30 41
-26 15 16 -64 139 -87 136 -3 -1 -13 -3 -23 -6z"/>
<path d="M2550 1550 c14 -4 39 -8 55 -9 23 0 26 2 15 9 -8 5 -33 9 -55 9 -35
-1 -37 -2 -15 -9z"/>
<path d="M3630 1545 c0 -8 4 -15 10 -15 5 0 7 7 4 15 -4 8 -8 15 -10 15 -2 0
-4 -7 -4 -15z"/>
<path d="M2683 1525 c0 -8 9 -15 19 -15 10 0 18 7 18 15 0 8 -8 15 -18 15 -10
0 -19 -7 -19 -15z"/>
<path d="M2520 1525 c0 -2 21 -16 48 -29 26 -14 43 -25 38 -26 -12 0 14 -30
26 -30 6 0 6 6 -1 14 -6 7 -9 20 -6 29 5 11 -6 19 -41 31 -50 17 -64 19 -64
11z"/>
<path d="M2450 1480 c8 -5 22 -10 30 -10 13 0 13 1 0 10 -8 5 -22 10 -30 10
-13 0 -13 -1 0 -10z"/>
<path d="M288 953 c7 -3 16 -2 19 1 4 3 -2 6 -13 5 -11 0 -14 -3 -6 -6z"/>
<path d="M230 939 c0 -5 5 -7 10 -4 6 3 10 8 10 11 0 2 -4 4 -10 4 -5 0 -10
-5 -10 -11z"/>
<path d="M148 923 c7 -3 16 -2 19 1 4 3 -2 6 -13 5 -11 0 -14 -3 -6 -6z"/>
<path d="M90 910 c0 -5 7 -7 15 -4 8 4 15 8 15 10 0 2 -7 4 -15 4 -8 0 -15 -4
-15 -10z"/>
<path d="M643 907 c0 -8 6 -14 14 -14 9 0 10 4 2 14 -6 7 -12 13 -14 13 -1 0
-2 -6 -2 -13z"/>
<path d="M610 895 c0 -8 2 -15 4 -15 2 0 6 7 10 15 3 8 1 15 -4 15 -6 0 -10
-7 -10 -15z"/>
<path d="M8 893 c7 -3 16 -2 19 1 4 3 -2 6 -13 5 -11 0 -14 -3 -6 -6z"/>
<path d="M93 840 c0 -30 2 -43 4 -27 2 15 2 39 0 55 -2 15 -4 2 -4 -28z"/>
<path d="M1085 710 c-3 -5 -1 -10 4 -10 6 0 11 5 11 10 0 6 -2 10 -4 10 -3 0
-8 -4 -11 -10z"/>
<path d="M3366 645 c8 -37 14 -45 14 -19 0 10 -5 26 -10 34 -8 11 -9 7 -4 -15z"/>
<path d="M3291 404 c0 -11 3 -14 6 -6 3 7 2 16 -1 19 -3 4 -6 -2 -5 -13z"/>
<path d="M3247 269 c-10 -37 -8 -49 8 -49 16 0 18 23 6 54 -7 18 -8 18 -14 -5z"/>
<path d="M801 71 c-7 -15 -24 -34 -38 -40 -14 -6 -23 -14 -21 -17 9 -8 116
-10 111 -1 -2 4 0 7 6 7 5 0 13 -5 17 -11 9 -15 24 8 24 37 0 23 -17 34 -51
34 -10 0 -19 5 -19 10 0 20 -18 9 -29 -19z"/>
</g>
</svg>
