<?xml version="1.0" standalone="no"?>
<!DOCTYPE svg PUBLIC "-//W3C//DTD SVG 20010904//EN"
 "http://www.w3.org/TR/2001/REC-SVG-20010904/DTD/svg10.dtd">
<svg version="1.0" xmlns="http://www.w3.org/2000/svg"
 width="500.000000pt" height="500.000000pt" viewBox="0 0 500.000000 500.000000"
 preserveAspectRatio="xMidYMid meet">

<g transform="translate(0.000000,500.000000) scale(0.100000,-0.100000)"
fill="#000000" stroke="none">
<path d="M400 4994 c0 -4 9 -22 21 -41 22 -35 46 -38 78 -7 24 22 -12 54 -61
54 -21 0 -38 -3 -38 -6z"/>
<path d="M1560 4757 c0 -15 6 -42 14 -60 14 -34 52 -74 62 -65 11 12 -18 90
-46 121 l-29 32 -1 -28z"/>
<path d="M3704 4635 c-7 -18 2 -45 15 -45 14 0 33 38 26 50 -9 15 -35 12 -41
-5z"/>
<path d="M4596 4351 c-32 -35 -58 -131 -37 -131 21 0 71 99 71 143 0 13 -17 7
-34 -12z"/>
<path d="M756 4281 c-3 -5 3 -20 13 -32 15 -18 22 -21 31 -13 17 17 3 54 -20
54 -10 0 -21 -4 -24 -9z"/>
<path d="M3525 4119 c-4 -12 -2 -26 3 -31 17 -17 42 -1 42 27 0 32 -35 35 -45
4z"/>
<path d="M1755 4019 c-85 -11 -201 -40 -276 -68 -77 -29 -218 -124 -313 -211
l-79 -73 -66 7 c-36 3 -125 9 -197 12 -130 7 -132 7 -144 -16 -7 -12 -9 -36
-6 -54 5 -24 -1 -48 -23 -92 -32 -65 -53 -143 -50 -189 1 -16 -6 -61 -16 -100
-33 -136 -18 -391 30 -525 19 -52 61 -100 88 -100 11 0 90 -22 176 -50 86 -27
261 -81 389 -119 192 -58 237 -75 253 -96 12 -14 27 -32 35 -40 14 -13 166
-15 1234 -15 l1219 0 83 31 c46 17 121 44 167 60 46 15 94 36 108 45 23 15 25
20 19 67 -3 29 -8 66 -12 83 -4 23 4 55 35 127 23 53 41 107 41 121 0 44 -22
129 -46 181 -31 68 -129 211 -194 288 -144 166 -250 217 -455 217 l-94 0 5 30
c15 72 -27 110 -120 110 -36 0 -48 -5 -65 -26 -23 -29 -27 -64 -11 -95 22 -39
-11 -18 -77 52 -155 163 -339 294 -486 347 -94 34 -194 56 -357 78 -136 18
-688 28 -795 13z m695 -38 c45 -5 -20 -9 -205 -13 -379 -8 -495 -32 -540 -109
-17 -29 -20 -56 -23 -189 -3 -128 -6 -157 -20 -167 -9 -7 -19 -13 -24 -13 -4
0 -8 89 -8 198 0 237 0 237 -83 230 -32 -3 -57 -3 -57 -2 0 16 238 66 370 78
60 5 508 -4 590 -13z m138 -18 c-10 -2 -28 -2 -40 0 -13 2 -5 4 17 4 22 1 32
-1 23 -4z m292 -149 c36 -8 96 -31 135 -50 41 -21 71 -31 73 -25 2 6 8 9 13 5
5 -3 9 1 9 10 0 8 -6 17 -12 19 -9 4 -9 6 -1 6 17 1 107 -73 203 -167 l85 -83
-85 7 c-47 4 -179 10 -295 13 l-209 6 -69 101 c-56 82 -68 107 -63 127 11 46
98 59 216 31z m-1550 -26 c-11 -18 -31 -52 -43 -75 -13 -27 -28 -43 -39 -43
-10 0 -18 3 -18 6 0 15 63 110 83 126 34 27 41 21 17 -14z m-137 -96 c-3 -13
-18 -29 -34 -38 -43 -22 -62 -57 -55 -99 4 -20 2 -42 -5 -54 -12 -19 -14 -18
-53 7 -23 14 -68 41 -101 59 l-60 33 70 0 c100 0 133 12 190 70 27 27 50 48
52 47 1 -2 0 -13 -4 -25z m336 14 c18 -22 35 -117 27 -156 -9 -51 -17 -57 -58
-52 -28 3 -38 9 -42 28 -4 13 -11 24 -17 24 -5 0 -17 16 -25 35 -16 40 -10 60
34 108 28 29 63 35 81 13z m670 -32 c60 -16 143 -70 161 -104 9 -17 8 -20 -12
-20 -13 0 -86 -7 -163 -15 -104 -10 -151 -11 -185 -3 -25 6 -88 11 -142 12
-110 1 -112 5 -36 70 81 69 249 96 377 60z m-1254 -34 c50 -6 31 -7 -68 -3
-101 4 -141 2 -152 -7 -12 -10 -15 -10 -15 2 0 8 3 18 6 21 7 7 109 1 229 -13z
m410 -20 c7 -6 18 -24 24 -41 10 -29 10 -29 -27 -29 -47 0 -205 20 -211 26
-12 11 19 40 55 51 44 14 139 10 159 -7z m-541 -31 c15 -12 42 -51 60 -88 19
-36 50 -90 70 -120 l36 -54 -6 -116 c-6 -111 0 -160 31 -284 l7 -28 -86 43
c-60 29 -88 49 -91 63 -2 11 -11 74 -21 140 -19 137 -44 233 -68 269 -22 35
-58 34 -86 -1 l-21 -28 6 30 c17 78 93 195 128 195 8 0 26 -9 41 -21z m2797
11 c10 -6 19 -20 19 -30 0 -16 -7 -20 -34 -20 -59 0 -96 11 -96 30 0 9 3 20 7
23 10 11 82 8 104 -3z m-2011 -60 c0 -39 -3 -50 -16 -50 -10 0 -14 6 -11 14 3
8 9 31 13 50 9 50 14 45 14 -14z m-620 -26 l90 -47 -16 -26 c-9 -15 -24 -38
-34 -51 l-18 -23 -54 84 c-69 106 -70 109 -63 109 3 0 46 -21 95 -46z m428 11
c6 -3 12 -9 12 -15 0 -7 -6 -8 -19 0 -11 5 -32 10 -48 10 -27 -1 -27 -1 -7
-13 12 -7 45 -33 74 -59 38 -35 47 -48 33 -48 -10 0 -39 21 -63 46 -25 26 -67
57 -95 71 l-50 24 75 -6 c41 -4 81 -8 88 -10z m2187 8 c-11 -3 -24 -9 -29 -14
-15 -14 -26 -11 -26 6 0 11 10 15 38 14 21 -1 28 -3 17 -6z m-2330 -62 c50 -9
67 -18 105 -56 35 -35 53 -45 78 -45 l32 0 -24 -38 c-13 -21 -29 -56 -35 -78
-14 -50 -14 -319 0 -457 6 -59 9 -112 7 -117 -3 -11 -361 181 -390 209 -30 28
-52 197 -43 324 l7 107 64 99 65 99 37 -18 c20 -10 64 -23 97 -29z m1760 39
c132 -4 309 -16 393 -26 l154 -18 69 -74 c38 -41 102 -123 141 -181 l71 -106
-99 -6 c-55 -4 -224 -7 -377 -8 l-277 -1 -210 105 c-250 125 -453 213 -610
266 -68 22 -105 38 -90 40 53 4 390 15 490 17 58 1 213 -3 345 -8z m-997 -56
l97 -47 -70 -9 c-86 -10 -195 -42 -256 -75 l-46 -24 -51 32 c-63 39 -103 35
-150 -14 -43 -45 -67 -105 -91 -227 -11 -58 -22 -114 -25 -125 -2 -11 -4 51
-3 138 l2 159 77 73 c139 134 232 179 356 171 50 -3 82 -13 160 -52z m77 21
c111 -18 363 -114 683 -259 114 -52 223 -101 242 -109 l35 -15 -35 -1 c-19 0
-102 4 -184 9 l-149 9 -41 39 c-48 46 -73 60 -288 152 -88 38 -188 87 -222
109 -33 21 -79 49 -101 60 -44 24 -47 23 60 6z m-563 -14 c4 -3 -4 -18 -16
-32 l-22 -26 -33 38 -32 39 48 -6 c26 -4 51 -9 55 -13z m2365 -12 c18 -12 40
-18 49 -15 14 5 74 -18 74 -30 0 -2 -14 3 -31 11 -17 9 -33 14 -36 11 -3 -2
17 -16 45 -30 56 -28 61 -40 62 -136 0 -37 7 -76 15 -90 8 -14 14 -28 15 -32
0 -8 -61 -18 -161 -27 l-79 -7 -10 30 c-22 63 -107 183 -183 258 l-78 78 142
0 c126 0 145 -2 176 -21z m-2337 -34 c-24 -25 -48 -45 -53 -45 -4 0 8 20 29
45 20 25 44 45 52 45 11 0 1 -16 -28 -45z m-845 -62 c5 -15 4 -16 -6 -5 -18
17 -25 15 -50 -10 -20 -21 -18 -9 4 20 14 18 44 15 52 -5z m1333 -17 c145
-133 553 -408 647 -436 57 -17 119 -10 123 13 3 17 -32 76 -90 151 l-22 29 30
-6 c16 -4 182 -9 369 -13 431 -9 850 9 977 41 23 6 31 1 67 -47 84 -109 103
-128 122 -128 11 0 22 7 25 15 7 18 -19 97 -67 203 -21 45 -36 82 -34 82 7 0
34 -56 86 -175 52 -118 61 -125 29 -23 -15 51 -16 59 -3 43 23 -30 81 -155 88
-192 l7 -33 -44 0 c-24 0 -120 -11 -214 -24 -272 -40 -397 -46 -920 -46 -334
0 -510 -4 -540 -11 -64 -17 -135 -84 -179 -171 -19 -40 -35 -86 -35 -105 0
-70 48 -125 136 -154 l59 -19 -55 6 c-107 12 -125 26 -225 174 -57 85 -102
141 -121 153 -32 17 -292 82 -301 74 -2 -3 50 -24 116 -47 65 -23 133 -50 149
-61 33 -19 180 -229 161 -229 -12 0 -137 33 -323 86 -66 19 -121 32 -123 30
-7 -6 136 -62 270 -105 109 -36 262 -76 357 -95 14 -3 -42 -3 -125 0 -264 9
-527 38 -550 60 -11 11 -11 22 2 61 11 37 14 83 10 203 -7 227 -52 432 -127
580 l-30 60 27 17 c33 22 180 72 211 73 13 0 40 -15 60 -34z m-1362 -79 c-7
-26 -15 -45 -18 -41 -7 6 -4 17 14 67 16 41 18 28 4 -26z m1019 -41 c78 -81
125 -254 125 -466 0 -202 -38 -343 -111 -411 -64 -60 -150 -25 -204 82 -30 59
-65 184 -64 224 l2 30 4 -30 c15 -108 60 -219 109 -268 127 -127 261 121 240
445 -16 254 -100 427 -193 403 -48 -12 -100 -77 -128 -162 -16 -48 -23 -63
-20 -39 19 122 99 236 165 236 26 0 42 -9 75 -44z m704 8 c24 -30 26 -68 8
-102 l-13 -22 -54 38 c-62 43 -70 62 -41 91 30 30 75 27 100 -5z m-1777 -106
c-4 -125 -22 -191 -22 -85 0 50 19 207 25 207 1 0 0 -55 -3 -122z m3515 100
c23 -22 33 -91 14 -102 -16 -10 -81 81 -81 114 0 18 43 11 67 -12z m-1677 -17
c13 -26 13 -74 -2 -106 -13 -29 -35 -28 -29 1 2 10 4 43 5 72 1 55 9 65 26 33z
m-853 -16 c-15 -14 -36 -25 -45 -25 -13 1 -11 6 11 25 15 14 36 25 45 25 13
-1 11 -6 -11 -25z m1024 -77 c44 -45 149 -180 149 -191 0 -4 -15 -7 -33 -7
-32 0 -185 66 -175 75 3 3 29 1 58 -5 68 -13 70 -13 70 4 0 20 -121 147 -169
176 -22 14 -41 28 -41 33 0 16 102 -45 141 -85z m-996 52 c-10 -11 -23 -20
-29 -20 -6 1 0 10 13 20 30 26 39 26 16 0z m2589 -70 c20 -50 36 -100 36 -113
-1 -21 -2 -20 -25 8 -61 74 -78 104 -66 119 7 8 13 28 13 45 1 17 2 31 3 31 2
0 19 -41 39 -90z m-2705 -51 c-10 -55 -21 -137 -25 -180 -4 -44 -11 -82 -15
-85 -15 -9 -11 -94 5 -100 8 -3 17 -26 21 -51 11 -74 54 -178 92 -222 22 -26
29 -41 20 -41 -49 0 -116 114 -142 242 -19 96 -19 291 -1 378 13 59 50 160 59
160 2 0 -4 -45 -14 -101z m96 1 c12 -50 14 -77 7 -97 -9 -28 -9 -27 -25 23 -8
29 -19 78 -23 110 -6 53 -5 57 9 46 8 -7 23 -44 32 -82z m-968 3 c-3 -10 -5
-4 -5 12 0 17 2 24 5 18 2 -7 2 -21 0 -30z m45 -13 c-2 -16 -6 -30 -8 -30 -2
0 -4 14 -4 30 0 17 4 30 8 30 5 0 7 -13 4 -30z m25 8 c-3 -8 -6 -5 -6 6 -1 11
2 17 5 13 3 -3 4 -12 1 -19z m957 -38 c-8 -30 -14 -65 -14 -77 0 -13 -4 -23
-10 -23 -14 0 -13 14 11 92 24 82 34 88 13 8z m50 18 c-15 -88 -7 -166 22
-224 15 -30 25 -56 23 -58 -2 -3 -22 10 -44 28 l-39 33 -1 84 c0 85 19 179 37
179 6 0 7 -17 2 -42z m-129 -120 c4 -10 3 -18 -2 -18 -12 0 -31 63 -38 126 -5
45 -4 44 14 -21 11 -38 22 -78 26 -87z m-896 78 c-9 -8 -10 -7 -5 7 3 10 7 24
7 30 1 7 3 4 6 -7 3 -10 -1 -23 -8 -30z m748 -28 c-3 -7 -5 -2 -5 12 0 14 2
19 5 13 2 -7 2 -19 0 -25z m84 -116 c-8 -13 -10 -5 -11 34 0 28 3 67 8 85 6
29 7 24 10 -34 2 -37 -2 -75 -7 -85z m-805 38 l-14 -85 -1 77 c-1 79 6 115 20
101 4 -4 2 -46 -5 -93z m163 59 c31 -17 57 -33 59 -34 1 -1 -16 -41 -39 -89
-37 -77 -59 -101 -72 -78 -8 14 -19 232 -11 232 4 0 32 -14 63 -31z m-255 -92
c9 -40 26 -88 37 -107 l21 -35 -22 21 c-28 27 -76 194 -56 194 2 0 11 -33 20
-73z m803 -99 c-2 -35 -3 -9 -3 57 0 66 1 94 3 63 2 -32 2 -86 0 -120z m223
110 c0 -4 -8 0 -18 10 -11 9 -17 21 -14 26 5 9 32 -21 32 -36z m-1003 10 c-3
-8 -6 -5 -6 6 -1 11 2 17 5 13 3 -3 4 -12 1 -19z m914 -25 c-9 -15 -10 -12
-10 17 0 29 1 32 10 18 7 -12 7 -24 0 -35z m79 -38 c0 -13 -3 -31 -6 -39 -5
-14 -9 -14 -22 -4 -14 11 -15 10 -8 -7 5 -14 4 -17 -4 -9 -8 8 -6 19 5 40 8
16 15 36 14 44 0 8 -6 2 -14 -15 l-13 -30 -1 36 c-1 20 2 39 6 43 11 11 43
-33 43 -59z m2657 39 c-3 -3 -12 -4 -19 -1 -8 3 -5 6 6 6 11 1 17 -2 13 -5z
m-2999 -136 c61 -33 112 -64 112 -69 0 -13 8 -15 -151 52 -79 33 -155 61 -170
61 -14 1 -52 -11 -84 -26 -66 -30 -64 -30 -102 -15 -28 11 -27 12 55 50 57 26
85 45 89 59 5 20 8 19 72 -16 36 -20 117 -64 179 -96z m2935 125 c-7 -2 -19
-2 -25 0 -7 3 -2 5 12 5 14 0 19 -2 13 -5z m-60 -10 c-7 -2 -21 -2 -30 0 -10
3 -4 5 12 5 17 0 24 -2 18 -5z m-2613 -16 c0 -12 -60 -48 -78 -47 -9 1 60 60
70 60 4 0 8 -6 8 -13z m2553 6 c-7 -2 -21 -2 -30 0 -10 3 -4 5 12 5 17 0 24
-2 18 -5z m-54 -7 c-2 -2 -74 -12 -159 -22 -119 -13 -281 -18 -701 -23 l-546
-6 -36 -28 c-38 -29 -117 -171 -117 -211 0 -39 46 -91 114 -128 47 -26 8 -21
-51 7 -56 26 -93 71 -93 115 0 37 53 142 96 190 72 79 27 74 709 82 336 4 635
11 665 16 61 10 126 14 119 8z m-2363 -47 c19 -22 19 -22 -6 -14 -23 7 -24 7
-10 -11 14 -17 14 -18 -1 -6 -10 7 -15 21 -12 32 7 25 6 25 29 -1z m-1031 -65
c8 -4 22 -1 30 6 20 16 19 6 -1 -14 -25 -25 -42 -19 -64 24 -26 51 -26 65 0
22 11 -18 27 -35 35 -38z m889 51 c-16 -13 -16 -14 -1 -9 21 8 23 -12 1 -20
-9 -3 -28 -6 -42 -6 l-27 1 30 24 c17 14 36 25 44 25 11 0 9 -4 -5 -15z m2325
-1 c-27 -26 -85 -33 -344 -40 -211 -5 -253 -4 -269 8 -17 14 5 16 205 23 187
6 287 12 409 24 12 1 12 -2 -1 -15z m-2619 -77 c149 -60 155 -63 161 -94 4
-18 4 -33 0 -33 -3 0 -107 33 -229 73 l-224 74 54 21 c29 11 60 21 68 21 8 0
85 -28 170 -62z m413 -12 c-4 -27 -8 -87 -8 -133 0 -55 -4 -82 -11 -82 -7 0
-15 7 -18 16 -8 20 -8 188 0 236 6 33 8 36 26 25 17 -10 18 -18 11 -62z m-57
43 c-3 -13 -6 -68 -7 -123 -1 -87 -3 -93 -9 -50 -5 28 -9 83 -9 123 -1 60 2
72 15 72 12 0 15 -6 10 -22z m-521 -78 c149 -50 287 -95 308 -101 20 -5 37
-14 37 -20 0 -13 15 -17 -320 98 -245 85 -316 112 -300 113 3 0 127 -41 275
-90z m2786 -37 c27 -60 59 -126 70 -148 l20 -40 -5 37 -4 36 66 12 c37 6 93
18 124 26 57 14 58 14 98 -11 53 -33 60 -32 61 13 1 37 1 37 11 9 18 -50 -7
-65 -192 -115 -176 -47 -182 -47 -221 -15 -29 25 -42 28 -118 31 -47 2 -128
-1 -179 -6 -88 -9 -96 -12 -130 -45 -32 -30 -46 -36 -102 -41 -78 -8 -525 9
-633 24 -60 9 -83 17 -102 36 l-24 24 197 2 c284 3 276 4 402 -36 63 -19 119
-34 124 -33 5 2 -45 23 -112 47 -67 24 -122 47 -122 50 0 4 15 24 33 46 18 21
59 73 91 114 l58 75 217 5 c119 3 240 7 269 8 l53 2 50 -107z m-2317 25 c4
-40 9 -91 12 -113 l5 -40 -16 28 c-14 24 -55 165 -55 189 0 4 11 8 24 8 22 0
24 -5 30 -72z m106 -203 c-7 -9 -15 -13 -17 -11 -7 7 7 26 19 26 6 0 6 -6 -2
-15z"/>
<path d="M1067 3333 c-29 -57 -33 -73 -16 -73 6 0 9 7 6 14 -4 10 -1 13 9 9 9
-3 14 2 14 17 0 12 5 30 11 41 6 11 8 25 6 32 -2 7 -16 -11 -30 -40z"/>
<path d="M3100 3436 c0 -2 28 -20 63 -41 95 -59 198 -137 279 -212 62 -58 68
-62 38 -24 -48 62 -178 170 -268 223 -73 42 -112 62 -112 54z"/>
<path d="M1457 3273 c-10 -9 -8 -66 2 -82 8 -12 11 -9 16 12 4 15 4 34 1 44
-4 9 -1 20 6 25 10 6 9 8 -3 8 -9 0 -19 -3 -22 -7z"/>
<path d="M2047 3287 c134 -119 263 -212 398 -289 170 -96 165 -87 -25 40 -74
50 -193 134 -265 186 -133 98 -175 122 -108 63z"/>
<path d="M1931 2986 c7 -7 301 -113 439 -159 165 -55 216 -66 140 -31 -142 65
-611 220 -579 190z"/>
<path d="M3673 2977 c3 -9 0 -18 -9 -21 -8 -3 -17 1 -20 9 -4 8 -10 15 -15 15
-5 0 1 -18 13 -40 19 -34 28 -40 56 -40 l32 0 -20 39 c-20 40 -49 70 -37 38z
m26 -55 c-5 -2 -17 -1 -27 3 -15 6 -15 8 3 15 12 4 23 3 27 -4 4 -6 3 -13 -3
-14z"/>
<path d="M1025 3820 c-10 -16 14 -50 35 -50 32 0 23 40 -12 53 -10 3 -20 2
-23 -3z"/>
<path d="M0 3353 c0 -21 14 -42 53 -81 29 -29 56 -52 59 -52 4 0 -5 35 -20 78
-26 73 -29 77 -59 80 -30 3 -33 1 -33 -25z"/>
<path d="M300 2570 c0 -5 9 -10 20 -10 11 0 20 5 20 10 0 6 -9 10 -20 10 -11
0 -20 -4 -20 -10z"/>
<path d="M416 2241 c-9 -14 3 -39 21 -46 21 -8 34 14 22 37 -10 19 -34 24 -43
9z"/>
<path d="M1323 2090 c-46 -28 -66 -63 -61 -107 3 -21 8 -45 11 -53 5 -10 -2
-20 -21 -31 -31 -17 -72 -91 -72 -128 0 -100 124 -130 248 -60 30 17 55 29 56
27 1 -2 7 -15 14 -30 16 -39 56 -47 104 -20 21 11 38 19 38 18 0 -1 -9 -42
-19 -90 l-19 -88 36 7 c20 4 41 10 45 14 5 5 15 39 24 76 11 48 18 64 26 56 6
-6 25 -11 42 -11 76 0 136 82 138 189 2 81 -19 105 -85 99 -42 -4 -48 -3 -48
13 0 15 -8 19 -39 19 l-39 0 -16 -67 c-8 -38 -18 -85 -21 -105 -8 -44 -48 -91
-73 -86 -9 2 -22 19 -28 38 -11 32 -9 37 27 82 20 26 40 61 44 77 8 40 -10 73
-38 69 -27 -4 -36 -45 -13 -54 22 -8 20 -30 -5 -65 -25 -36 -34 -31 -43 21 -6
39 -7 40 -47 40 -41 0 -41 0 -35 -32 3 -18 9 -55 12 -82 5 -50 5 -52 -30 -74
-44 -30 -104 -39 -131 -19 -39 30 -12 131 45 165 l28 18 -24 23 c-44 42 -23
126 31 126 24 0 31 -5 33 -23 2 -13 -2 -30 -8 -37 -10 -12 -9 -16 5 -22 12 -4
24 1 37 16 25 31 23 57 -7 86 -30 31 -77 33 -122 5z m510 -192 c9 -31 -11
-119 -32 -148 -20 -27 -48 -37 -62 -23 -14 14 21 165 43 185 23 20 44 14 51
-14z"/>
<path d="M3090 2101 c-68 -21 -120 -63 -139 -113 -13 -35 0 -73 28 -81 19 -5
21 -1 21 34 0 22 7 53 15 69 14 27 51 60 67 60 5 0 8 -69 8 -154 0 -84 3 -174
6 -200 l7 -47 40 3 39 3 52 138 c59 160 63 158 65 -25 l1 -118 43 0 42 0 58
158 c32 86 69 185 83 220 l24 63 -22 -3 c-17 -2 -31 -31 -82 -178 l-61 -175
-3 178 -2 177 -38 0 -39 0 -61 -177 -61 -178 0 101 c-1 56 -4 135 -7 177 -7
75 -8 77 -33 76 -14 0 -37 -4 -51 -8z"/>
<path d="M4134 2062 c-7 -4 -24 -65 -39 -137 -23 -107 -33 -134 -54 -154 l-26
-25 -2 40 c-2 21 -5 75 -9 120 l-5 80 -41 -5 c-40 -6 -40 -7 -74 -90 -19 -47
-43 -94 -54 -106 -11 -12 -20 -29 -20 -37 0 -19 -38 -34 -51 -21 -6 6 -1 52
14 121 l24 112 -42 0 c-25 0 -45 -5 -48 -12 -4 -10 -6 -10 -6 0 -2 21 -85 15
-116 -10 -39 -30 -75 -113 -75 -171 0 -38 5 -53 26 -74 21 -21 32 -24 61 -20
20 4 46 16 58 27 22 21 22 21 28 1 8 -32 54 -38 99 -14 31 18 39 19 49 7 16
-20 74 -28 109 -15 18 6 50 25 72 43 l41 32 -7 -42 -6 -42 40 0 c33 0 40 4 45
23 3 12 14 60 24 106 20 87 39 118 65 108 20 -8 20 -28 1 -111 -10 -44 -12
-72 -6 -89 16 -41 66 -50 96 -17 17 19 17 20 -4 37 -20 17 -20 20 -6 78 21 87
19 121 -7 139 -12 9 -32 16 -43 16 -11 0 -31 -7 -43 -16 -26 -18 -27 -13 -8
69 l14 57 -31 0 c-18 0 -37 -4 -43 -8z m-438 -147 c6 -15 -10 -100 -28 -147
-13 -35 -47 -47 -65 -22 -14 19 -10 66 12 119 23 56 68 84 81 50z m230 -159
c-8 -31 -48 -45 -72 -25 -14 12 -13 14 6 21 15 5 21 15 19 30 -2 13 6 46 16
73 l20 50 9 -62 c5 -34 6 -73 2 -87z"/>
<path d="M2516 1980 c-37 -5 -39 -6 -72 -90 -40 -100 -102 -170 -151 -170 -34
0 -53 16 -53 45 0 17 9 25 38 33 54 16 94 61 95 107 1 44 -13 55 -70 55 -49 0
-94 -32 -122 -89 -74 -147 8 -248 143 -176 l48 25 18 -22 c29 -36 105 -32 162
9 l44 31 16 -28 c29 -51 137 -49 173 3 16 23 20 120 8 215 l-6 53 -39 -3 c-39
-3 -39 -3 -73 -88 -22 -54 -47 -96 -67 -115 l-33 -29 -7 118 c-4 65 -8 119
-10 120 -2 1 -20 -1 -42 -4z m-186 -76 c0 -26 -48 -84 -69 -84 -23 0 -7 53 27
93 22 25 42 21 42 -9z m156 -148 c-8 -31 -48 -45 -72 -25 -14 12 -13 14 6 21
15 5 21 15 19 30 -2 13 6 46 16 73 l20 50 9 -62 c5 -34 6 -73 2 -87z m230 0
c-8 -31 -48 -45 -72 -25 -14 12 -13 14 6 21 15 5 21 15 19 30 -2 13 6 46 16
73 l20 50 9 -62 c5 -34 6 -73 2 -87z"/>
<path d="M1944 1815 l-30 -145 42 0 42 0 23 111 c17 85 27 113 42 121 17 8 23
6 38 -13 15 -20 21 -22 36 -13 23 14 24 63 1 77 -12 8 -24 7 -45 -3 -15 -8
-31 -16 -36 -18 -4 -2 -4 3 -1 12 5 13 -2 16 -37 16 l-44 0 -31 -145z"/>
<path d="M622 1658 c6 -18 28 -21 28 -4 0 9 -7 16 -16 16 -9 0 -14 -5 -12 -12z"/>
<path d="M1339 1503 c-1 -5 -1 -11 0 -15 0 -4 -5 -37 -13 -73 -12 -56 -12 -65
1 -65 8 0 12 4 9 8 -3 5 1 35 9 68 8 32 14 65 15 72 0 13 -19 17 -21 5z"/>
<path d="M2236 1498 c-3 -7 -9 -42 -16 -76 -12 -66 -7 -93 9 -50 5 13 16 30
26 38 15 13 16 11 10 -23 -4 -21 -3 -37 2 -37 5 0 10 6 10 13 0 6 3 27 7 45 8
36 1 40 -26 15 -17 -15 -18 -15 -18 3 0 11 4 34 9 52 6 20 6 32 0 32 -5 0 -11
-6 -13 -12z"/>
<path d="M2569 1503 c-1 -5 -1 -11 0 -15 0 -4 -5 -37 -13 -73 -12 -56 -12 -65
1 -65 8 0 12 4 9 8 -3 5 1 35 9 68 8 32 14 65 15 72 0 13 -19 17 -21 5z"/>
<path d="M2866 1475 c-4 -20 -13 -35 -21 -35 -8 0 -21 -10 -29 -22 -18 -26
-21 -68 -5 -68 5 0 7 5 4 11 -9 13 14 69 27 69 7 0 8 -16 4 -40 -10 -65 10
-45 23 23 7 34 14 70 17 80 3 9 1 17 -4 17 -5 0 -13 -16 -16 -35z"/>
<path d="M3159 1508 c0 -2 -2 -14 -5 -28 -2 -14 -9 -47 -14 -74 -9 -43 -7 -68
3 -55 10 11 33 159 26 159 -5 0 -9 -1 -10 -2z"/>
<path d="M3216 1499 c-8 -28 -26 -121 -26 -135 0 -8 5 -14 10 -14 6 0 9 3 8 8
-1 4 4 38 11 75 7 37 11 71 7 74 -3 3 -7 0 -10 -8z"/>
<path d="M4166 1475 c-4 -20 -13 -35 -21 -35 -8 0 -21 -10 -29 -22 -18 -26
-21 -68 -5 -68 5 0 7 5 4 11 -9 13 14 69 27 69 7 0 8 -16 4 -40 -11 -68 10
-44 24 28 7 37 15 73 18 80 2 6 0 12 -6 12 -5 0 -13 -16 -16 -35z"/>
<path d="M1103 1441 c-1 -27 -7 -59 -13 -70 -10 -19 -8 -21 17 -21 17 0 23 3
16 8 -18 11 7 116 28 120 21 4 32 -24 19 -49 -7 -12 -7 -19 -1 -19 9 0 31 31
31 44 0 15 -36 36 -63 36 -31 0 -32 -1 -34 -49z"/>
<path d="M1401 1474 c0 -11 3 -14 6 -6 3 7 2 16 -1 19 -3 4 -6 -2 -5 -13z"/>
<path d="M2337 1476 c-4 -10 -1 -13 9 -9 15 6 19 23 5 23 -5 0 -11 -7 -14 -14z"/>
<path d="M4071 1474 c0 -11 3 -14 6 -6 3 7 2 16 -1 19 -3 4 -6 -2 -5 -13z"/>
<path d="M1834 1449 c-5 -8 -10 -23 -11 -34 -2 -11 -5 -30 -8 -42 -6 -25 18
-33 31 -11 5 7 3 8 -6 3 -9 -6 -10 0 -5 26 4 19 11 36 16 39 4 3 4 12 0 19 -7
11 -10 11 -17 0z"/>
<path d="M3002 1448 c-14 -19 -26 -98 -14 -98 5 0 12 15 15 33 3 17 7 42 10
55 7 25 4 27 -11 10z"/>
<path d="M3752 1447 c-14 -17 -27 -97 -16 -97 5 0 10 11 10 25 1 14 5 33 9 43
9 20 14 42 10 42 -1 0 -7 -6 -13 -13z"/>
<path d="M1219 1438 c-5 -30 -5 -88 1 -88 7 0 20 48 20 76 0 11 -19 21 -21 12z"/>
<path d="M1273 1423 c-3 -10 -13 -27 -22 -37 -9 -11 -10 -16 -3 -12 7 4 12 1
12 -9 0 -35 23 -7 26 33 4 43 -2 55 -13 25z"/>
<path d="M1385 1432 c-14 -10 -15 -82 -1 -82 6 0 12 20 14 45 3 48 3 49 -13
37z"/>
<path d="M1448 1434 c-12 -21 -19 -84 -8 -84 5 0 10 8 10 18 0 11 9 27 21 38
l21 19 -7 -38 c-5 -25 -4 -37 4 -37 6 0 11 8 11 18 0 11 9 27 21 38 l21 19 -7
-38 c-4 -22 -3 -37 3 -37 9 0 25 81 16 89 -2 2 -13 -4 -24 -14 -18 -16 -20
-16 -20 -2 0 21 -14 22 -31 1 -12 -14 -14 -14 -19 2 -4 10 -9 13 -12 8z"/>
<path d="M1640 1425 c7 -8 10 -25 6 -40 -8 -31 2 -33 13 -2 9 24 -3 57 -21 57
-7 0 -6 -5 2 -15z"/>
<path d="M1701 1426 c-10 -12 -9 -20 4 -40 16 -23 15 -25 -7 -29 l-23 -4 23
-2 c26 -1 40 25 23 42 -17 17 -14 37 6 30 11 -4 14 -3 9 5 -10 16 -21 15 -35
-2z"/>
<path d="M1886 1409 c-9 -46 -7 -61 6 -57 11 4 16 73 6 83 -3 3 -8 -9 -12 -26z"/>
<path d="M1932 1398 c-9 -45 -7 -58 7 -42 12 13 21 84 11 84 -5 0 -13 -19 -18
-42z"/>
<path d="M2049 1438 c0 -2 -1 -22 -3 -45 -3 -52 12 -56 48 -12 28 33 31 44 16
54 -5 3 -10 -3 -10 -13 0 -11 -9 -30 -20 -43 l-21 -24 6 43 c5 27 3 42 -4 42
-6 0 -11 -1 -12 -2z"/>
<path d="M2147 1422 c-10 -10 -17 -31 -17 -45 0 -23 4 -27 28 -26 25 0 26 1 5
9 -18 7 -20 14 -14 36 4 15 13 30 21 32 9 3 11 -1 7 -12 -4 -9 -2 -16 2 -16
11 0 22 26 14 34 -11 11 -30 6 -46 -12z"/>
<path d="M2326 1428 c-13 -42 -14 -78 -3 -78 7 0 13 18 15 45 2 43 -4 60 -12
33z"/>
<path d="M2394 1432 c-18 -12 -36 -52 -30 -68 3 -8 16 -13 28 -13 17 1 18 2 6
6 -10 2 -18 11 -18 19 0 24 20 55 31 49 5 -4 9 -1 9 4 0 13 -10 14 -26 3z"/>
<path d="M2449 1438 c-5 -30 -5 -88 1 -88 7 0 20 48 20 76 0 11 -19 21 -21 12z"/>
<path d="M2498 1413 c-15 -31 -12 -66 4 -61 10 4 23 88 14 88 -3 0 -11 -12
-18 -27z"/>
<path d="M2628 1423 c-24 -28 -28 -40 -22 -57 15 -39 79 2 72 46 -4 29 -29 34
-50 11z m30 -25 c-2 -22 -9 -34 -20 -36 -20 -4 -24 19 -8 49 16 30 32 22 28
-13z"/>
<path d="M2918 1423 c-35 -41 -32 -74 6 -72 16 1 17 2 4 6 -10 2 -18 8 -18 13
0 20 20 60 31 60 6 0 8 -7 5 -16 -3 -8 -2 -12 4 -9 15 9 12 35 -3 35 -8 0 -21
-8 -29 -17z"/>
<path d="M3080 1430 c-11 -7 -11 -10 -2 -10 9 0 11 -10 6 -35 -4 -23 -2 -35 5
-35 6 0 11 10 11 23 0 12 3 32 6 45 7 24 -2 28 -26 12z"/>
<path d="M3265 1415 c-27 -26 -33 -65 -11 -65 8 0 18 5 22 12 5 7 3 8 -5 3 -9
-5 -12 1 -9 21 2 17 10 30 20 32 14 3 16 -3 11 -32 -3 -20 -1 -36 4 -36 5 0
10 10 10 23 1 12 5 32 8 45 7 30 -19 29 -50 -3z"/>
<path d="M3358 1434 c-12 -21 -19 -84 -8 -84 5 0 10 8 10 18 0 11 9 27 21 38
l21 19 -7 -39 c-6 -28 -5 -37 4 -32 6 4 11 13 11 20 0 7 9 21 21 32 l21 19 -7
-38 c-4 -22 -3 -37 3 -37 9 0 25 81 16 89 -2 2 -13 -4 -24 -14 -18 -16 -20
-16 -20 -2 0 21 -14 22 -31 1 -12 -14 -14 -14 -19 2 -4 10 -9 13 -12 8z"/>
<path d="M3549 1427 c8 -11 11 -27 6 -44 -5 -21 -4 -25 5 -17 16 16 9 66 -10
72 -13 5 -13 3 -1 -11z"/>
<path d="M3610 1425 c-10 -12 -8 -20 9 -41 15 -18 21 -22 21 -11 0 9 -4 19
-10 22 -17 11 -12 35 7 28 11 -4 14 -3 9 5 -10 16 -21 15 -36 -3z"/>
<path d="M3796 1409 c-9 -45 -8 -59 6 -59 6 0 9 2 6 6 -3 3 -2 21 2 40 4 19 4
36 0 39 -4 3 -10 -9 -14 -26z"/>
<path d="M3850 1433 c0 -5 -4 -25 -9 -46 -6 -26 -6 -37 2 -34 5 1 11 12 13 22
2 10 5 29 9 42 3 13 1 23 -5 23 -5 0 -10 -3 -10 -7z"/>
<path d="M3959 1438 c0 -2 -1 -22 -3 -45 -3 -54 13 -56 50 -8 20 27 24 39 16
47 -9 9 -12 7 -12 -9 0 -11 -9 -31 -20 -44 l-21 -24 6 43 c5 27 3 42 -4 42 -6
0 -11 -1 -12 -2z"/>
<path d="M4059 1438 c0 -2 -2 -12 -4 -22 -2 -11 -6 -30 -10 -43 -3 -15 -1 -23
7 -23 8 0 14 17 16 45 1 25 0 45 -3 45 -3 0 -5 -1 -6 -2z"/>
<path d="M4240 1430 c-11 -7 -11 -10 -2 -10 9 0 11 -10 6 -35 -4 -23 -2 -35 5
-35 6 0 11 10 11 23 0 12 3 32 6 45 7 24 -2 28 -26 12z"/>
<path d="M1598 1406 c-13 -30 -5 -56 19 -56 14 0 15 2 4 9 -9 6 -12 19 -8 40
8 37 1 40 -15 7z"/>
<path d="M3508 1406 c-6 -14 -8 -32 -5 -40 11 -29 22 -17 22 24 1 47 -1 49
-17 16z"/>
<path d="M3041 1394 c-6 -14 -9 -30 -6 -35 12 -18 20 -8 21 26 0 19 0 35 -1
35 -1 0 -7 -12 -14 -26z"/>
<path d="M4201 1394 c-6 -14 -9 -30 -6 -35 12 -18 20 -8 21 26 0 19 0 35 -1
35 -1 0 -7 -12 -14 -26z"/>
<path d="M2700 1343 c0 -22 2 -25 10 -13 13 20 13 40 0 40 -5 0 -10 -12 -10
-27z"/>
<path d="M3598 1353 c7 -3 16 -2 19 1 4 3 -2 6 -13 5 -11 0 -14 -3 -6 -6z"/>
</g>
</svg>
