<?xml version="1.0" standalone="no"?>
<!DOCTYPE svg PUBLIC "-//W3C//DTD SVG 20010904//EN"
 "http://www.w3.org/TR/2001/REC-SVG-20010904/DTD/svg10.dtd">
<svg version="1.0" xmlns="http://www.w3.org/2000/svg"
 width="397.000000pt" height="279.000000pt" viewBox="0 0 397.000000 279.000000"
 preserveAspectRatio="xMidYMid meet">

<g transform="translate(0.000000,279.000000) scale(0.100000,-0.100000)"
fill="#000000" stroke="none">
<path d="M2985 2780 c3 -5 12 -10 20 -10 8 0 17 5 20 10 4 6 -5 10 -20 10 -15
0 -24 -4 -20 -10z"/>
<path d="M1260 2714 c-14 -2 -59 -9 -100 -15 -205 -30 -359 -108 -539 -274
l-74 -68 -66 7 c-36 3 -125 9 -197 12 -130 7 -132 7 -144 -16 -7 -12 -9 -36
-6 -55 5 -24 -1 -47 -24 -93 -32 -65 -55 -152 -47 -181 2 -10 -4 -51 -15 -92
-22 -87 -27 -296 -8 -399 25 -148 75 -240 127 -240 9 0 86 -22 172 -50 86 -27
261 -81 389 -119 192 -58 237 -75 253 -96 12 -14 27 -32 35 -40 14 -13 166
-15 1237 -15 l1222 1 90 35 c50 19 124 46 167 59 123 41 135 58 107 164 -12
50 -12 54 20 129 53 121 57 143 42 213 -16 78 -48 146 -120 254 -108 161 -220
275 -316 319 -70 33 -141 46 -250 46 l-94 0 5 30 c15 72 -27 110 -120 110 -36
0 -48 -5 -65 -26 -23 -29 -27 -64 -11 -95 21 -39 -8 -16 -129 102 -322 313
-552 388 -1216 394 -165 2 -311 2 -325 -1z m650 -43 c47 -6 7 -8 -143 -9 -329
-3 -521 -30 -576 -81 -41 -38 -51 -86 -51 -243 0 -125 -2 -138 -19 -148 -11
-5 -22 -10 -25 -10 -3 0 -6 89 -6 198 0 237 0 237 -83 230 -32 -3 -57 -3 -57
-2 0 16 238 66 370 78 63 6 512 -4 590 -13z m138 -18 c-10 -2 -28 -2 -40 0
-13 2 -5 4 17 4 22 1 32 -1 23 -4z m349 -165 c38 -14 87 -37 109 -52 32 -21
40 -24 42 -11 2 8 8 13 13 10 5 -4 9 1 9 9 0 9 -4 16 -10 16 -5 0 -10 5 -10
11 0 18 88 -52 194 -154 l101 -98 -85 7 c-47 4 -179 9 -295 13 l-209 6 -69
101 c-77 113 -82 143 -30 163 42 16 162 6 240 -21z m-1607 -10 c-11 -18 -31
-52 -43 -75 -13 -27 -28 -43 -39 -43 -10 0 -18 3 -18 6 0 15 63 110 83 126 34
27 41 21 17 -14z m-137 -96 c-3 -13 -18 -29 -34 -38 -43 -22 -62 -57 -55 -99
4 -20 2 -42 -5 -54 -12 -19 -14 -18 -53 7 -23 14 -68 41 -101 59 l-60 33 65 0
c104 1 137 13 194 69 27 28 51 49 53 48 1 -2 0 -13 -4 -25z m336 14 c18 -22
35 -117 27 -156 -9 -51 -17 -57 -58 -52 -28 3 -38 9 -42 28 -4 13 -11 24 -17
24 -5 0 -17 16 -25 35 -16 40 -10 60 34 108 28 29 63 35 81 13z m670 -32 c60
-16 143 -70 161 -104 9 -17 8 -20 -12 -20 -13 0 -85 -7 -161 -14 -120 -13
-149 -12 -230 1 -55 9 -113 12 -145 8 -51 -6 -53 -6 -43 13 21 39 96 93 156
112 75 24 198 26 274 4z m-1254 -34 c50 -6 31 -7 -68 -3 -101 4 -141 2 -152
-7 -12 -10 -15 -10 -15 2 0 8 3 18 6 21 7 7 109 1 229 -13z m410 -20 c7 -6 18
-24 24 -41 10 -29 10 -29 -27 -29 -47 0 -205 20 -211 26 -12 11 19 40 55 51
44 14 139 10 159 -7z m-541 -31 c15 -12 42 -51 60 -88 19 -36 50 -90 70 -120
l36 -54 -6 -116 c-6 -111 0 -160 31 -284 l7 -28 -86 43 c-60 29 -88 49 -90 63
-2 11 -12 71 -21 134 -20 135 -46 242 -69 276 -22 34 -58 32 -86 -2 l-21 -28
6 30 c17 78 93 195 128 195 8 0 26 -9 41 -21z m2804 9 c7 -7 12 -20 12 -30 0
-19 -38 -24 -99 -12 -29 6 -42 30 -24 47 11 12 98 8 111 -5z m-2018 -58 c0
-39 -3 -50 -16 -50 -10 0 -14 6 -11 14 3 8 9 31 13 50 9 50 14 45 14 -14z
m-620 -26 l90 -47 -16 -26 c-9 -15 -24 -38 -34 -51 l-18 -23 -54 84 c-69 106
-70 109 -63 109 3 0 46 -21 95 -46z m428 11 c6 -3 12 -9 12 -15 0 -7 -6 -7
-21 0 -11 6 -28 10 -39 8 -14 -2 -4 -15 45 -58 43 -37 58 -56 48 -58 -8 -2
-38 19 -67 47 -28 27 -71 59 -96 71 l-45 20 75 -6 c41 -3 81 -7 88 -9z m2187
8 c-11 -3 -24 -9 -29 -14 -15 -14 -26 -11 -26 6 0 11 10 15 38 14 21 -1 28 -3
17 -6z m-2330 -62 c50 -9 67 -18 105 -56 35 -34 53 -45 78 -45 l32 0 -33 -52
-32 -53 0 -205 c0 -113 4 -247 8 -299 l9 -94 -99 53 c-170 91 -291 161 -302
174 -24 28 -44 208 -36 319 l7 107 64 99 65 99 37 -18 c20 -10 64 -23 97 -29z
m1745 40 c146 -6 330 -18 410 -27 l145 -17 43 -41 c54 -50 155 -180 205 -261
l38 -60 -93 -6 c-51 -4 -220 -7 -376 -8 l-282 -1 -218 108 c-257 129 -421 200
-592 258 -90 31 -117 44 -95 45 52 3 346 14 450 17 55 1 219 -2 365 -7z m-982
-57 l97 -47 -70 -9 c-86 -10 -195 -42 -256 -75 l-46 -24 -51 32 c-63 39 -103
35 -150 -14 -43 -45 -67 -105 -91 -227 -11 -58 -22 -114 -25 -125 -2 -11 -4
51 -3 138 l2 159 77 73 c139 134 232 179 356 171 50 -3 82 -13 160 -52z m162
-1 c162 -46 373 -133 850 -350 l25 -12 -30 0 c-16 0 -99 4 -184 9 l-154 9 -41
39 c-48 46 -73 60 -288 152 -88 38 -188 87 -222 109 -33 21 -79 48 -101 60
l-40 20 50 -6 c28 -3 88 -17 135 -30z m-648 8 c4 -3 -4 -18 -16 -32 l-22 -26
-33 38 -32 39 48 -6 c26 -4 51 -9 55 -13z m2365 -2 c7 -1 10 -6 7 -10 -6 -10
33 -22 46 -14 9 6 70 -21 70 -31 0 -2 -14 3 -31 11 -17 9 -33 14 -36 11 -3 -2
17 -16 45 -30 56 -28 61 -40 62 -136 0 -37 7 -76 15 -90 8 -14 14 -28 15 -32
0 -8 -61 -18 -161 -27 l-79 -7 -10 31 c-19 57 -113 189 -188 263 l-74 73 154
-4 c84 -3 158 -6 165 -8z m-2337 -44 c-24 -25 -48 -45 -53 -45 -4 0 8 20 29
45 20 25 44 45 52 45 11 0 1 -16 -28 -45z m-845 -62 c5 -15 4 -16 -6 -5 -18
17 -25 15 -50 -10 -20 -21 -18 -9 4 20 14 18 44 15 52 -5z m1322 -10 c112
-106 559 -409 649 -440 57 -19 128 -14 132 10 3 17 -32 76 -90 151 l-22 29 34
-6 c18 -4 182 -10 364 -14 357 -6 796 9 926 32 l75 14 27 -32 c15 -18 47 -57
71 -87 44 -56 82 -75 93 -46 8 20 -27 122 -74 218 -20 42 -34 74 -29 71 11 -6
34 -54 88 -178 52 -118 61 -125 29 -23 -15 51 -16 59 -3 43 23 -30 81 -155 88
-192 l7 -33 -44 0 c-24 0 -120 -11 -214 -24 -272 -40 -397 -46 -923 -46 -577
0 -569 1 -645 -80 -54 -58 -106 -160 -106 -208 0 -70 49 -124 136 -152 33 -11
50 -19 39 -19 -33 -1 -133 25 -156 40 -12 8 -60 73 -108 144 -54 82 -98 136
-117 148 -32 18 -292 82 -301 74 -2 -3 50 -24 116 -47 65 -23 133 -50 149 -61
33 -19 180 -229 161 -229 -11 0 -239 61 -373 100 -145 41 -61 -1 134 -68 136
-47 243 -78 360 -103 l85 -19 -155 6 c-265 9 -522 38 -545 60 -10 10 -10 23 2
66 11 40 13 91 10 203 -8 222 -53 429 -127 575 l-30 60 27 17 c33 22 180 72
210 73 12 0 35 -12 50 -27z m-1351 -86 c-7 -26 -15 -45 -18 -41 -7 6 -4 17 14
67 16 41 18 28 4 -26z m1022 -42 c77 -88 122 -258 122 -465 0 -150 -16 -242
-54 -327 -71 -153 -187 -151 -265 6 -33 65 -65 188 -58 222 4 21 4 21 6 -5 2
-46 31 -146 56 -196 28 -55 87 -110 118 -110 63 0 117 75 154 210 25 91 24
325 -1 435 -25 109 -69 201 -109 226 -41 25 -57 24 -98 -4 -39 -26 -71 -78
-99 -162 -16 -47 -19 -52 -14 -21 18 124 98 236 167 236 29 0 42 -8 75 -45z
m701 9 c24 -30 26 -68 8 -102 l-13 -22 -54 38 c-62 43 -70 62 -41 91 30 30 75
27 100 -5z m-1777 -106 c-4 -125 -22 -191 -22 -85 0 50 19 207 25 207 1 0 0
-55 -3 -122z m3515 100 c23 -22 33 -91 14 -102 -16 -10 -81 81 -81 114 0 18
43 11 67 -12z m-1677 -17 c13 -26 13 -74 -2 -106 -13 -29 -35 -28 -29 1 2 10
4 43 5 72 1 55 9 65 26 33z m-853 -16 c-15 -14 -36 -25 -45 -25 -13 1 -11 6
11 25 15 14 36 25 45 25 13 -1 11 -6 -11 -25z m1026 -82 c52 -54 147 -174 147
-185 0 -21 -75 -4 -150 33 -76 38 -104 61 -49 41 13 -5 45 -12 72 -16 39 -6
47 -5 47 8 0 16 -121 144 -180 189 l-35 28 51 -25 c28 -14 72 -46 97 -73z
m-998 57 c-10 -11 -23 -20 -29 -20 -6 1 0 10 13 20 30 26 39 26 16 0z m2611
-130 c13 -35 20 -67 18 -70 -6 -5 -37 30 -80 92 -21 30 -24 41 -15 52 7 8 13
30 13 48 l1 33 20 -45 c11 -25 31 -74 43 -110z m-2727 9 c-10 -55 -21 -137
-25 -180 -4 -44 -11 -82 -15 -85 -14 -8 -10 -86 5 -103 7 -9 20 -46 29 -82 22
-90 49 -149 87 -193 38 -42 19 -51 -28 -11 -115 97 -152 503 -63 708 11 26 22
47 24 47 2 0 -4 -45 -14 -101z m96 5 c13 -49 15 -73 8 -97 l-10 -32 -16 51
c-8 29 -19 78 -23 110 -6 52 -5 57 8 46 8 -6 23 -42 33 -78z m70 -3 c-8 -23
-17 -64 -21 -91 -4 -28 -10 -50 -15 -50 -5 0 -9 5 -9 12 0 20 51 180 56 176 2
-3 -2 -24 -11 -47z m-1038 -8 c-3 -10 -5 -2 -5 17 0 19 2 27 5 18 2 -10 2 -26
0 -35z m47 0 c-10 -40 -14 -41 -14 -5 0 18 5 32 10 32 6 0 8 -11 4 -27z m1030
-15 c-15 -88 -7 -166 22 -224 15 -30 25 -56 23 -58 -2 -3 -22 10 -44 28 l-39
33 -1 84 c0 85 19 179 37 179 6 0 7 -17 2 -42z m-129 -120 c4 -10 3 -18 -2
-18 -12 0 -31 63 -38 126 -5 45 -4 44 14 -21 11 -38 22 -78 26 -87z m-896 78
c-9 -8 -10 -7 -5 7 3 10 7 24 7 30 1 7 3 4 6 -7 3 -10 -1 -23 -8 -30z m748
-28 c-3 -7 -5 -2 -5 12 0 14 2 19 5 13 2 -7 2 -19 0 -25z m84 -116 c-8 -13
-10 -5 -11 34 0 28 3 67 8 85 6 29 7 24 10 -34 2 -37 -2 -75 -7 -85z m-805 37
l-14 -84 -1 77 c-1 81 6 115 20 101 6 -6 3 -45 -5 -94z m163 60 c31 -17 57
-33 59 -34 1 -1 -16 -41 -39 -89 -37 -77 -59 -101 -72 -78 -9 14 -19 232 -11
232 4 0 32 -14 63 -31z m-255 -92 c9 -40 26 -88 37 -107 l21 -35 -22 21 c-28
27 -76 194 -56 194 2 0 11 -33 20 -73z m803 -99 c-2 -35 -3 -9 -3 57 0 66 1
94 3 63 2 -32 2 -86 0 -120z m223 110 c0 -4 -8 0 -18 10 -11 9 -17 21 -14 26
5 9 32 -21 32 -36z m-1003 10 c-3 -8 -6 -5 -6 6 -1 11 2 17 5 13 3 -3 4 -12 1
-19z m914 -25 c-9 -15 -10 -12 -10 17 0 29 1 32 10 18 7 -12 7 -24 0 -35z m79
-38 c0 -13 -3 -31 -6 -39 -5 -14 -9 -14 -22 -4 -14 11 -15 10 -8 -7 5 -14 4
-17 -4 -9 -8 8 -6 19 5 40 8 16 15 36 14 44 0 8 -6 2 -14 -15 l-13 -30 -1 36
c-1 20 2 39 6 43 11 11 43 -33 43 -59z m2657 39 c-3 -3 -12 -4 -19 -1 -8 3 -5
6 6 6 11 1 17 -2 13 -5z m-2999 -136 c61 -33 112 -64 112 -69 0 -13 8 -15
-151 52 -79 33 -155 61 -169 61 -14 0 -52 -11 -85 -26 -56 -25 -106 -28 -120
-7 -2 4 32 24 76 44 55 25 82 43 86 57 5 20 8 19 72 -16 36 -20 117 -64 179
-96z m2935 125 c-7 -2 -19 -2 -25 0 -7 3 -2 5 12 5 14 0 19 -2 13 -5z m-60
-10 c-7 -2 -21 -2 -30 0 -10 3 -4 5 12 5 17 0 24 -2 18 -5z m-2613 -16 c0 -13
-68 -52 -77 -44 -5 6 56 57 68 57 5 0 9 -6 9 -13z m2553 6 c-7 -2 -21 -2 -30
0 -10 3 -4 5 12 5 17 0 24 -2 18 -5z m-54 -7 c-2 -2 -74 -12 -159 -22 -119
-13 -281 -18 -701 -23 l-546 -6 -36 -28 c-37 -28 -117 -171 -117 -209 0 -45
42 -92 125 -137 40 -21 -10 -11 -62 14 -56 26 -93 71 -93 115 0 37 53 142 96
190 72 79 27 74 709 82 336 4 635 11 665 16 61 10 126 14 119 8z m-2363 -47
c19 -22 19 -22 -5 -14 -18 5 -22 4 -16 -5 5 -8 4 -11 -3 -7 -5 4 -8 16 -5 27
7 25 6 25 29 -1z m-1031 -65 c8 -4 22 -1 30 6 20 16 19 6 -1 -14 -25 -25 -42
-19 -64 24 -26 51 -26 65 0 22 11 -18 27 -35 35 -38z m889 51 c-16 -13 -16
-14 -1 -9 21 8 23 -12 1 -20 -9 -3 -28 -6 -42 -6 l-27 1 30 24 c17 14 36 25
44 25 11 0 9 -4 -5 -15z m2325 -1 c-27 -26 -85 -33 -344 -40 -211 -5 -253 -4
-269 8 -17 14 5 16 210 23 126 4 263 11 304 15 124 12 117 12 99 -6z m-2619
-77 c149 -60 155 -63 161 -94 4 -18 4 -33 0 -33 -3 0 -107 33 -231 73 l-225
73 55 21 c30 12 62 22 70 22 8 0 85 -28 170 -62z m413 -12 c-4 -27 -8 -87 -8
-133 0 -55 -4 -82 -11 -82 -7 0 -15 7 -18 16 -8 20 -8 188 0 236 6 33 8 36 26
25 17 -10 18 -18 11 -62z m-57 43 c-3 -13 -6 -68 -7 -123 -1 -87 -3 -93 -9
-50 -5 28 -9 83 -9 123 -1 60 2 72 15 72 12 0 15 -6 10 -22z m-521 -78 c149
-50 287 -95 308 -101 20 -5 37 -14 37 -19 0 -6 -2 -10 -5 -10 -2 0 -136 46
-297 101 -261 90 -335 118 -318 119 3 0 127 -41 275 -90z m2786 -37 c27 -60
59 -126 70 -148 l20 -40 -5 37 -4 36 66 12 c37 6 93 18 124 26 57 14 58 14 98
-11 53 -33 60 -32 61 13 1 37 1 37 11 9 18 -50 -7 -65 -192 -115 -176 -47
-182 -47 -221 -15 -33 28 -33 28 -184 27 -83 0 -163 -4 -178 -8 -15 -3 -44
-22 -65 -40 -50 -45 -96 -49 -407 -36 -316 12 -397 23 -430 56 l-24 24 197 2
c284 3 276 4 402 -36 63 -19 119 -34 124 -33 5 2 -45 23 -112 47 -67 24 -122
47 -122 50 0 3 41 57 92 120 l91 115 216 5 c119 3 240 7 269 8 l53 2 50 -107z
m-2317 25 c4 -40 9 -91 12 -113 l5 -40 -16 28 c-14 24 -55 165 -55 189 0 4 11
8 24 8 22 0 24 -5 30 -72z m106 -203 c-7 -9 -15 -13 -17 -11 -7 7 7 26 19 26
6 0 6 -6 -2 -15z"/>
<path d="M527 2023 c-29 -57 -33 -73 -16 -73 6 0 9 7 6 14 -4 10 -1 13 9 9 9
-3 14 2 14 17 0 12 5 30 11 41 6 11 8 25 6 32 -2 7 -16 -11 -30 -40z"/>
<path d="M2560 2126 c0 -2 28 -20 63 -41 97 -60 206 -143 281 -214 38 -36 60
-52 49 -36 -47 66 -185 182 -290 243 -65 37 -103 55 -103 48z"/>
<path d="M917 1963 c-10 -10 -8 -66 3 -83 5 -8 10 -13 10 -10 0 3 4 20 9 38 6
20 6 30 0 27 -5 -4 -9 0 -9 9 0 8 6 17 13 19 8 4 6 6 -4 6 -9 1 -19 -2 -22 -6z"/>
<path d="M1507 1977 c144 -128 288 -229 458 -322 94 -51 74 -34 -70 62 -66 44
-185 128 -265 186 -147 108 -191 135 -123 74z"/>
<path d="M1391 1676 c18 -17 605 -219 621 -214 23 8 -290 125 -501 187 -96 29
-130 36 -120 27z"/>
<path d="M3134 1668 c6 -21 -23 -33 -30 -13 -4 8 -10 15 -15 15 -5 0 1 -18 13
-40 19 -34 28 -40 56 -40 32 0 32 0 18 28 -20 38 -49 73 -42 50z m25 -56 c-5
-2 -17 -1 -27 3 -15 6 -15 8 3 15 12 4 23 3 27 -4 4 -6 3 -13 -3 -14z"/>
<path d="M485 2510 c-10 -16 14 -50 35 -50 32 0 23 40 -12 53 -10 3 -20 2 -23
-3z"/>
<path d="M794 790 c-11 -4 -33 -22 -47 -40 -31 -36 -36 -93 -12 -127 14 -19
13 -21 -10 -27 -30 -8 -74 -71 -81 -118 -19 -112 110 -153 243 -78 30 17 56
30 57 28 1 -2 7 -15 14 -30 16 -39 56 -47 104 -20 21 11 38 17 38 14 0 -4 -9
-45 -19 -90 l-19 -84 36 7 c46 8 58 23 67 82 10 66 14 76 31 62 17 -14 77 -6
109 15 60 39 92 199 50 246 -17 18 -28 21 -67 18 -42 -4 -48 -3 -48 13 0 15
-8 19 -39 19 -45 0 -42 6 -67 -123 -25 -128 -83 -180 -110 -97 -11 32 -9 37
27 82 20 26 40 61 44 77 8 40 -10 73 -38 69 -27 -4 -36 -45 -13 -54 22 -8 20
-30 -5 -65 -25 -36 -34 -31 -43 20 -6 37 -8 39 -47 43 l-41 4 6 -36 c3 -19 9
-57 12 -85 5 -49 4 -51 -30 -73 -44 -30 -104 -39 -131 -19 -40 30 -12 131 47
167 25 15 29 20 16 25 -23 9 -41 60 -33 92 10 40 24 53 56 53 25 0 29 -4 29
-28 0 -15 -5 -33 -12 -40 -9 -9 -7 -13 7 -18 12 -5 24 0 37 15 25 31 23 57 -7
86 -25 26 -70 32 -111 15z m499 -202 c9 -31 -11 -119 -32 -148 -20 -27 -48
-37 -62 -23 -14 14 21 165 43 185 23 20 44 14 51 -14z"/>
<path d="M2550 791 c-68 -21 -120 -63 -139 -113 -13 -35 0 -73 28 -81 19 -5
21 -1 21 34 0 22 7 53 15 69 14 27 51 60 67 60 5 0 8 -69 8 -154 0 -84 3 -174
6 -200 l7 -47 40 3 39 3 52 138 c59 160 63 158 65 -25 l1 -118 43 0 42 0 32
88 c18 48 55 147 82 220 46 123 48 133 29 130 -17 -2 -31 -33 -82 -178 l-61
-175 -3 178 -2 177 -39 0 -38 0 -61 -177 -61 -178 0 110 c-1 61 -4 140 -8 178
-6 64 -7 67 -32 66 -14 0 -37 -4 -51 -8z"/>
<path d="M3593 752 c-7 -4 -24 -66 -39 -137 -22 -108 -31 -134 -53 -154 l-26
-25 -2 40 c-2 21 -5 75 -9 120 l-5 80 -41 -5 c-40 -6 -40 -7 -74 -90 -18 -46
-40 -91 -48 -100 -8 -9 -19 -28 -25 -44 -10 -27 -43 -37 -56 -18 -3 5 5 59 19
120 l23 111 -42 0 c-25 0 -45 -5 -48 -12 -4 -10 -6 -10 -6 0 -1 7 -17 12 -45
12 -56 0 -91 -27 -122 -94 -33 -70 -32 -139 1 -171 31 -31 63 -32 108 -1 33
23 35 23 40 6 8 -30 55 -36 97 -14 34 19 36 19 70 0 48 -25 94 -16 155 31 l48
36 -7 -41 -6 -42 39 0 c45 0 41 -7 70 124 20 92 38 123 65 113 20 -8 20 -28 1
-111 -10 -44 -12 -72 -6 -89 15 -40 66 -50 94 -19 21 23 21 32 3 32 -23 0 -26
24 -11 87 21 86 19 119 -7 137 -12 9 -32 16 -43 16 -11 0 -31 -7 -43 -16 -26
-18 -27 -13 -8 69 l14 57 -31 0 c-18 0 -37 -4 -44 -8z m-438 -142 c6 -9 -7
-92 -21 -142 -7 -24 -32 -48 -49 -48 -26 0 -36 35 -24 90 16 74 73 134 94 100z
m231 -164 c-8 -31 -48 -45 -72 -25 -14 12 -13 14 6 21 15 5 21 15 19 30 -2 13
6 46 16 73 l20 50 9 -62 c5 -34 6 -73 2 -87z"/>
<path d="M1976 670 c-38 -5 -39 -6 -70 -85 -38 -98 -105 -175 -152 -175 -36 0
-54 16 -54 46 0 17 8 24 30 29 79 17 137 123 86 157 -6 4 -30 8 -53 8 -69 0
-130 -67 -147 -163 -21 -114 77 -164 184 -93 36 24 38 24 43 6 7 -26 53 -43
96 -36 19 3 54 19 77 36 l43 30 13 -27 c25 -51 117 -55 164 -8 21 21 24 33 24
97 0 40 -3 97 -6 126 -7 50 -8 52 -38 52 -17 0 -36 -4 -41 -8 -6 -4 -24 -41
-40 -82 -18 -48 -42 -88 -64 -110 l-36 -35 -7 119 c-4 65 -8 119 -10 120 -2 1
-20 -1 -42 -4z m-186 -76 c0 -26 -48 -84 -69 -84 -14 0 -14 11 0 47 23 60 69
85 69 37z m156 -148 c-8 -31 -48 -45 -72 -25 -14 12 -13 14 6 21 15 5 21 15
19 30 -2 13 6 46 16 73 l20 50 9 -62 c5 -34 6 -73 2 -87z m230 0 c-8 -31 -48
-45 -72 -25 -14 12 -13 14 6 21 15 5 21 15 19 30 -2 13 6 46 16 73 l20 50 9
-62 c5 -34 6 -73 2 -87z"/>
<path d="M1435 638 c-2 -7 -16 -67 -30 -133 -15 -66 -28 -126 -30 -132 -3 -9
9 -13 39 -13 l43 0 24 111 c18 83 29 113 43 121 15 8 23 6 37 -13 15 -20 21
-22 36 -13 23 14 24 63 1 77 -12 8 -24 7 -45 -3 -15 -8 -31 -16 -36 -18 -4 -2
-4 3 -1 12 5 13 -2 16 -35 16 -24 0 -43 -5 -46 -12z"/>
<path d="M82 349 c2 -7 10 -15 17 -17 8 -3 12 1 9 9 -2 7 -10 15 -17 17 -8 3
-12 -1 -9 -9z"/>
<path d="M799 193 c-1 -5 -1 -11 0 -15 0 -4 -5 -37 -13 -73 -12 -56 -12 -65 1
-65 8 0 12 3 9 8 -2 4 2 34 10 67 7 33 14 66 14 73 0 13 -19 17 -21 5z"/>
<path d="M1696 188 c-11 -35 -27 -141 -22 -145 10 -10 28 50 32 105 3 48 -2
68 -10 40z"/>
<path d="M2029 193 c-1 -5 -1 -11 0 -15 0 -4 -5 -37 -13 -73 -12 -56 -12 -65
1 -65 8 0 12 4 9 8 -3 5 1 35 9 68 8 32 14 65 15 72 0 13 -19 17 -21 5z"/>
<path d="M2326 165 c-4 -20 -13 -35 -21 -35 -8 0 -21 -10 -29 -22 -18 -26 -21
-68 -5 -68 5 0 7 5 4 11 -9 13 14 69 27 69 7 0 8 -16 4 -40 -10 -65 10 -45 23
22 7 35 14 71 17 81 3 9 1 17 -4 17 -5 0 -13 -16 -16 -35z"/>
<path d="M2610 143 c-6 -32 -14 -68 -17 -81 -3 -12 -1 -22 4 -22 5 0 16 36 24
80 9 44 12 80 8 80 -4 0 -13 -26 -19 -57z"/>
<path d="M2676 189 c-8 -28 -26 -121 -26 -135 0 -8 5 -14 10 -14 6 0 9 3 8 7
-1 5 4 39 11 76 7 37 11 71 7 74 -3 3 -7 0 -10 -8z"/>
<path d="M3626 165 c-4 -20 -13 -35 -21 -35 -8 0 -21 -10 -29 -22 -18 -26 -21
-68 -5 -68 5 0 7 5 4 11 -9 13 14 69 27 69 7 0 8 -16 4 -40 -11 -68 10 -44 24
27 7 38 15 74 18 81 2 6 0 12 -6 12 -5 0 -13 -16 -16 -35z"/>
<path d="M563 131 c-1 -27 -7 -59 -13 -70 -10 -19 -8 -21 17 -21 17 0 23 3 16
8 -18 11 7 116 28 120 21 4 32 -24 19 -49 -7 -12 -7 -19 -1 -19 9 0 31 31 31
44 0 15 -36 36 -63 36 -31 0 -32 -1 -34 -49z"/>
<path d="M861 164 c0 -11 3 -14 6 -6 3 7 2 16 -1 19 -3 4 -6 -2 -5 -13z"/>
<path d="M1797 166 c-4 -10 -1 -13 9 -9 15 6 19 23 5 23 -5 0 -11 -7 -14 -14z"/>
<path d="M3531 164 c0 -11 3 -14 6 -6 3 7 2 16 -1 19 -3 4 -6 -2 -5 -13z"/>
<path d="M1294 139 c-5 -8 -10 -23 -11 -34 -2 -11 -5 -30 -8 -42 -6 -25 18
-33 31 -11 5 7 3 8 -6 3 -9 -6 -10 0 -5 26 4 19 11 36 16 39 4 3 4 12 0 19 -7
11 -10 11 -17 0z"/>
<path d="M2462 137 c-16 -18 -27 -97 -14 -97 5 0 12 15 15 33 3 17 7 42 10 55
7 25 4 27 -11 9z"/>
<path d="M3212 137 c-14 -17 -27 -97 -16 -97 5 0 10 11 10 25 1 14 5 33 9 43
9 20 14 42 10 42 -1 0 -7 -6 -13 -13z"/>
<path d="M679 128 c-4 -25 -6 -88 -1 -88 3 0 14 7 24 17 17 15 18 15 18 -1 0
-36 23 -8 26 33 3 26 0 40 -6 36 -5 -3 -10 -12 -10 -19 0 -7 -9 -21 -21 -32
l-21 -19 7 38 c5 25 4 37 -4 37 -6 0 -11 -1 -12 -2z"/>
<path d="M845 122 c-14 -10 -15 -82 -1 -82 6 0 12 20 14 45 2 48 2 49 -13 37z"/>
<path d="M908 124 c-12 -21 -19 -84 -8 -84 5 0 10 8 10 18 0 11 10 27 21 38
l22 19 -7 -37 c-4 -24 -3 -38 4 -38 5 0 10 8 10 18 0 11 9 27 21 38 l21 19 -7
-38 c-4 -22 -3 -37 3 -37 9 0 25 81 16 89 -2 2 -13 -4 -24 -14 -18 -16 -20
-16 -20 -2 0 21 -14 22 -31 1 -12 -14 -14 -14 -19 2 -4 10 -9 13 -12 8z"/>
<path d="M1100 115 c7 -8 10 -25 6 -40 -8 -31 2 -33 13 -2 9 24 -3 57 -21 57
-7 0 -6 -5 2 -15z"/>
<path d="M1161 116 c-10 -12 -9 -20 4 -40 16 -23 15 -25 -7 -29 l-23 -4 23 -2
c26 -1 40 25 23 42 -17 17 -14 37 6 30 11 -4 14 -3 9 5 -10 16 -21 15 -35 -2z"/>
<path d="M1349 129 c-9 -51 -8 -90 2 -87 13 4 17 73 6 85 -4 3 -7 4 -8 2z"/>
<path d="M1392 88 c-9 -45 -7 -58 7 -42 12 13 21 84 11 84 -5 0 -13 -19 -18
-42z"/>
<path d="M1509 128 c0 -2 -2 -22 -4 -45 -4 -53 12 -56 49 -12 28 33 31 44 16
54 -5 3 -10 -3 -10 -13 0 -11 -9 -30 -20 -43 l-21 -24 6 43 c5 27 3 42 -4 42
-6 0 -11 -1 -12 -2z"/>
<path d="M1607 112 c-10 -10 -17 -31 -17 -45 0 -21 5 -27 22 -27 20 0 20 1 4
13 -14 10 -15 18 -7 40 6 15 16 27 22 27 6 0 9 -7 5 -15 -3 -8 -1 -15 3 -15
11 0 22 26 14 34 -11 11 -30 6 -46 -12z"/>
<path d="M1729 128 c-6 -29 -7 -88 -1 -88 5 0 9 6 9 13 0 6 3 27 7 45 5 21 4
32 -3 32 -6 0 -11 -1 -12 -2z"/>
<path d="M1786 118 c-13 -42 -14 -78 -3 -78 7 0 13 18 15 45 2 43 -4 60 -12
33z"/>
<path d="M1854 122 c-18 -12 -36 -52 -30 -68 3 -8 13 -14 23 -14 15 0 16 2 3
10 -11 7 -12 15 -4 37 6 15 16 27 22 26 7 -2 12 2 12 7 0 12 -11 13 -26 2z"/>
<path d="M1909 128 c-7 -36 -5 -88 3 -86 14 5 21 88 8 88 -6 0 -10 -1 -11 -2z"/>
<path d="M1958 103 c-15 -31 -12 -66 4 -61 10 4 23 88 14 88 -3 0 -11 -12 -18
-27z"/>
<path d="M2118 95 c3 -26 0 -36 -12 -41 -25 -10 -31 3 -19 36 14 36 9 38 -12
6 -30 -45 12 -78 49 -37 18 20 19 62 0 68 -6 2 -8 -10 -6 -32z"/>
<path d="M2377 113 c-29 -33 -26 -73 6 -72 16 1 18 2 5 6 -10 2 -18 8 -18 13
0 20 20 60 31 60 6 0 8 -7 5 -16 -3 -8 -2 -12 4 -9 15 9 12 35 -3 35 -8 0 -21
-8 -30 -17z"/>
<path d="M2540 120 c-11 -7 -11 -10 -2 -10 9 0 11 -10 6 -35 -4 -23 -2 -35 5
-35 6 0 11 10 11 23 0 12 3 32 6 45 7 24 -2 28 -26 12z"/>
<path d="M2725 105 c-27 -26 -33 -65 -11 -65 8 0 18 5 22 12 4 7 3 8 -4 4 -8
-5 -12 2 -12 18 0 15 8 30 20 36 19 10 20 9 14 -30 -4 -22 -2 -40 3 -40 5 0
10 10 10 23 1 12 5 32 8 45 7 30 -19 29 -50 -3z"/>
<path d="M2818 124 c-12 -21 -19 -84 -8 -84 5 0 10 8 10 18 0 11 9 27 21 38
l21 19 -7 -39 c-6 -28 -5 -37 4 -32 6 4 11 13 11 20 0 7 9 21 21 32 l21 19 -7
-38 c-4 -22 -3 -37 3 -37 9 0 25 81 16 89 -2 2 -13 -4 -24 -14 -18 -16 -20
-16 -20 -2 0 21 -14 22 -31 1 -12 -14 -14 -14 -19 2 -4 10 -9 13 -12 8z"/>
<path d="M3009 117 c8 -11 11 -27 6 -44 -5 -21 -4 -25 5 -17 16 16 9 66 -10
72 -13 5 -13 3 -1 -11z"/>
<path d="M3071 116 c-10 -12 -9 -20 4 -40 16 -23 15 -25 -7 -29 l-23 -4 23 -2
c26 -1 40 25 23 42 -17 17 -14 37 6 30 11 -4 14 -3 9 5 -10 16 -21 15 -35 -2z"/>
<path d="M3256 99 c-9 -45 -8 -59 6 -59 6 0 9 2 6 6 -3 3 -2 21 2 40 4 19 4
36 0 39 -4 3 -10 -9 -14 -26z"/>
<path d="M3310 123 c0 -5 -4 -25 -9 -46 -6 -26 -6 -37 2 -34 5 1 11 12 13 22
2 10 5 29 9 42 3 13 1 23 -5 23 -5 0 -10 -3 -10 -7z"/>
<path d="M3420 101 c0 -16 -3 -36 -6 -45 -12 -30 24 -17 52 19 20 27 24 39 16
47 -9 9 -12 7 -12 -9 0 -11 -9 -31 -20 -44 l-21 -24 6 43 c5 27 3 42 -4 42 -6
0 -11 -13 -11 -29z"/>
<path d="M3519 128 c0 -2 -2 -12 -4 -22 -2 -11 -6 -30 -10 -43 -3 -15 -1 -23
7 -23 8 0 14 17 16 45 1 25 0 45 -3 45 -3 0 -5 -1 -6 -2z"/>
<path d="M3700 120 c-11 -7 -11 -10 -2 -10 9 0 11 -10 6 -35 -4 -23 -2 -35 5
-35 6 0 11 10 11 23 0 12 3 32 6 45 7 24 -2 28 -26 12z"/>
<path d="M1058 96 c-13 -30 -5 -56 19 -56 14 0 15 2 4 9 -9 6 -12 19 -8 40 8
37 1 40 -15 7z"/>
<path d="M2968 96 c-13 -30 -5 -56 19 -56 14 0 15 2 4 9 -9 6 -12 19 -8 40 8
37 1 40 -15 7z"/>
<path d="M2501 84 c-6 -14 -9 -30 -6 -35 12 -18 20 -8 21 26 0 19 0 35 -1 35
-1 0 -7 -12 -14 -26z"/>
<path d="M3661 84 c-6 -14 -9 -30 -6 -35 12 -18 20 -8 21 26 0 19 0 35 -1 35
-1 0 -7 -12 -14 -26z"/>
<path d="M2160 33 c0 -22 2 -25 10 -13 13 20 13 40 0 40 -5 0 -10 -12 -10 -27z"/>
</g>
</svg>
