<?xml version="1.0" standalone="no"?>
<!DOCTYPE svg PUBLIC "-//W3C//DTD SVG 20010904//EN"
 "http://www.w3.org/TR/2001/REC-SVG-20010904/DTD/svg10.dtd">
<svg version="1.0" xmlns="http://www.w3.org/2000/svg"
 width="641.000000pt" height="209.000000pt" viewBox="0 0 641.000000 209.000000"
 preserveAspectRatio="xMidYMid meet">

<g transform="translate(0.000000,209.000000) scale(0.100000,-0.100000)"
fill="#000000" stroke="none">
<path d="M2030 1960 c-440 -24 -469 -28 -545 -65 -66 -32 -99 -66 -90 -94 3
-11 48 -48 98 -82 51 -34 91 -67 89 -73 -2 -6 -16 -26 -30 -45 -41 -52 -102
-140 -102 -147 0 -3 32 38 72 92 39 55 73 101 74 103 2 2 40 -15 86 -37 105
-52 241 -97 352 -117 103 -18 516 -62 706 -76 74 -5 138 -13 142 -17 17 -17
30 -125 37 -297 l8 -180 1 157 c1 103 -3 183 -13 233 -8 43 -13 81 -10 85 2 4
37 2 77 -5 40 -7 147 -20 238 -30 91 -9 242 -26 335 -36 94 -11 235 -26 315
-34 80 -8 207 -22 283 -30 75 -8 175 -15 222 -15 l85 0 24 -47 c28 -54 35 -52
9 2 -21 44 -18 46 73 65 68 14 101 41 89 71 -8 21 -357 227 -530 313 -267 134
-549 234 -745 266 -64 11 -183 24 -266 30 -199 14 -902 20 -1084 10z"/>
<path d="M920 1862 c-30 -20 -120 -80 -200 -132 -80 -52 -165 -113 -189 -135
-39 -36 -125 -154 -117 -162 2 -2 90 39 197 91 107 52 211 97 232 100 36 7 73
33 205 144 28 24 52 47 52 51 0 5 -97 68 -120 78 -3 1 -30 -14 -60 -35z"/>
<path d="M572 1485 c-150 -74 -175 -99 -170 -167 l3 -43 108 2 c72 1 133 9
185 23 106 28 257 87 284 111 l23 19 -40 36 c-63 56 -130 84 -201 84 -56 0
-74 -6 -192 -65z"/>
<path d="M1450 1377 c0 -12 133 -192 160 -217 40 -37 200 -261 226 -315 15
-33 47 -88 100 -177 19 -31 34 -59 34 -63 0 -19 92 -134 127 -158 90 -62 137
-68 658 -81 1288 -32 1637 -38 1665 -26 44 18 65 61 96 195 23 100 28 149 31
295 3 96 1 192 -4 213 -5 24 -8 -30 -8 -155 -1 -173 -3 -206 -28 -318 -34
-151 -42 -175 -75 -200 -22 -18 -41 -20 -186 -20 -88 0 -393 7 -676 15 -283 8
-550 15 -592 16 -43 1 -78 2 -78 3 15 134 40 387 40 404 0 13 -4 21 -9 18 -4
-3 -11 -40 -14 -83 -12 -153 -29 -308 -37 -322 -6 -11 -57 -14 -291 -12 -156
1 -305 7 -332 12 -113 21 -201 87 -256 190 -18 35 -47 83 -63 107 -15 24 -35
58 -43 75 -17 37 -18 38 -108 174 -38 56 -114 157 -170 225 -56 68 -116 145
-134 172 -18 26 -33 41 -33 33z"/>
<path d="M1181 1040 c-127 -27 -223 -76 -311 -157 -58 -54 -140 -167 -140
-194 0 -8 -4 -19 -9 -24 -18 -19 -41 -143 -41 -217 0 -84 3 -87 68 -89 70 -2
82 -10 109 -74 103 -247 384 -353 630 -238 65 30 155 111 189 169 l25 43 84
-6 c46 -3 89 -4 97 -1 19 8 7 272 -17 353 -60 206 -215 361 -418 419 -71 21
-206 29 -266 16z m215 -215 c155 -46 265 -195 266 -360 1 -221 -182 -397 -397
-382 -106 7 -174 37 -248 110 -80 79 -112 155 -112 267 0 114 31 188 114 270
50 49 81 70 126 87 72 26 179 30 251 8z"/>
<path d="M1215 759 c-22 -5 -44 -14 -48 -18 -5 -5 9 -39 32 -77 40 -67 43 -68
82 -69 40 0 43 2 86 69 24 37 43 69 41 71 -31 25 -134 38 -193 24z"/>
<path d="M1068 674 c-15 -15 -11 -21 44 -70 33 -30 64 -54 69 -54 23 0 13 23
-31 71 -28 30 -50 57 -50 62 0 12 -15 8 -32 -9z"/>
<path d="M1420 629 c-37 -43 -50 -63 -42 -71 8 -8 28 4 71 42 34 28 61 55 61
59 0 9 -22 31 -31 31 -3 0 -30 -27 -59 -61z"/>
<path d="M999 568 c-29 -53 -18 -228 14 -228 7 0 40 18 75 40 60 39 62 42 62
83 0 39 -3 45 -32 60 -18 9 -50 28 -70 42 l-37 25 -12 -22z"/>
<path d="M1516 565 c-20 -14 -50 -32 -66 -40 -27 -14 -30 -20 -30 -63 0 -44 3
-49 38 -69 71 -42 102 -57 107 -51 3 3 11 33 17 66 9 47 8 74 -1 116 -7 31
-16 58 -20 61 -5 2 -25 -6 -45 -20z"/>
<path d="M1240 508 c-25 -23 -26 -69 -2 -91 40 -36 112 -6 112 46 0 49 -73 79
-110 45z"/>
<path d="M1112 321 c-61 -55 -63 -57 -44 -74 17 -16 20 -15 48 16 85 93 85 94
72 104 -10 8 -29 -3 -76 -46z"/>
<path d="M1376 373 c-12 -12 -13 -11 72 -107 27 -31 36 -36 47 -26 22 19 19
26 -31 72 -59 55 -80 69 -88 61z"/>
<path d="M1200 260 c-22 -36 -40 -69 -40 -73 0 -11 73 -27 124 -27 51 0 129
19 124 30 -2 3 -21 36 -42 72 -39 66 -39 66 -82 65 -43 0 -44 -1 -84 -67z"/>
<path d="M5075 994 c-204 -43 -332 -133 -437 -309 -54 -90 -71 -166 -72 -325
l-1 -135 102 -5 102 -5 55 -62 c63 -69 113 -102 206 -133 82 -28 206 -24 291
9 66 25 150 85 187 135 26 34 29 35 97 36 39 1 90 5 114 8 l43 7 -1 124 c-1
69 -9 157 -17 195 -32 154 -169 327 -314 398 -110 54 -263 81 -355 62z m177
-188 c207 -48 325 -268 257 -478 -20 -63 -32 -82 -90 -140 -59 -59 -76 -69
-139 -89 -344 -104 -623 265 -422 560 87 127 239 184 394 147z"/>
<path d="M5070 732 c-14 -5 -25 -13 -25 -19 0 -5 16 -38 35 -71 35 -61 35 -61
80 -62 45 0 45 1 84 66 29 48 36 68 28 76 -14 14 -166 21 -202 10z"/>
<path d="M4949 654 c-11 -13 -4 -23 47 -69 63 -58 74 -64 74 -39 0 15 -89 124
-101 124 -4 0 -12 -7 -20 -16z"/>
<path d="M5298 614 c-44 -50 -60 -84 -40 -84 4 0 34 25 67 54 52 47 58 55 46
70 -7 9 -16 16 -20 16 -3 0 -27 -26 -53 -56z"/>
<path d="M4880 544 c-15 -39 -12 -177 4 -199 13 -18 14 -18 47 3 19 12 49 29
67 39 29 15 32 21 32 65 0 28 -5 48 -11 48 -6 0 -34 16 -63 35 -29 19 -56 35
-60 35 -3 0 -11 -12 -16 -26z"/>
<path d="M5353 527 c-59 -38 -63 -43 -63 -78 0 -36 4 -41 68 -83 66 -43 67
-44 79 -22 29 51 20 214 -12 222 -5 1 -38 -16 -72 -39z"/>
<path d="M5117 492 c-38 -42 -8 -102 51 -102 34 0 52 21 52 63 0 50 -70 76
-103 39z"/>
<path d="M4998 314 c-29 -26 -55 -48 -57 -50 -1 -1 4 -12 12 -24 14 -21 16
-20 65 37 28 32 51 62 52 68 4 24 -22 13 -72 -31z"/>
<path d="M5250 348 c0 -7 24 -39 53 -72 46 -52 54 -57 66 -43 17 22 15 26 -47
80 -54 48 -72 57 -72 35z"/>
<path d="M5098 282 c-14 -20 -33 -52 -42 -70 l-17 -32 28 -11 c48 -18 116 -21
163 -6 55 16 55 28 6 101 -33 47 -41 53 -75 54 -34 2 -41 -3 -63 -36z"/>
<path d="M324 770 c0 -91 2 -128 3 -82 2 45 2 119 0 165 -1 45 -3 8 -3 -83z"/>
<path d="M2933 870 c0 -30 2 -43 4 -27 2 15 2 39 0 55 -2 15 -4 2 -4 -28z"/>
<path d="M5946 624 c-25 -18 -23 -47 12 -143 43 -119 75 -148 170 -160 82 -10
124 -2 159 31 20 18 23 31 23 88 0 58 -4 71 -31 108 -38 52 -83 72 -174 78
-38 3 -86 6 -106 8 -19 2 -43 -2 -53 -10z"/>
<path d="M6308 263 c7 -3 16 -2 19 1 4 3 -2 6 -13 5 -11 0 -14 -3 -6 -6z"/>
<path d="M2383 253 c37 -2 96 -2 130 0 34 2 4 3 -68 3 -71 0 -99 -1 -62 -3z"/>
<path d="M2673 253 c15 -2 39 -2 55 0 15 2 2 4 -28 4 -30 0 -43 -2 -27 -4z"/>
<path d="M6168 253 c12 -2 32 -2 45 0 12 2 2 4 -23 4 -25 0 -35 -2 -22 -4z"/>
<path d="M3508 243 c12 -2 32 -2 45 0 12 2 2 4 -23 4 -25 0 -35 -2 -22 -4z"/>
<path d="M6048 243 c7 -3 16 -2 19 1 4 3 -2 6 -13 5 -11 0 -14 -3 -6 -6z"/>
</g>
</svg>
