<?xml version="1.0" standalone="no"?>
<!DOCTYPE svg PUBLIC "-//W3C//DTD SVG 20010904//EN"
 "http://www.w3.org/TR/2001/REC-SVG-20010904/DTD/svg10.dtd">
<svg version="1.0" xmlns="http://www.w3.org/2000/svg"
 width="654.000000pt" height="254.000000pt" viewBox="0 0 654.000000 254.000000"
 preserveAspectRatio="xMidYMid meet">

<g transform="translate(0.000000,254.000000) scale(0.100000,-0.100000)"
fill="#000000" stroke="none">
<path d="M576 2308 c-3 -7 -6 -39 -9 -70 -4 -59 -13 -81 -25 -62 -17 27 -56
34 -177 34 -133 0 -174 -10 -195 -49 -19 -37 -78 -336 -85 -433 -7 -89 -9 -97
-29 -100 -19 -3 -21 -10 -24 -85 -3 -78 -2 -83 28 -116 17 -20 38 -59 46 -89
9 -29 25 -70 35 -90 l19 -38 100 0 c91 0 126 -9 100 -25 -30 -18 -38 -60 -29
-155 10 -122 37 -201 105 -311 62 -100 76 -112 154 -132 l55 -14 11 -69 c41
-239 190 -419 403 -484 97 -30 283 -28 379 4 170 58 310 204 363 376 l22 73
306 -7 c168 -3 605 -11 971 -16 366 -6 883 -15 1150 -20 267 -5 524 -10 572
-10 l86 0 13 -38 c51 -155 205 -307 369 -362 57 -19 81 -21 205 -18 154 5 205
18 301 80 102 65 187 169 228 279 l24 64 84 5 c108 6 188 44 286 135 38 36 77
65 85 65 20 0 23 12 26 101 2 75 2 77 -28 99 l-31 21 0 103 c0 72 -4 107 -13
114 -7 6 -44 18 -83 27 -47 10 -75 23 -85 36 -7 12 -51 69 -96 127 -46 59 -83
110 -83 114 0 4 34 8 76 10 l75 3 -35 46 c-55 70 -89 83 -296 118 -317 53
-587 77 -965 85 -137 3 -165 1 -195 -14 -28 -14 -52 -16 -120 -12 -47 2 -87 8
-90 12 -3 4 -50 65 -105 135 -238 302 -358 450 -369 457 -11 8 -226 11 -226 4
0 -2 38 -57 85 -123 47 -65 113 -158 148 -206 34 -48 91 -126 125 -173 35 -47
61 -88 58 -91 -3 -3 -144 -1 -313 5 -170 7 -396 15 -504 18 l-197 7 -6 156
c-7 161 -25 423 -29 427 -1 1 -29 4 -62 5 l-60 4 -3 -292 -2 -293 -26 0 c-15
0 -232 7 -483 15 l-456 15 -54 58 c-85 91 -92 114 -94 337 l-2 190 -85 5 c-47
3 -88 4 -92 2 -5 -2 -8 -131 -8 -287 0 -156 -4 -286 -9 -289 -7 -4 -1184 33
-1187 38 0 0 5 55 12 121 10 96 24 258 38 433 1 13 -8 18 -37 20 -24 2 -39 -1
-41 -10z m834 -1354 c106 -50 174 -121 214 -224 80 -202 -14 -436 -211 -528
-52 -24 -69 -27 -173 -27 -107 0 -119 2 -175 29 -76 38 -162 123 -200 201 -27
55 -29 69 -30 170 0 106 1 113 34 180 38 77 109 153 174 187 76 39 119 48 212
45 76 -2 100 -7 155 -33z m4240 -1 c217 -101 301 -355 190 -572 -31 -62 -114
-140 -185 -176 -56 -28 -67 -30 -175 -30 -110 0 -119 2 -181 32 -163 81 -262
268 -229 436 31 162 127 273 285 330 79 28 211 19 295 -20z"/>
<path d="M1155 897 c-105 -35 -171 -91 -217 -186 -19 -38 -23 -63 -23 -136 0
-80 3 -96 29 -143 34 -61 95 -120 158 -154 36 -19 58 -23 138 -23 82 0 102 4
145 25 61 31 119 89 153 155 23 43 27 62 27 140 0 73 -5 100 -24 142 -27 61
-96 129 -165 162 -59 29 -163 37 -221 18z m110 -107 c0 -18 -6 -26 -23 -28
-24 -4 -38 18 -28 44 3 9 15 14 28 12 17 -2 23 -10 23 -28z m-102 -12 c13 -20
-6 -48 -34 -48 -22 0 -35 36 -18 56 15 18 38 15 52 -8z m210 1 c14 -22 2 -49
-22 -49 -26 0 -42 29 -29 53 11 21 36 19 51 -4z m-53 -78 c87 -61 92 -165 10
-234 -108 -92 -263 13 -228 154 23 90 141 133 218 80z m-240 4 c26 -31 -18
-71 -47 -43 -12 12 -13 20 -4 37 14 25 34 27 51 6z m374 -7 c8 -14 7 -21 -6
-34 -30 -30 -75 9 -48 42 16 18 39 15 54 -8z m-396 -112 c5 -26 -26 -50 -45
-35 -14 12 -17 41 -6 53 13 13 48 1 51 -18z m421 6 c12 -22 -3 -42 -30 -42
-23 0 -32 15 -24 40 8 25 41 26 54 2z m-389 -123 c0 -24 -27 -36 -49 -22 -17
11 -16 44 2 55 17 10 47 -10 47 -33z m356 27 c15 -12 17 -18 8 -33 -16 -27
-51 -29 -59 -3 -6 20 9 50 24 50 4 0 16 -6 27 -14z m-282 -88 c8 -14 7 -21 -6
-34 -30 -30 -75 9 -48 42 16 18 39 15 54 -8z m200 16 c20 -8 21 -38 1 -54 -21
-17 -45 -5 -45 23 0 35 12 43 44 31z m-110 -30 c21 -8 21 -50 0 -58 -9 -4 -23
-1 -30 5 -17 14 -18 46 -1 52 6 3 13 6 14 6 1 1 8 -2 17 -5z"/>
<path d="M1190 623 c-39 -50 -10 -113 52 -113 61 0 91 78 46 120 -31 29 -72
26 -98 -7z"/>
<path d="M5385 897 c-66 -22 -98 -43 -146 -94 -151 -162 -103 -423 96 -523 43
-21 64 -25 145 -25 80 0 102 4 138 23 66 35 129 98 159 160 23 46 27 68 27
136 0 135 -58 234 -174 295 -72 38 -177 50 -245 28z m123 -110 c-2 -16 -10
-22 -28 -22 -28 0 -39 27 -20 50 18 21 52 1 48 -28z m-113 -22 c0 -25 -4 -30
-25 -30 -28 0 -39 27 -19 51 20 24 44 13 44 -21z m214 16 c15 -27 -9 -56 -37
-47 -24 8 -29 35 -10 54 17 17 36 15 47 -7z m-72 -71 c54 -24 83 -70 83 -130
0 -143 -175 -202 -260 -88 -59 79 -19 199 76 228 43 12 55 11 101 -10z m-222
-25 c0 -25 -4 -30 -25 -30 -28 0 -39 27 -19 51 20 24 44 13 44 -21z m370 0 c0
-23 -5 -30 -19 -30 -28 0 -43 29 -26 50 21 25 45 14 45 -20z m-391 -98 c9 -14
7 -21 -7 -32 -33 -24 -71 11 -46 42 15 18 39 13 53 -10z m421 -7 c0 -18 -6
-26 -23 -28 -13 -2 -25 3 -28 12 -10 26 4 48 28 44 17 -2 23 -10 23 -28z
m-397 -109 c3 -30 1 -32 -25 -29 -34 4 -44 35 -17 55 26 19 39 11 42 -26z
m366 17 c19 -26 4 -51 -28 -46 -24 4 -33 33 -16 53 17 20 26 19 44 -7z m-286
-87 c5 -30 -10 -45 -37 -36 -23 7 -28 34 -9 53 19 19 43 10 46 -17z m211 10
c13 -24 -9 -57 -33 -48 -23 9 -31 34 -16 52 17 20 37 19 49 -4z m-111 -23 c18
-18 14 -46 -8 -53 -27 -8 -40 1 -40 29 0 36 24 48 48 24z"/>
<path d="M5430 630 c-28 -28 -27 -84 2 -104 34 -24 73 -20 97 10 27 35 26 59
-4 89 -29 30 -68 32 -95 5z"/>
</g>
</svg>
